
  <svg
    width="393"
    height="143"
    viewBox="0 0 393 143"
    fill="none"
    xmlns="http://www.w3.org/2000/svg"
  >
    <path
      d="M304.225 111.066C303.775 117.593 305.355 117.728 305.415 117.229C305.475 116.696 306.005 112.097 305.415 110.518C304.855 109.015 305.205 110.849 304.365 112.196"
      stroke="#262626"
      stroke-width="4"
      stroke-miterlimit="1.5"
      stroke-linecap="round"
      stroke-linejoin="round"
    />
    <path
      d="M322.235 107.701C320.705 108.698 320.995 108.942 315.915 116.776C322.215 117.126 322.065 116.893 326.595 117.649"
      stroke="#262626"
      stroke-width="4"
      stroke-miterlimit="1.5"
      stroke-linecap="round"
      stroke-linejoin="round"
    />
    <path
      d="M304.755 129.611C308.755 149.729 320.805 138.244 325.965 128.346"
      stroke="#262626"
      stroke-width="4"
      stroke-miterlimit="1.5"
      stroke-linecap="round"
      stroke-linejoin="round"
    />
    <path
      d="M260.425 8.68164C259.645 22.5186 259.635 22.1696 260.045 36.1656"
      stroke="#262626"
      stroke-width="4"
      stroke-miterlimit="1.5"
      stroke-linecap="round"
      stroke-linejoin="round"
    />
    <path
      d="M250.885 12.5556C250.775 -3.28643 273.925 0.596573 275.235 11.7796C277.455 30.5986 262.675 38.9085 260.445 40.1635"
      stroke="#262626"
      stroke-width="4"
      stroke-miterlimit="1.5"
      stroke-linecap="round"
      stroke-linejoin="round"
    />
    <path
      d="M284.795 10.4812C283.275 9.3162 280.715 10.1832 279.235 33.7682C278.605 43.9292 302.725 36.8842 289.625 5.7832"
      stroke="#262626"
      stroke-width="4"
      stroke-miterlimit="1.5"
      stroke-linecap="round"
      stroke-linejoin="round"
    />
    <path
      d="M304.365 11.4601C303.655 7.74414 303.385 16.6641 303.365 17.1241C303.075 26.7331 302.815 26.5492 301.555 36.0222C302.395 27.5422 303.245 19.0622 304.095 10.5822C313.975 38.6282 317.805 38.6471 318.995 36.5671C321.395 32.3751 320.095 32.0631 319.725 10.0371"
      stroke="#262626"
      stroke-width="4"
      stroke-miterlimit="1.5"
      stroke-linecap="round"
      stroke-linejoin="round"
    />
    <path
      d="M328.575 8.51758C328.285 9.07858 328.595 9.09261 328.085 16.3966"
      stroke="#262626"
      stroke-width="4"
      stroke-miterlimit="1.5"
      stroke-linecap="round"
      stroke-linejoin="round"
    />
    <path
      d="M339.525 8.03778C346.485 8.03778 351.475 6.48978 359.875 5.67578"
      stroke="#262626"
      stroke-width="4"
      stroke-miterlimit="1.5"
      stroke-linecap="round"
      stroke-linejoin="round"
    />
    <path
      d="M350.745 7.88867C350.645 17.6627 350.875 17.5546 350.065 27.2986"
      stroke="#262626"
      stroke-width="4"
      stroke-miterlimit="1.5"
      stroke-linecap="round"
      stroke-linejoin="round"
    />
    <path
      d="M269.815 63.2891C270.155 71.5231 270.495 79.7561 270.845 87.9901"
      stroke="#262626"
      stroke-width="4"
      stroke-miterlimit="1.5"
      stroke-linecap="round"
      stroke-linejoin="round"
    />
    <path
      d="M268.685 65.7724C266.965 62.7274 278.775 57.8505 280.295 65.4575C281.105 69.5345 279.305 68.9645 272.845 75.2695C277.555 71.3445 277.035 70.2445 281.205 70.0005C287.135 69.6505 288.525 76.9075 285.375 81.6295C276.985 94.2195 274.055 88.0465 271.565 86.3545"
      stroke="#262626"
      stroke-width="4"
      stroke-miterlimit="1.5"
      stroke-linecap="round"
      stroke-linejoin="round"
    />
    <path
      d="M292.835 68.0918C293.005 69.8668 294.795 88.6047 297.005 89.9897C297.755 90.4547 297.235 87.9988 307.365 86.3558"
      stroke="#262626"
      stroke-width="4"
      stroke-miterlimit="1.5"
      stroke-linecap="round"
      stroke-linejoin="round"
    />
    <path
      d="M294.105 79.8135C298.885 79.3345 298.755 79.0435 303.185 77.2695"
      stroke="#262626"
      stroke-width="4"
      stroke-miterlimit="1.5"
      stroke-linecap="round"
      stroke-linejoin="round"
    />
    <path
      d="M293.555 67.4572C299.705 64.5862 299.485 64.3261 305.915 62.3691"
      stroke="#262626"
      stroke-width="4"
      stroke-miterlimit="1.5"
      stroke-linecap="round"
      stroke-linejoin="round"
    />
    <path
      d="M342.825 60.9038C338.875 51.4158 324.125 72.7618 336.625 76.7238C337.295 76.9388 349.455 76.2588 347.345 80.9028C345.605 84.7268 336.395 86.3518 335.345 86.5358"
      stroke="#262626"
      stroke-width="4"
      stroke-miterlimit="1.5"
      stroke-linecap="round"
      stroke-linejoin="round"
    />
    <path
      d="M350.895 56.2461C353.915 79.9791 352.515 80.0981 354.065 87.0811"
      stroke="#262626"
      stroke-width="4"
      stroke-miterlimit="1.5"
      stroke-linecap="round"
      stroke-linejoin="round"
    />
    <path
      d="M359.975 56.9473C360.125 69.9513 358.915 69.9613 362.065 82.5393"
      stroke="#262626"
      stroke-width="4"
      stroke-miterlimit="1.5"
      stroke-linecap="round"
      stroke-linejoin="round"
    />
    <path
      d="M353.405 74.9418C355.325 74.5368 359.695 71.0918 359.695 71.0918"
      stroke="#262626"
      stroke-width="4"
      stroke-miterlimit="1.5"
      stroke-linecap="round"
      stroke-linejoin="round"
    />
    <path
      d="M367.635 59.9883C365.195 63.7543 371.565 71.5453 372.235 72.3633"
      stroke="#262626"
      stroke-width="4"
      stroke-miterlimit="1.5"
      stroke-linecap="round"
      stroke-linejoin="round"
    />
    <path
      d="M378.585 58.4199C375.935 74.0809 375.545 73.8839 371.145 89.2619"
      stroke="#262626"
      stroke-width="4"
      stroke-miterlimit="1.5"
      stroke-linecap="round"
      stroke-linejoin="round"
    />
    <path
      d="M388.985 50.892C391.535 45.599 389.845 52.726 390.045 67.275"
      stroke="#262626"
      stroke-width="4"
      stroke-miterlimit="1.5"
      stroke-linecap="round"
      stroke-linejoin="round"
    />
    <path
      d="M390.025 80.4395C389.785 80.5935 389.555 80.7484 389.315 80.9034"
      stroke="#262626"
      stroke-width="4"
      stroke-miterlimit="1.5"
      stroke-linecap="round"
      stroke-linejoin="round"
    />
    <path
      d="M2 85.6025C38.036 118.342 126.105 122.321 144.095 97.7925C168.755 64.1535 149.195 34.6145 219.535 28.9875C232.555 27.9455 217.375 25.1145 206.865 17.5195C207.075 17.6025 248.855 25.6516 217.125 36.2296"
      stroke="#262626"
      stroke-width="4"
      stroke-miterlimit="1.5"
      stroke-linecap="round"
      stroke-linejoin="round"
    />
  </svg>