
  <svg
    width="837"
    height="126"
    viewBox="0 0 837 126"
    fill="none"
    xmlns="http://www.w3.org/2000/svg"
  >
    <path
      d="M4.30694 98.8164C3.65194 95.2154 8.55293 89.2124 12.4339 89.9884C15.8009 90.6614 14.3969 91.9804 13.0229 95.0604C19.9269 92.0024 21.3459 90.3804 25.8859 96.4344C28.4229 99.8164 15.9749 102.37 19.1599 100.777C19.2829 100.716 25.6869 106.24 18.3189 112.267C13.3919 116.299 9.88693 110.329 12.4339 105.962C12.1119 106.313 12.4759 107.012 12.1539 107.363C10.5849 109.075 -4.37108 106.876 5.14792 100.077"
      stroke="#0D0D0D"
      stroke-width="4"
      stroke-miterlimit="1.5"
      stroke-linecap="round"
      stroke-linejoin="round"
    />
    <path
      d="M22.0199 79.4794C17.6379 82.4594 6.34086 68.7484 9.63186 65.0464C14.7719 59.2634 17.2089 58.8734 18.0389 58.7414C20.1569 58.4024 19.7589 59.2784 21.1219 60.9834C-2.63012 55.0454 8.14386 35.5564 18.4599 32.1174C33.8099 27.0014 35.3189 38.9534 35.5539 39.4044C33.6059 36.7544 27.6839 32.4764 34.9939 22.7294C41.3449 14.2614 72.0159 2.58142 67.6419 27.0734C67.3179 28.8924 66.7949 25.7064 68.9039 24.6914C76.8279 20.8754 91.6649 24.9584 95.5269 30.5764C100.829 38.2884 86.5389 42.0184 85.7179 42.3464C87.0149 42.4954 97.7969 43.7324 101.552 46.2704C102.221 46.7224 107.754 50.4604 103.934 56.0784C99.7349 62.2544 93.4699 60.9644 93.2849 60.9834C93.5209 61.1604 100.555 64.0614 101.412 71.7724C102.766 83.9594 79.5839 96.4944 77.7309 79.1994C76.7159 69.7264 77.7119 81.7794 77.1709 84.2434C75.8609 90.2104 68.0449 95.9744 63.9989 92.6504C55.6269 85.7734 50.5789 66.5234 54.0509 74.8554C58.6089 85.7944 31.2669 86.0384 26.3059 76.1164"
      stroke="#0D0D0D"
      stroke-width="4"
      stroke-miterlimit="1.5"
      stroke-linecap="round"
      stroke-linejoin="round"
    />
    <path
      d="M26.1769 74.5676C25.6099 74.3936 27.0189 75.9656 21.6819 80.4606"
      stroke="#0D0D0D"
      stroke-width="4"
      stroke-miterlimit="1.5"
      stroke-linecap="round"
      stroke-linejoin="round"
    />
    <path
      fill-rule="evenodd"
      clip-rule="evenodd"
      d="M159.724 19.186C160.433 20.032 160.322 21.295 159.476 22.004C158.631 22.713 157.368 22.6021 156.659 21.7571C155.111 19.9111 153.766 19.2221 152.584 19.2571C150.934 19.3061 149.833 20.6381 149.612 20.8851C148.848 21.7401 143.954 27.1711 142.207 33.0881C141.192 36.5281 141.282 40.1761 144.554 42.9141C144.985 43.2761 147.477 45.3031 151.491 44.0681C152.953 43.618 153.404 43.273 154.031 42.392C154.639 41.538 155.376 40.3601 156.769 38.6071C157.456 37.7431 158.715 37.5991 159.579 38.2861C160.443 38.9731 160.587 40.2321 159.9 41.0961C158.57 42.7701 157.87 43.897 157.289 44.712C156.133 46.335 155.363 47.062 152.667 47.892C146.474 49.797 142.651 46.5391 141.986 45.9811C137.296 42.0551 136.915 36.8881 138.371 31.9551C140.332 25.3121 145.772 19.18 146.63 18.22C147.056 17.743 149.279 15.354 152.464 15.259C154.506 15.198 157.052 16 159.724 19.186Z"
      fill="#262626"
    />
    <path
      fill-rule="evenodd"
      clip-rule="evenodd"
      d="M164.369 18.8013C164.256 17.7033 165.056 16.7203 166.154 16.6063C167.252 16.4933 168.235 17.2934 168.348 18.3914C169.323 27.8454 170.849 27.8024 169.131 43.0144C169.008 44.1104 168.017 44.9004 166.92 44.7774C165.823 44.6534 165.033 43.6623 165.157 42.5653C166.814 27.8833 165.311 27.9263 164.369 18.8013Z"
      fill="#262626"
    />
    <path
      fill-rule="evenodd"
      clip-rule="evenodd"
      d="M177.238 33.0506C178.628 34.0306 179.953 35.5126 181.054 37.6656C181.578 38.6926 182.018 39.9606 182.233 40.6236C182.258 40.6166 182.283 40.6096 182.308 40.6026C182.604 40.2826 183.312 39.5616 183.83 39.3746C184.868 39.0006 186.015 39.5406 186.389 40.5796C186.725 41.5136 186.322 42.5356 185.482 43.0036C185.225 43.2846 184.459 44.0896 183.908 44.2876C182.27 44.8776 181.222 44.7876 180.513 44.5066L179.846 44.1396L179.323 43.6586C179.011 43.3016 178.748 42.8306 178.526 42.2386C178.268 41.5506 178.054 40.5866 177.492 39.4856C176.565 37.6726 175.423 36.5656 174.274 35.9696C173.133 36.9206 172.007 37.6806 171.055 38.1636C169.831 38.7846 168.77 38.9646 168.099 38.8736L167.212 38.5966L166.76 38.2946L166.369 37.8836L166.005 37.1996L165.851 36.2306C165.855 35.7586 165.978 35.1156 166.342 34.3076C166.777 33.3396 167.951 32.2586 169.69 31.7396C170.713 31.4346 171.959 31.2956 173.283 31.4766C174.37 30.3716 175.37 29.1006 176.042 27.7846C176.91 26.0876 177.261 24.2906 175.834 22.8996C174.767 21.8606 174.05 21.2706 173.343 21.0036C172.724 20.7706 172.139 20.8336 171.353 20.9016C170.348 20.9876 169.119 21.1346 167.441 21.1696C166.337 21.1926 165.423 20.3146 165.4 19.2116C165.377 18.1076 166.254 17.1936 167.358 17.1706C169.212 17.1316 170.486 16.9436 171.521 16.8766C172.961 16.7836 174.061 16.8956 175.306 17.4986C176.232 17.9466 177.265 18.7086 178.626 20.0356C181.269 22.6126 181.315 25.8506 179.889 29.0126C179.258 30.4126 178.315 31.7916 177.238 33.0506Z"
      fill="#262626"
    />
    <path
      fill-rule="evenodd"
      clip-rule="evenodd"
      d="M195.547 19.8619C195.536 19.9119 195.513 20.0149 195.491 20.1209C195.198 21.5369 194.301 26.5669 194.582 31.7109C194.746 34.7099 195.283 37.7659 196.704 40.049C197.597 39.8839 200.252 39.3469 204.104 38.1909C205.162 37.8739 206.278 38.4749 206.595 39.5319C206.912 40.5899 206.311 41.7059 205.254 42.0229C199.745 43.6749 197.413 44.1169 196.339 44.1079C196.08 44.1059 195.862 44.0839 195.675 44.0519L194.984 43.8519L194.241 43.3859L193.725 42.7929C191.689 39.9079 190.804 35.898 190.588 31.929C190.282 26.329 191.255 20.8519 191.574 19.3099C191.663 18.8799 191.74 18.6369 191.753 18.6019L192.021 18.1119L192.484 17.6629L193.219 17.3469L193.972 17.3359L194.695 17.6159L195.27 18.1669L195.585 18.9049C195.653 19.2339 195.635 19.5609 195.547 19.8619ZM194.027 21.265C193.503 21.372 192.984 21.2639 192.564 20.9999C193.01 21.2799 193.497 21.374 194.027 21.265ZM192.556 20.9959C192.113 20.7149 191.78 20.2609 191.667 19.7069C191.824 20.4729 192.272 20.8149 192.556 20.9959Z"
      fill="#262626"
    />
    <path
      fill-rule="evenodd"
      clip-rule="evenodd"
      d="M193.845 34.6863C192.742 34.7233 191.816 33.8583 191.779 32.7553C191.741 31.6523 192.606 30.7263 193.71 30.6883C197.819 30.5493 197.735 30.4473 201.87 30.4473C202.974 30.4473 203.87 31.3433 203.87 32.4473C203.87 33.5513 202.974 34.4473 201.87 34.4473C197.803 34.4473 197.886 34.5493 193.845 34.6863Z"
      fill="#262626"
    />
    <path
      fill-rule="evenodd"
      clip-rule="evenodd"
      d="M194.019 23.7669C192.962 24.0839 191.846 23.4829 191.529 22.4259C191.211 21.3689 191.812 20.2529 192.869 19.9359C197.958 18.4089 197.955 18.7689 205.915 17.5749C207.006 17.4119 208.025 18.1649 208.189 19.2569C208.353 20.3479 207.599 21.3669 206.508 21.5309C198.891 22.6739 198.889 22.3059 194.019 23.7669Z"
      fill="#262626"
    />
    <path
      fill-rule="evenodd"
      clip-rule="evenodd"
      d="M229.639 42.4971C229.653 42.5921 229.66 42.6901 229.66 42.7891V44.0161V44.0661C229.66 45.1611 228.78 46.0521 227.685 46.0661C226.59 46.0791 225.688 45.2101 225.66 44.1161C225.66 44.0991 225.66 44.0831 225.66 44.0661C225.563 40.0271 226.082 39.9601 224.424 36.1891C222.45 31.6951 221.209 28.3301 220.414 25.8401C217.755 34.2311 215.326 43.2361 214.816 44.2521L214.337 44.9031L213.819 45.2541L213.022 45.4461L212.335 45.3491L211.848 45.1141L211.499 44.8211L211.158 44.3381L210.991 43.8801L210.951 42.9501C211.008 42.3401 211.265 40.8351 211.781 38.1931C213.517 29.2971 216.487 22.1691 217.899 19.4211C218.438 18.3711 218.913 17.7931 219.091 17.6431L219.53 17.3201L219.972 17.1121L220.656 16.9961L221.256 17.0811L222.006 17.4841L222.534 18.1421C222.639 18.3411 222.778 18.7501 222.911 19.4731C223.203 21.0591 223.987 25.2511 228.086 34.5801C229.84 38.5701 229.628 39.0701 229.639 42.4971Z"
      fill="#262626"
    />
    <path
      fill-rule="evenodd"
      clip-rule="evenodd"
      d="M216.859 39.3053C215.951 39.7953 214.803 39.5133 214.232 38.6333C213.631 37.7073 213.895 36.4672 214.821 35.8662L215.47 35.5403L216.08 35.3763C216.928 35.2183 218.847 35.2133 227.517 32.2173C228.561 31.8573 229.7 32.4112 230.061 33.4552C230.421 34.4982 229.867 35.6383 228.824 35.9983C220.369 38.9193 217.26 39.2693 216.859 39.3053Z"
      fill="#262626"
    />
    <path
      fill-rule="evenodd"
      clip-rule="evenodd"
      d="M234.236 22.1815C233.144 22.3455 232.125 21.5915 231.962 20.4995C231.798 19.4085 232.552 18.3895 233.644 18.2255C249.508 15.8505 252.158 16.3105 253.753 16.5555C254.844 16.7235 255.594 17.7455 255.426 18.8365C255.258 19.9275 254.236 20.6765 253.145 20.5095C251.644 20.2785 249.16 19.9475 234.236 22.1815Z"
      fill="#262626"
    />
    <path
      fill-rule="evenodd"
      clip-rule="evenodd"
      d="M244.634 20.8852C244.668 19.7822 245.591 18.9142 246.694 18.9482C247.798 18.9822 248.666 19.9052 248.632 21.0092C248.579 22.7092 248.176 35.4082 246.723 42.1862C246.492 43.2652 245.428 43.9542 244.349 43.7222C243.269 43.4912 242.581 42.4272 242.812 41.3482C244.215 34.7992 244.583 22.5282 244.634 20.8852Z"
      fill="#262626"
    />
    <path
      fill-rule="evenodd"
      clip-rule="evenodd"
      d="M262.493 39.7621C262.514 37.7151 262.478 34.7781 262.199 31.9181C261.924 29.0951 261.472 26.3341 260.466 24.8011C259.86 23.8781 260.117 22.6371 261.04 22.0311C261.963 21.4251 263.204 21.6831 263.81 22.6051C264.785 24.0911 265.47 26.4371 265.874 29.0641C266.725 34.5831 266.469 41.3971 266.427 42.4821L266.312 43.3591L265.887 44.1381L265.272 44.6141L264.618 44.8121L263.943 44.7821L263.251 44.4881L262.867 44.1561L262.571 43.7321C262.494 43.5881 262.376 43.0021 262.063 42.5841C261.401 41.7011 261.58 40.4461 262.463 39.7841C262.473 39.7761 262.483 39.7691 262.493 39.7621Z"
      fill="#262626"
    />
    <path
      fill-rule="evenodd"
      clip-rule="evenodd"
      d="M264.447 18.0042C264.251 19.0902 263.21 19.8132 262.124 19.6172C261.038 19.4222 260.315 18.3812 260.51 17.2942L260.673 16.3902C260.869 15.3042 261.91 14.5802 262.996 14.7762C264.082 14.9722 264.806 16.0132 264.61 17.0992L264.447 18.0042Z"
      fill="#262626"
    />
    <path
      fill-rule="evenodd"
      clip-rule="evenodd"
      d="M276.116 21.865C276.193 22.326 276.29 22.852 276.404 23.336C277.332 27.273 279.367 33.463 281.26 36.9C281.356 37.074 281.466 37.251 281.578 37.424C282.489 34.834 282.85 31.963 283.301 29.135C283.909 25.329 284.674 21.6 286.637 18.516C287.229 17.585 288.467 17.31 289.398 17.902C290.329 18.495 290.604 19.732 290.011 20.663C288.335 23.299 287.771 26.513 287.251 29.766C286.659 33.477 286.141 37.241 284.653 40.488C284.531 40.754 284.4 40.98 284.266 41.172L283.686 41.816L283.143 42.178L282.488 42.412L281.799 42.47L281.169 42.369L280.542 42.117L279.822 41.621C278.876 40.811 277.729 38.981 276.668 36.628C274.472 31.759 272.372 24.563 272 21.592C271.848 20.382 272.046 19.55 272.23 19.199L272.765 18.532L273.425 18.156L274.183 18.036L275.041 18.235L275.721 18.695C275.878 18.841 276.066 19.048 276.273 19.335C276.84 20.121 276.752 21.181 276.116 21.865Z"
      fill="#262626"
    />
    <path
      fill-rule="evenodd"
      clip-rule="evenodd"
      d="M305.918 39.7382L306.193 39.4192C307.055 38.7292 308.315 38.8692 309.004 39.7312C309.45 40.2892 309.549 41.0122 309.331 41.6402C309.345 41.5972 309.358 41.5522 309.37 41.5062L309.18 41.9722C309.058 42.1862 308.895 42.3802 308.692 42.5422C308.778 42.4742 308.983 42.3212 309.159 42.0232L309.012 42.3852L308.492 43.0102L308.069 43.3222L307.572 43.5572L306.496 43.7382C301.421 43.7382 301.54 43.8342 296.603 44.6572C296.037 44.7512 295.458 44.5982 295.013 44.2372C294.568 43.8752 294.3 43.3392 294.276 42.7662C293.934 34.4452 293.914 30.1772 293.821 27.9092C293.798 27.3662 293.746 26.8542 293.712 26.5632C292.96 25.9912 292.698 24.9452 293.14 24.0712C293.637 23.0862 294.841 22.6902 295.826 23.1872L296.443 23.5662L296.925 24.0312L297.304 24.6242L297.602 25.5132C297.888 26.8412 297.799 30.2222 298.183 40.3342C301.184 39.8282 301.924 39.7452 305.918 39.7382ZM309.331 41.6402C309.282 41.7892 309.223 41.9152 309.159 42.0232L309.18 41.9722C309.24 41.8662 309.291 41.7552 309.331 41.6402ZM305.554 40.3792C305.519 40.4472 305.496 40.5102 305.483 40.5612L305.554 40.3792Z"
      fill="#262626"
    />
    <path
      fill-rule="evenodd"
      clip-rule="evenodd"
      d="M296.859 33.9156C295.76 34.0116 294.789 33.1976 294.692 32.0976C294.595 30.9986 295.41 30.0276 296.509 29.9306C301.11 29.5266 300.978 29.5225 305.457 28.4375C306.53 28.1775 307.612 28.8366 307.872 29.9096C308.132 30.9826 307.472 32.0646 306.399 32.3246C301.624 33.4826 301.764 33.4846 296.859 33.9156Z"
      fill="#262626"
    />
    <path
      fill-rule="evenodd"
      clip-rule="evenodd"
      d="M294.679 23.3005C293.677 22.8375 293.239 21.6485 293.701 20.6465C294.164 19.6435 295.353 19.2055 296.355 19.6685C298.881 20.8345 300.514 21.1995 301.721 21.0845C302.783 20.9825 303.432 20.4745 304.085 20.0755C304.662 19.7235 305.237 19.4105 305.882 19.2025C306.933 18.8635 308.061 19.4415 308.399 20.4915C308.738 21.5425 308.161 22.6705 307.11 23.0085C306.51 23.2025 306.03 23.5865 305.468 23.9165C303.519 25.0615 301.006 26.2205 294.679 23.3005Z"
      fill="#262626"
    />
    <path
      fill-rule="evenodd"
      clip-rule="evenodd"
      d="M142.088 79.3884C142.135 79.3534 142.182 79.3214 142.229 79.2904L142.708 79.0494L143.277 78.9174L143.858 78.9294L144.368 79.0624L145.198 79.5764L145.87 80.3804C147.154 82.3554 148.805 88.8874 150.527 93.4274C150.814 94.1814 151.237 95.0204 151.583 95.6624C152.238 94.1284 152.73 92.1324 153.245 90.1124C153.935 87.4124 154.652 84.6704 155.649 82.6714C156.828 80.3094 158.472 78.8974 160.508 78.7404C161.799 78.6414 162.687 78.8724 163.339 79.3244C164.03 79.8034 164.605 80.5904 164.861 82.0524C165.257 84.3104 164.943 89.3074 165.568 99.8214C165.707 102.155 166.329 105.827 166.425 107.497C166.452 107.956 166.439 108.319 166.407 108.558L166.175 109.33C165.681 110.318 164.479 110.718 163.492 110.225C162.653 109.806 162.238 108.875 162.434 108C162.365 107.469 161.719 102.478 161.575 100.058C161.061 91.4114 161.203 86.5444 161.038 83.8724C161.013 83.4624 160.946 83.0224 160.895 82.7244C160.867 82.7254 160.84 82.7264 160.815 82.7284C160.43 82.7584 160.158 83.0384 159.892 83.3754C159.363 84.0434 158.952 84.9704 158.575 86.0184C157.165 89.9334 156.339 95.3184 154.746 98.3174C154.034 99.6564 153.182 100.239 152.468 100.456L151.723 100.578L150.988 100.502L150.24 100.215L149.412 99.6034C148.547 98.7754 147.618 97.0334 146.788 94.8464C145.648 91.8434 144.593 87.8944 143.647 85.1744C143.577 85.5474 143.512 85.9444 143.453 86.3614C143.15 88.4894 142.99 91.0814 142.908 93.7674C142.906 98.0914 142.875 102.856 142.875 107.156C142.875 108.26 141.979 109.156 140.875 109.156C139.77 109.156 138.875 108.26 138.875 107.156C138.875 105.079 138.834 102.273 138.84 99.2594C138.806 94.9554 138.755 90.6234 138.71 87.2904C137.765 87.0174 137.143 86.0804 137.289 85.0804C137.622 82.8064 137.902 81.3534 138.123 80.5774C138.21 80.2724 138.297 80.0374 138.375 79.8664L138.744 79.2594L139.246 78.8094L139.886 78.5324L140.596 78.4844L141.26 78.6714L141.689 78.9414L142.063 79.3334L142.088 79.3884Z"
      fill="#262626"
    />
    <path
      fill-rule="evenodd"
      clip-rule="evenodd"
      d="M174.476 92.6365C174.391 91.5355 175.215 90.5734 176.316 90.4884C177.416 90.4034 178.379 91.2274 178.464 92.3284C178.912 98.1294 179.411 98.0674 178.587 103.83C178.431 104.923 177.417 105.683 176.325 105.527C175.232 105.371 174.472 104.357 174.628 103.265C175.389 97.9394 174.89 97.9975 174.476 92.6365Z"
      fill="#262626"
    />
    <path
      fill-rule="evenodd"
      clip-rule="evenodd"
      d="M177.508 84.9557C177.474 85.1587 177.425 85.4037 177.355 85.6297C177.031 86.6847 175.91 87.2777 174.855 86.9527C173.8 86.6287 173.207 85.5087 173.532 84.4537C173.638 84.1107 173.609 83.9107 173.643 83.7447L173.821 83.1887L174.161 82.6237L174.971 81.8757C175.871 81.2357 177.121 81.4477 177.76 82.3467C178.344 83.1687 178.219 84.2817 177.508 84.9557Z"
      fill="#262626"
    />
    <path
      fill-rule="evenodd"
      clip-rule="evenodd"
      d="M188.398 83.3312C188.763 82.9932 189.253 82.7892 189.789 82.7982C190.893 82.8162 191.774 83.7272 191.756 84.8312C191.753 85.0432 191.749 85.2512 191.746 85.4552C192.905 88.0432 195.221 94.2022 196.984 98.3222C197.622 99.8112 198.112 101.008 198.45 101.475C198.757 101.64 199.676 102.177 201.5 103.558C201.499 103.462 201.498 103.366 201.495 103.27C201.327 97.0492 199.711 85.4231 199.535 84.1511C199.383 83.0581 200.148 82.0472 201.241 81.8962C202.335 81.7442 203.345 82.5092 203.497 83.6022C203.705 85.1002 205.821 100.541 205.465 105.671C205.399 106.611 205.228 107.311 205.038 107.722L204.61 108.382L204.029 108.855L203.424 109.092L202.761 109.142L202.082 108.985L201.413 108.587C197.646 105.505 196.752 105.116 196.358 104.893L195.645 104.345C195.174 103.851 194.276 102.159 193.307 99.8962C192.728 98.5442 192.09 96.9672 191.454 95.3722C191.28 98.4522 191.001 101.205 190.472 107.328C190.382 108.376 189.494 109.175 188.442 109.155C187.39 109.135 186.533 108.303 186.482 107.252C186.413 105.819 185.767 92.1332 186.493 86.8812C186.684 85.4992 187.059 84.5421 187.394 84.1041L187.907 83.5972L188.398 83.3312Z"
      fill="#262626"
    />
    <path
      fill-rule="evenodd"
      clip-rule="evenodd"
      d="M214.222 83.8068C214.76 84.4858 214.797 85.4408 214.316 86.1588C214.887 88.3408 215.947 93.7528 216.318 104.76C216.355 105.864 215.49 106.789 214.386 106.827C213.283 106.864 212.357 105.998 212.32 104.895C211.808 89.6868 210.059 86.5318 209.955 85.2638L209.96 84.6728L210.115 84.0018L210.351 83.5128L210.763 82.9768L211.317 82.5528L211.957 82.3418L212.587 82.3428L213.14 82.5128L213.698 82.9008L214.054 83.3548L214.222 83.8068ZM210.556 85.3188L210.481 85.1168C210.501 85.1888 210.527 85.2558 210.556 85.3188ZM214.321 84.0708L214.396 84.2728C214.376 84.2008 214.35 84.1338 214.321 84.0708ZM211.661 83.3098C211.504 83.3978 211.346 83.5168 211.192 83.6818C211.332 83.5308 211.491 83.4068 211.661 83.3098Z"
      fill="#262626"
    />
    <path
      fill-rule="evenodd"
      clip-rule="evenodd"
      d="M212.341 85.8348C211.938 86.4998 211.164 86.8958 210.346 86.7788C209.414 86.6448 208.814 86.4548 208.478 86.2968L207.943 85.9658L207.504 85.5028L207.269 85.0768L207.124 84.5168L207.143 83.9038L207.315 83.3658L207.763 82.7418L208.6 82.2058C209.102 82.0008 210.125 81.8007 211.462 81.8027C214.069 81.8057 218.06 82.4988 221.085 84.7068C225.724 88.0918 227.532 91.5518 228.076 94.4978C228.928 99.1218 226.642 102.677 226.121 103.477C221.945 109.879 220.947 108.811 213.651 111.156C212.6 111.494 211.472 110.915 211.135 109.864C210.797 108.813 211.376 107.685 212.427 107.348C218.398 105.428 219.353 106.532 222.77 101.292C223.123 100.75 224.719 98.3538 224.142 95.2238C223.732 93.0008 222.227 90.4918 218.727 87.9378C216.775 86.5128 214.275 85.9717 212.367 85.8367C212.358 85.8357 212.35 85.8358 212.341 85.8348Z"
      fill="#262626"
    />
    <path
      d="M373.096 44.2891C367.403 42.2251 362.969 58.0171 369.898 60.5111C381.594 64.7221 389.938 42.8691 373.892 42.8691"
      stroke="#0D0D0D"
      stroke-width="4"
      stroke-miterlimit="1.5"
      stroke-linecap="round"
      stroke-linejoin="round"
    />
    <path
      d="M361.67 97.8819C355.15 91.3769 364.064 69.2169 373.892 69.8309C384.775 70.5109 383.721 94.4599 383.711 94.4619"
      stroke="#0D0D0D"
      stroke-width="4"
      stroke-miterlimit="1.5"
      stroke-linecap="round"
      stroke-linejoin="round"
    />
    <path
      d="M361.077 98.29C371.671 97.327 371.579 98.145 382.213 97.791"
      stroke="#0D0D0D"
      stroke-width="4"
      stroke-miterlimit="1.5"
      stroke-linecap="round"
      stroke-linejoin="round"
    />
    <path
      d="M469.606 37.6636C469.437 37.6906 465.356 36.3246 461.281 42.8666C454.926 53.0676 460.522 63.6016 472.528 59.2086C473.416 58.8836 477.822 57.2726 478.681 49.1156C479.183 44.3376 476.56 43.2566 469.067 39.6946"
      stroke="#0D0D0D"
      stroke-width="4"
      stroke-miterlimit="1.5"
      stroke-linecap="round"
      stroke-linejoin="round"
    />
    <path
      d="M452.636 105.29C449.222 102.52 450.955 84.3454 462.338 74.0124C471.684 65.5294 475.079 70.0314 478.584 82.1844C480.201 87.7894 477.944 95.6114 477.431 94.5854"
      stroke="#0D0D0D"
      stroke-width="4"
      stroke-miterlimit="1.5"
      stroke-linecap="round"
      stroke-linejoin="round"
    />
    <path
      d="M451.475 102.084C460.893 104.595 461.874 100.946 479.834 101.507"
      stroke="#0D0D0D"
      stroke-width="4"
      stroke-miterlimit="1.5"
      stroke-linecap="round"
      stroke-linejoin="round"
    />
    <path
      d="M388.977 61.5887C388.509 62.5667 387.49 63.3827 388.413 62.7667C392.32 60.1627 398.023 54.1587 398.796 53.3457"
      stroke="#0D0D0D"
      stroke-width="4"
      stroke-miterlimit="1.5"
      stroke-linecap="round"
      stroke-linejoin="round"
    />
    <path
      d="M393.425 49.5288C385.117 44.1618 383.9 24.5798 416.58 20.9488C425.081 20.0048 450.004 21.1188 450.514 37.9638C450.589 40.4428 454.514 51.8158 433.787 52.5758C425.263 52.8888 418.998 51.3588 413.408 51.2298C408.134 51.1088 407.608 51.6948 407.255 50.4608"
      stroke="#0D0D0D"
      stroke-width="4"
      stroke-miterlimit="1.5"
      stroke-linecap="round"
      stroke-linejoin="round"
    />
    <path
      d="M445.479 75.5604C447.04 58.4994 406.094 57.6264 398.988 72.2824C390.044 90.7294 432.832 83.7134 435.037 83.5294"
      stroke="#0D0D0D"
      stroke-width="4"
      stroke-miterlimit="1.5"
      stroke-linecap="round"
      stroke-linejoin="round"
    />
    <path
      d="M442.063 83.5586C442.245 85.6946 442.489 85.8626 444.554 86.2216C445.486 86.3836 449.257 84.6696 449.649 84.4916"
      stroke="#0D0D0D"
      stroke-width="4"
      stroke-miterlimit="1.5"
      stroke-linecap="round"
      stroke-linejoin="round"
    />
    <path
      fill-rule="evenodd"
      clip-rule="evenodd"
      d="M526.071 18.1295C527.058 18.6225 527.46 19.8245 526.966 20.8125C526.473 21.7995 525.271 22.2015 524.283 21.7075C522.94 21.0365 521.738 21.6264 520.691 22.6984C518.368 25.0754 516.746 29.5625 516.108 33.6375C515.762 35.8485 515.705 37.9445 516.064 39.5135C516.17 39.9764 516.307 40.3824 516.508 40.7014C516.608 40.8614 516.709 41.0085 516.887 41.0235C518.567 41.1635 519.671 41.1165 520.528 40.7855C521.309 40.4835 521.837 39.9355 522.481 39.2305C523.693 37.9015 525.124 36.0885 527.792 33.8255C528.633 33.1115 529.896 33.2155 530.611 34.0565C531.325 34.8985 531.221 36.1614 530.38 36.8755C527.891 38.9865 526.566 40.6875 525.435 41.9275C524.32 43.1485 523.323 43.9925 521.971 44.5155C520.694 45.0095 519.059 45.2185 516.555 45.0095C514.725 44.8575 513.33 43.7025 512.544 41.6655C511.75 39.6035 511.624 36.4195 512.156 33.0185C512.925 28.1085 515.031 22.7675 517.83 19.9025C520.199 17.4775 523.031 16.6105 526.071 18.1295Z"
      fill="#262626"
    />
    <path
      fill-rule="evenodd"
      clip-rule="evenodd"
      d="M545.808 20.4706C546.899 20.2986 547.923 21.0446 548.095 22.1346C548.267 23.2256 547.521 24.2496 546.431 24.4216C540.28 25.3916 538.404 32.0266 539.139 36.8046C539.317 37.9576 539.649 39.0106 540.146 39.8436C540.511 40.4536 540.95 40.9456 541.521 41.1616C542.048 41.3606 542.658 41.2776 543.35 40.9636C544.415 40.4796 545.572 39.5136 546.852 38.0116C550.157 34.1306 551.27 30.8366 551.273 28.0966C551.276 25.6976 550.441 23.7675 549.687 22.3145C549.052 21.0925 548.466 20.1336 548.224 19.4626C547.849 18.4246 548.388 17.2776 549.426 16.9026C550.464 16.5276 551.611 17.0656 551.986 18.1046C552.189 18.6646 552.707 19.4506 553.237 20.4716C554.23 22.3846 555.277 24.9426 555.273 28.1016C555.269 31.5376 554.041 35.7396 549.897 40.6056C546.033 45.1406 542.558 45.8286 540.108 44.9036C537.62 43.9646 535.752 41.0925 535.186 37.4135C534.162 30.7645 537.248 21.8196 545.808 20.4706Z"
      fill="#262626"
    />
    <path
      fill-rule="evenodd"
      clip-rule="evenodd"
      d="M567.448 42.5546C568.851 41.8906 571.442 40.8167 575.959 39.3797C577.01 39.0457 578.136 39.6276 578.471 40.6796C578.806 41.7316 578.223 42.8567 577.171 43.1917C569.606 45.5987 568.391 46.6086 567.775 46.9166L567.158 47.1516L566.426 47.2426L565.87 47.1896L565.304 47.0126L564.785 46.7146L564.363 46.3327C563.926 45.8477 563.565 45.0626 563.467 43.9516C563.327 42.3686 563.701 39.7096 564.122 36.5946C564.684 32.4276 565.323 27.3416 564.356 23.1926C564.106 22.1176 564.775 21.0417 565.85 20.7907C566.925 20.5407 568.001 21.2096 568.252 22.2846C569.576 27.9726 568.289 35.2677 567.676 40.1917C567.566 41.0737 567.481 41.8706 567.448 42.5546Z"
      fill="#262626"
    />
    <path
      fill-rule="evenodd"
      clip-rule="evenodd"
      d="M586.033 41.7449C587.344 40.7559 589.944 39.1079 594.805 36.9819C595.816 36.5399 596.996 37.0008 597.439 38.0128C597.881 39.0238 597.419 40.2038 596.408 40.6468C589.09 43.8478 588.044 45.3008 587.484 45.7938L586.639 46.3218L585.857 46.4968L585.152 46.4618L584.48 46.2588L583.669 45.7338L583.106 45.0998C582.338 44.0149 581.777 41.7448 581.616 38.8718C581.321 33.5678 582.099 26.0019 583.356 21.6329C583.661 20.5719 584.77 19.9589 585.831 20.2639C586.892 20.5689 587.505 21.6778 587.2 22.7388C585.854 27.4178 585.106 36.0938 585.821 40.8038C585.867 41.1088 585.948 41.4409 586.033 41.7449Z"
      fill="#262626"
    />
    <path
      fill-rule="evenodd"
      clip-rule="evenodd"
      d="M618.384 43.0715C618.058 42.5835 617.752 42.0085 617.635 41.4455C616.143 34.2595 615.679 30.5565 615.171 28.1215C614.736 26.0385 614.257 25.0435 612.83 23.2375C612.227 22.4735 611.687 21.9255 611.176 21.5935C610.977 21.4635 610.817 21.3505 610.65 21.3655C610.369 21.3905 610.233 21.7035 610.026 22.0165C609.784 22.3835 609.566 22.8205 609.366 23.3115C610.087 23.5205 610.66 24.1265 610.787 24.9155C610.843 25.2625 610.765 26.4375 610.483 28.0995C609.578 33.4235 607.002 45.0885 606.709 46.4165C606.489 47.4135 605.553 48.0845 604.539 47.9735C603.524 47.8625 602.756 47.0055 602.756 45.9855C602.756 44.9535 602.759 36.0795 603.915 28.7615C604.444 25.4135 605.235 22.3815 606.314 20.4325C607.459 18.3645 609.012 17.3465 610.7 17.3655C612.137 17.3805 613.981 18.2395 615.97 20.7585C617.879 23.1765 618.504 24.5155 619.086 27.3035C619.595 29.7395 620.059 33.4445 621.551 40.6325C621.597 40.8515 621.758 41.0055 621.88 41.1415C622.104 41.3925 622.32 41.5965 622.459 41.7555L622.892 42.4045L623.084 43.0705L623.081 43.6015L622.916 44.1855L622.601 44.6855L622.238 45.0245L621.443 45.3985C621.219 45.4585 620.864 45.5125 620.335 45.5125C619.231 45.5125 618.335 44.6165 618.335 43.5125C618.335 43.3615 618.352 43.2135 618.384 43.0715Z"
      fill="#262626"
    />
    <path
      fill-rule="evenodd"
      clip-rule="evenodd"
      d="M609.394 40.095C609.168 41.176 608.106 41.869 607.026 41.642C605.946 41.415 605.253 40.354 605.48 39.274C605.821 37.648 606.302 36.878 607.685 36.041C608.939 35.283 611.468 34.457 617.001 31.816C617.997 31.341 619.192 31.764 619.667 32.76C620.143 33.756 619.72 34.951 618.724 35.426C614.202 37.584 611.723 38.497 610.31 39.172C609.925 39.356 609.661 39.42 609.53 39.624C609.452 39.746 609.435 39.901 609.394 40.095Z"
      fill="#262626"
    />
    <path
      fill-rule="evenodd"
      clip-rule="evenodd"
      d="M632.222 40.6455C632.183 35.3625 632.088 29.1735 631.883 25.5635C631.823 24.5035 631.686 23.3405 631.664 23.1595C631.308 22.2305 631.692 21.1585 632.593 20.6795C633.568 20.1615 634.78 20.5315 635.298 21.5065C635.479 21.8455 635.759 23.2475 635.877 25.3375C636.248 31.9035 636.266 46.9025 636.233 49.8365C636.228 50.2885 636.208 50.5515 636.201 50.5945L635.984 51.2585L635.704 51.6555L635.249 52.0295L634.619 52.2735L633.843 52.2775L633.313 52.0965L632.818 51.7395L632.507 51.3445L632.27 50.7575L632.215 50.2625C632.2 49.7095 632.183 46.9955 632.183 41.0385C632.183 40.9035 632.197 40.7725 632.222 40.6455Z"
      fill="#262626"
    />
    <path
      fill-rule="evenodd"
      clip-rule="evenodd"
      d="M643.057 27.7436C644.097 27.3866 645.067 27.2726 646.117 27.4576C647.487 27.7026 649.057 28.5206 651.117 30.4206C652.957 32.1136 653.567 35.1276 652.897 38.2466C652.027 42.2606 649.097 46.2716 645.277 47.2096C642.657 47.8526 639.507 47.2126 636.231 43.9376C635.451 43.1566 635.451 41.8896 636.231 41.1086C637.012 40.3286 638.277 40.3286 639.057 41.1086C641.007 43.0536 642.767 43.7066 644.327 43.3246C646.767 42.7236 648.427 39.9746 648.987 37.4026C649.327 35.8156 649.337 34.2216 648.407 33.3596C647.137 32.1906 646.257 31.5466 645.417 31.3966C644.717 31.2726 644.117 31.5766 643.377 31.9546C641.737 32.7846 639.737 34.0956 636.606 35.2506C635.737 35.5706 634.762 35.2527 634.249 34.4817C633.736 33.7107 633.82 32.6886 634.45 32.0106C634.968 31.4546 638.847 27.3126 640.697 23.9676C640.967 23.4796 641.187 23.0136 641.337 22.5846C641.397 22.3966 641.447 22.1126 641.467 22.0016C641.297 21.7226 641.017 21.6046 640.717 21.5656C640.237 21.5056 639.717 21.5736 639.187 21.6936C636.556 22.2796 633.699 24.1556 633.291 24.4196C632.365 25.0186 631.125 24.7536 630.526 23.8266C629.926 22.8996 630.192 21.6606 631.118 21.0606C631.712 20.6766 636.506 17.6716 640.097 17.5496C642.307 17.4746 644.157 18.2866 645.147 20.4106C645.457 21.0666 645.557 21.8816 645.397 22.8196C645.247 23.7096 644.817 24.7767 644.197 25.9037C643.867 26.4997 643.477 27.1206 643.057 27.7436Z"
      fill="#262626"
    />
    <path
      fill-rule="evenodd"
      clip-rule="evenodd"
      d="M661.907 22.6681C661.737 21.9081 662.027 21.0891 662.707 20.6121C663.607 19.9751 664.857 20.1911 665.497 21.0931C666.327 22.2791 671.517 29.8531 668.767 37.3501C667.587 40.5641 664.977 43.8291 659.837 46.5211C657.847 47.5671 656.297 47.5011 655.167 46.9741C653.987 46.4191 653.087 45.2511 652.687 43.5191C652.157 41.2321 652.497 37.7041 653.457 34.2161C654.607 30.0621 656.637 25.9991 658.737 24.1231C659.767 23.2051 660.847 22.7281 661.907 22.6681ZM664.477 27.3951C663.777 27.6251 662.977 27.4551 662.427 26.8901C662.317 26.7821 662.237 26.6861 662.127 26.6611C661.967 26.6281 661.847 26.7631 661.697 26.8711C661.357 27.1091 661.027 27.4521 660.707 27.8611C659.317 29.6111 658.107 32.4391 657.317 35.2821C656.557 38.0351 656.167 40.8101 656.587 42.6151C656.647 42.8871 656.837 43.2471 656.887 43.3441C656.947 43.3401 657.087 43.3291 657.187 43.3041C657.427 43.2421 657.697 43.1301 657.987 42.9781C661.967 40.8901 664.097 38.4641 665.007 35.9711C666.147 32.8661 665.467 29.7591 664.477 27.3951Z"
      fill="#262626"
    />
    <path
      fill-rule="evenodd"
      clip-rule="evenodd"
      d="M679.807 40.7227C679.867 40.1837 679.937 39.4417 679.957 38.6297C680.057 35.6917 680.017 30.7797 679.847 22.7817C679.827 21.6777 680.707 20.7637 681.807 20.7407C682.907 20.7177 683.827 21.5947 683.847 22.6977C684.047 32.1857 684.067 37.4017 683.897 40.1427C683.797 41.6007 683.627 42.4877 683.437 42.9917L683.097 43.6647L682.667 44.1527L682.127 44.5107L681.467 44.7107L680.957 44.7277L680.347 44.5997L679.477 44.1237C678.587 43.4607 678.407 42.2067 679.077 41.3237C679.267 41.0587 679.527 40.8567 679.807 40.7227Z"
      fill="#262626"
    />
    <path
      fill-rule="evenodd"
      clip-rule="evenodd"
      d="M688.187 33.0681C689.547 32.8381 690.637 32.9031 691.677 33.3781C692.737 33.8621 693.807 34.8341 694.997 36.7851C695.507 37.6221 695.767 38.2731 695.977 38.8081C696.077 39.0601 696.087 39.2721 696.237 39.4391C696.407 39.6241 696.707 39.7231 697.207 39.9091C698.237 40.2971 698.757 41.4501 698.377 42.4841C697.987 43.5181 696.827 44.0421 695.797 43.6541C693.327 42.7281 692.907 41.909 692.417 40.695C692.237 40.247 692.067 39.6731 691.577 38.8651C690.967 37.8701 690.547 37.2621 690.007 37.0151C689.577 36.8151 689.107 36.952 688.507 37.078C686.997 37.395 685.037 38.0151 682.127 38.3301C681.267 38.4231 680.447 37.9531 680.087 37.1651C679.727 36.3761 679.927 35.4491 680.557 34.8651C687.787 28.2611 690.727 24.3971 691.617 22.0321C691.907 21.2401 691.877 20.935 691.647 20.82C691.137 20.566 688.227 19.0291 685.347 20.1911C684.127 20.6831 682.947 21.6831 681.927 23.4231C681.377 24.3761 680.147 24.6981 679.197 24.1411C678.237 23.5851 677.917 22.359 678.477 21.406C680.047 18.709 681.967 17.2431 683.857 16.4811C688.227 14.7171 692.667 16.856 693.437 17.242C694.207 17.627 695.187 18.3351 695.627 19.6781C696.067 21.0291 695.997 23.5341 692.797 27.7961C691.707 29.2591 690.207 30.9991 688.187 33.0681Z"
      fill="#262626"
    />
    <path
      fill-rule="evenodd"
      clip-rule="evenodd"
      d="M717.997 38.5793C717.917 37.9663 717.737 36.8223 717.487 35.7853C716.527 31.7333 714.577 25.5893 712.817 21.3653C712.327 20.1993 711.647 18.9433 711.227 18.1963C711.177 18.3073 711.127 18.4293 711.067 18.5603L711.527 18.9043L711.927 19.5373L712.117 20.2413C712.197 20.8333 712.077 22.0983 711.677 24.0013C710.927 27.6523 709.257 34.1953 707.367 43.4193C707.147 44.4603 706.157 45.1533 705.107 44.9953C704.057 44.8383 703.307 43.8863 703.407 42.8283C704.987 26.2413 706.327 19.2733 707.567 16.5013C708.257 14.9483 709.067 14.2833 709.757 13.9653L710.417 13.7483L711.047 13.6743C711.507 13.6663 711.987 13.7583 712.467 13.9183L713.107 14.2343L713.737 14.7723C714.207 15.2703 714.787 16.1533 715.377 17.3363C717.347 21.2533 719.897 28.9133 721.187 34.0523C721.797 36.4793 722.107 38.4033 722.047 39.2653L721.967 39.8503L721.777 40.3803L721.487 40.8123L721.177 41.1153L720.707 41.4033L720.147 41.5613L719.527 41.5593L718.847 41.3443C717.867 40.8503 717.467 39.6483 717.957 38.6613C717.967 38.6333 717.987 38.6063 717.997 38.5793ZM719.717 37.5553C720.027 37.5513 720.347 37.6183 720.637 37.7663C720.307 37.5993 719.997 37.5393 719.717 37.5553Z"
      fill="#262626"
    />
    <path
      fill-rule="evenodd"
      clip-rule="evenodd"
      d="M708.047 37.6816C707.057 38.1586 705.857 37.7376 705.387 36.7426C704.907 35.7466 705.327 34.5516 706.317 34.0746C716.437 29.2296 721.107 29.3496 722.737 28.9566C723.807 28.6976 724.897 29.3586 725.147 30.4316C725.407 31.5046 724.747 32.5856 723.677 32.8446C722.127 33.2186 717.667 33.0726 708.047 37.6816Z"
      fill="#262626"
    />
    <path
      fill-rule="evenodd"
      clip-rule="evenodd"
      d="M722.317 23.5018C721.217 23.5548 720.277 22.7028 720.217 21.5998C720.167 20.4978 721.017 19.5598 722.127 19.5058C737.337 18.7728 739.407 19.1738 747.027 17.5688C748.107 17.3408 749.167 18.0338 749.397 19.1138C749.627 20.1938 748.937 21.2548 747.857 21.4828C740.037 23.1288 737.917 22.7498 722.317 23.5018Z"
      fill="#262626"
    />
    <path
      fill-rule="evenodd"
      clip-rule="evenodd"
      d="M735.617 23.222C735.677 22.12 736.617 21.271 737.717 21.329C738.817 21.386 739.667 22.327 739.617 23.43C739.047 34.343 739.057 34.17 738.057 44.933C737.957 46.033 736.977 46.842 735.877 46.74C734.777 46.637 733.977 45.662 734.077 44.563C735.067 33.882 735.057 34.053 735.617 23.222Z"
      fill="#262626"
    />
    <path
      fill-rule="evenodd"
      clip-rule="evenodd"
      d="M754.307 29.6394C754.627 28.5824 755.747 27.9805 756.797 28.2975C757.857 28.6145 758.457 29.7294 758.147 30.7874C757.917 31.5414 758.047 31.5425 757.347 42.1585C757.277 43.2605 756.327 44.0964 755.227 44.0244C754.127 43.9524 753.287 42.9995 753.357 41.8985C754.107 30.4465 754.067 30.4524 754.307 29.6394Z"
      fill="#262626"
    />
    <path
      fill-rule="evenodd"
      clip-rule="evenodd"
      d="M757.317 20.3842C757.437 20.9062 757.517 21.4692 757.507 21.9482C757.477 23.0512 756.557 23.9222 755.447 23.8912C754.347 23.8592 753.477 22.9383 753.507 21.8353C753.527 21.2203 753.287 20.6523 753.147 20.2443C752.997 19.8273 752.907 19.4782 752.877 19.2322L752.887 18.5493L753.137 17.8392L753.647 17.2213L754.327 16.8482L754.857 16.7402L755.437 16.7672C755.707 16.8112 756.137 16.9392 756.747 17.2412C757.727 17.7352 758.137 18.9372 757.637 19.9252C757.547 20.0962 757.447 20.2502 757.317 20.3842Z"
      fill="#262626"
    />
    <path
      fill-rule="evenodd"
      clip-rule="evenodd"
      d="M774.107 38.8364C774.757 36.4024 775.027 34.3784 775.397 32.3734C776.167 28.2104 777.297 24.1044 782.427 17.1064C783.077 16.2154 784.337 16.0234 785.227 16.6764C786.117 17.3284 786.307 18.5814 785.657 19.4714C781.067 25.7264 780.017 29.3784 779.327 33.0984C778.827 35.8074 778.487 38.5424 777.277 42.1664L777.077 42.6454L776.727 43.1314L776.227 43.5564L775.617 43.8324L774.897 43.9374L774.287 43.8694L773.707 43.6784C773.487 43.5844 773.247 43.4564 772.997 43.2894C771.577 42.3374 769.367 39.5984 767.707 36.2014C766.057 32.8354 764.967 28.8564 765.477 25.5184C765.637 24.4274 766.667 23.6764 767.757 23.8434C768.847 24.0104 769.597 25.0314 769.427 26.1224C768.817 30.1004 771.317 35.1604 773.487 38.0934C773.677 38.3464 773.897 38.6004 774.107 38.8364Z"
      fill="#262626"
    />
    <path
      fill-rule="evenodd"
      clip-rule="evenodd"
      d="M794.557 41.7449C794.867 41.5649 795.437 41.2289 795.877 40.9329C797.457 39.8499 799.597 38.4259 802.847 37.6149C803.917 37.3469 804.997 37.9989 805.267 39.0699C805.537 40.1409 804.887 41.2279 803.817 41.4949C801.017 42.1939 799.237 43.4819 797.917 44.3809C797.157 44.9029 796.497 45.3169 795.907 45.5549C795.397 45.7629 794.917 45.8629 794.447 45.8679L793.877 45.8259L793.307 45.6819C792.427 45.3769 791.427 44.5829 790.437 42.7219C789.127 40.2629 787.457 32.3779 788.217 27.3389C788.657 24.4439 789.977 22.4409 791.877 21.8229C792.927 21.4819 794.057 22.0569 794.397 23.1069C794.737 24.1559 794.167 25.2859 793.117 25.6269C792.777 25.7359 792.667 26.1169 792.507 26.5269C792.187 27.4159 792.047 28.5598 792.017 29.8058C791.927 33.9128 793.017 39.0628 793.967 40.8398C794.147 41.1818 794.397 41.5319 794.557 41.7449Z"
      fill="#262626"
    />
    <path
      fill-rule="evenodd"
      clip-rule="evenodd"
      d="M790.177 34.3108C789.507 34.7488 788.607 34.7538 787.917 34.2558L787.497 33.9078L787.187 33.5298L786.897 32.8148L786.887 32.0798L787.167 31.3308L787.677 30.7678L788.487 30.3878C789.007 30.2598 791.417 30.3848 797.887 30.3848C798.997 30.3848 799.887 31.2808 799.887 32.3848C799.887 33.4888 798.997 34.3848 797.887 34.3848C793.937 34.3848 791.377 34.3388 790.177 34.3108Z"
      fill="#262626"
    />
    <path
      fill-rule="evenodd"
      clip-rule="evenodd"
      d="M791.827 24.2419C790.727 24.1699 789.887 23.2169 789.957 22.1159C790.027 21.0139 790.987 20.1779 792.087 20.2499C793.487 20.3419 794.887 19.912 796.287 20.003C797.027 20.051 796.977 20.0749 805.517 20.9989C806.617 21.1179 807.417 22.1049 807.297 23.2029C807.177 24.2999 806.187 25.0949 805.097 24.9759C796.697 24.0689 796.757 24.0419 796.027 23.9939C794.627 23.9029 793.227 24.3329 791.827 24.2419Z"
      fill="#262626"
    />
    <path
      fill-rule="evenodd"
      clip-rule="evenodd"
      d="M522.452 83.555C522.176 83.631 521.855 83.7369 521.572 83.8789C521.047 84.1409 520.609 84.8499 520.14 85.7239C519.168 87.5359 518.382 90.0869 518.011 92.7199C517.707 94.8779 517.679 97.0939 518.104 98.9979C518.452 100.557 519.08 101.908 520.262 102.655C521.118 103.195 522.035 103.078 522.937 102.687C523.785 102.319 524.616 101.724 525.418 101.024C528.839 98.0359 531.641 93.174 532.054 92.461C532.609 91.506 533.834 91.1809 534.788 91.7349C535.743 92.2899 536.068 93.515 535.514 94.469C534.966 95.413 530.656 102.709 525.925 105.622C523.331 107.22 520.615 107.609 518.126 106.037C516.465 104.988 515.301 103.341 514.604 101.311C513.703 98.6849 513.598 95.3719 514.05 92.1609C514.571 88.4699 515.821 84.9279 517.255 82.7539C518.048 81.5519 518.938 80.7239 519.783 80.3009C522.652 78.8669 524.761 79.4389 525.738 80.4779C526.719 81.5219 527.151 83.6639 525.523 86.4179C524.962 87.3679 523.734 87.6839 522.784 87.1219C521.834 86.5599 521.518 85.3329 522.08 84.3819C522.231 84.1279 522.357 83.821 522.452 83.555Z"
      fill="#262626"
    />
    <path
      fill-rule="evenodd"
      clip-rule="evenodd"
      d="M546.186 84.0846C545.841 83.4746 545.592 83.0206 545.497 82.7476C545.133 81.7046 545.684 80.5636 546.726 80.1996C547.768 79.8366 548.91 80.3876 549.273 81.4296C549.827 83.0156 556.437 91.0486 550.4 102.787C546.779 109.828 541.47 110.669 538.13 108.299C535.057 106.119 533.07 100.457 535.861 92.7806C536.749 90.3386 537.488 88.4716 538.283 87.1346C538.965 85.9886 539.715 85.1726 540.566 84.6226C541.923 83.7486 543.658 83.5046 546.186 84.0846ZM548.354 88.9866C546.687 88.3186 545.382 87.8926 544.315 87.7646C543.666 87.6856 543.155 87.7136 542.734 87.9846C542.205 88.3256 541.827 88.9325 541.413 89.7405C540.834 90.8675 540.28 92.3316 539.62 94.1476C538.384 97.5476 538.234 100.423 538.855 102.531C539.184 103.651 539.722 104.524 540.445 105.037C541.185 105.562 542.112 105.621 543.052 105.199C544.396 104.595 545.696 103.187 546.843 100.957C549.335 96.1115 549.188 92.0286 548.354 88.9866Z"
      fill="#262626"
    />
    <path
      fill-rule="evenodd"
      clip-rule="evenodd"
      d="M561.214 104.983L561.954 83.5034C561.986 82.5754 562.653 81.7914 563.564 81.6104C564.474 81.4294 565.39 81.8994 565.774 82.7444C568.398 88.5174 570.247 91.8774 571.599 93.7734C571.858 94.1354 572.152 94.4734 572.403 94.7404C573.489 91.9374 575.628 85.5864 577.366 82.9684C577.796 82.3224 578.233 81.8464 578.623 81.5504L579.47 81.0894L580.269 80.9434L580.831 80.9944L581.369 81.1714L582.19 81.7614C582.548 82.1364 582.942 82.7824 583.204 83.8284C584.153 87.6254 584.231 94.0264 584.415 99.1304C584.52 102.053 584.562 104.491 585.031 105.428C585.524 106.415 585.124 107.617 584.136 108.111C583.149 108.605 581.947 108.204 581.453 107.217C580.989 106.288 580.669 104.265 580.524 101.674C580.283 97.3884 580.345 91.2914 579.731 86.9634C579.469 87.5164 579.205 88.1194 578.944 88.7474C577.645 91.8614 576.417 95.5384 575.79 97.0314C575.626 97.4234 575.48 97.7104 575.376 97.8794L574.833 98.4984C574.666 98.6294 574.486 98.7564 574.291 98.8664L573.735 99.1164L573.152 99.2554L572.502 99.2744C571.624 99.2074 570.187 98.6794 568.344 96.0964C567.659 95.1374 566.85 93.8284 565.887 92.0564C565.736 94.9564 565.518 99.1644 565.21 105.155C565.21 105.166 565.209 105.177 565.209 105.188C565.153 106.285 564.223 107.131 563.126 107.084C562.029 107.037 561.175 106.114 561.213 105.017L561.214 104.983Z"
      fill="#262626"
    />
    <path
      fill-rule="evenodd"
      clip-rule="evenodd"
      d="M591.943 83.2366C592.272 82.7226 592.831 82.3676 593.479 82.3196C594.492 82.2436 595.401 82.9396 595.592 83.9376C595.908 85.5876 596.653 90.0496 597.497 93.4246C598.684 90.5686 599.713 87.8496 600.636 85.8686C601.298 84.4476 601.945 83.3606 602.53 82.7266C602.678 82.5666 602.826 82.4276 602.971 82.3076L603.534 81.9286L604.007 81.7245L604.562 81.6016L605.319 81.6226L606.027 81.8486L606.601 82.2076L607.041 82.6276C607.65 83.3176 608.344 84.7835 608.93 87.3265C609.754 90.8955 610.382 96.7126 610.502 100.328C610.565 102.247 610.407 103.658 610.211 104.141L609.865 104.736L609.267 105.25L608.744 105.464L608.142 105.529L607.476 105.392L606.848 105.019L606.326 104.398C606.186 104.169 606.009 103.796 605.826 103.246C605.548 102.413 605.85 101.525 606.513 101.021C606.513 100.835 606.51 100.646 606.504 100.46C606.391 97.0576 605.808 91.5836 605.033 88.2256C604.914 87.7116 604.766 87.2166 604.621 86.7836C604.339 87.3456 604.044 88.0196 603.722 88.7686C602.562 91.4696 601.234 95.0575 599.649 98.5035L599.271 99.1456L598.834 99.6036L598.262 99.9526L597.506 100.133L596.746 100.051L596.159 99.7956L595.688 99.4316L595.251 98.9076C595.184 98.8096 595.115 98.6955 595.046 98.5685C594.907 102.002 594.886 102.925 594.886 105.054C594.886 105.065 594.886 105.076 594.886 105.087C594.886 106.185 594 107.078 592.902 107.087C591.804 107.095 590.904 106.217 590.886 105.119V105.087L590.565 85.1706C590.55 84.2726 591.131 83.5026 591.943 83.2366Z"
      fill="#262626"
    />
    <path
      fill-rule="evenodd"
      clip-rule="evenodd"
      d="M619.938 105.8C621.403 105.5 622.509 104.577 623.381 103.339C624.474 101.789 625.206 99.7734 625.722 97.6334C627.412 90.6314 626.743 82.3284 626.743 82.2934C626.767 81.1894 627.682 80.3124 628.785 80.3364C629.889 80.3594 630.766 81.2744 630.742 82.3784C630.741 82.4224 631.61 94.4535 628.437 102.295C626.844 106.234 624.243 109.141 620.417 109.779L619.438 109.818L618.471 109.591L617.63 109.125C617.397 108.953 617.177 108.749 616.971 108.512C616.158 107.573 615.549 105.92 615.245 103.818C614.642 99.6454 615.026 93.4254 615.121 89.3564C615.14 88.5614 615.115 87.7084 615.09 87.1074C615.085 87.1034 615.081 87.0984 615.076 87.0944C614.248 86.3644 614.168 85.0994 614.898 84.2714L615.631 83.6754L616.168 83.4664L616.632 83.4034L617.161 83.4524L617.657 83.6274L618.342 84.1564C618.644 84.5014 619.053 85.4314 619.117 86.8884C619.276 90.4764 618.346 99.4324 619.376 104.218C619.479 104.697 619.601 105.125 619.758 105.481C619.802 105.581 619.88 105.709 619.938 105.8Z"
      fill="#262626"
    />
    <path
      fill-rule="evenodd"
      clip-rule="evenodd"
      d="M656.677 105.035C656.687 104.996 656.697 104.958 656.707 104.922C657.187 102.65 656.617 99.0862 655.807 95.5162C654.507 89.7832 652.457 84.0511 652.087 83.0091C651.717 81.9691 652.257 80.8242 653.297 80.4532C654.337 80.0812 655.477 80.6241 655.847 81.6631C656.297 82.9271 659.117 90.8291 660.317 97.6231C660.867 100.769 661.057 103.697 660.617 105.746C660.167 107.911 659.067 108.843 657.967 109.158L656.867 109.28C656.427 109.257 655.947 109.149 655.447 108.938C654.617 108.586 653.637 107.892 652.617 106.903C649.607 103.999 645.817 98.2661 643.017 93.7481C642.997 98.1461 642.507 99.9321 641.867 107.241C641.767 108.312 640.847 109.116 639.767 109.062C638.697 109.008 637.857 108.115 637.867 107.04C638.047 92.6471 637.867 87.5072 638.167 86.0862L638.437 85.3072L638.967 84.6131L639.487 84.2652L640.117 84.0741L640.597 84.0592L641.147 84.1722L641.677 84.4222L642.127 84.7452L642.487 85.1202C642.537 85.1882 642.637 85.3491 642.787 85.5971C643.887 87.4091 648.827 96.1371 653.187 101.563C654.097 102.688 654.967 103.665 655.777 104.381C656.047 104.621 656.407 104.862 656.677 105.035Z"
      fill="#262626"
    />
    <path
      fill-rule="evenodd"
      clip-rule="evenodd"
      d="M668.537 90.763C668.667 89.667 669.657 88.8829 670.757 89.0119C671.857 89.1419 672.637 90.138 672.507 91.234C672.037 95.196 672.637 97.193 673.077 99.167C673.617 101.552 673.987 103.908 672.707 108.58C672.417 109.645 671.317 110.274 670.257 109.984C669.187 109.693 668.557 108.593 668.857 107.528C670.087 102.987 669.407 101.147 668.877 98.727C668.447 96.776 668.087 94.514 668.537 90.763Z"
      fill="#262626"
    />
    <path
      fill-rule="evenodd"
      clip-rule="evenodd"
      d="M672.157 85.0324C671.967 85.0334 671.467 85.0074 670.387 84.7914C669.307 84.5744 668.607 83.5204 668.817 82.4374C669.037 81.3554 670.087 80.6524 671.177 80.8694C672.717 81.1774 672.667 81.0724 672.797 81.1074C673.857 81.4024 674.487 82.5054 674.187 83.5694C673.937 84.4924 673.067 85.0834 672.157 85.0324Z"
      fill="#262626"
    />
    <path
      fill-rule="evenodd"
      clip-rule="evenodd"
      d="M696.827 80.8586C697.917 81.0396 698.657 82.0716 698.477 83.1596C698.287 84.2486 697.257 84.9856 696.167 84.8036C693.347 84.3336 690.697 86.5916 688.487 89.5066C686.217 92.4926 684.497 96.3096 683.787 99.6506C683.377 101.596 683.277 103.357 683.767 104.592C684.657 106.804 685.657 107.972 686.897 108.262C688.137 108.551 689.437 107.989 690.677 107.239C693.837 105.326 696.517 101.87 696.907 101.382C697.587 100.513 698.837 100.359 699.707 101.04C700.577 101.72 700.737 102.978 700.057 103.847C699.607 104.417 696.447 108.426 692.747 110.661C690.557 111.986 688.187 112.669 685.987 112.158C683.797 111.647 681.617 109.974 680.057 106.078C679.327 104.263 679.267 101.679 679.877 98.8216C680.697 94.9586 682.677 90.5426 685.297 87.0906C688.507 82.8506 692.717 80.1736 696.827 80.8586Z"
      fill="#262626"
    />
    <path
      fill-rule="evenodd"
      clip-rule="evenodd"
      d="M721.717 101.614C722.287 101.934 722.687 102.525 722.727 103.224C722.957 106.665 723.027 108.266 722.987 108.588L722.887 109.021L722.687 109.456L722.097 110.068L721.307 110.384L720.417 110.33L719.957 110.13L719.557 109.818L719.167 109.279L718.957 108.657C718.547 106.945 716.997 95.1996 714.327 90.7936C713.977 90.2196 713.647 89.7676 713.307 89.4336C713.077 89.2066 712.907 89.0226 712.687 89.0066C712.457 88.9896 712.287 89.2086 712.077 89.4166C711.647 89.8386 711.247 90.4186 710.867 91.0996C710.857 91.2546 710.827 91.4116 710.777 91.5666L705.587 108.877C705.277 109.892 704.237 110.494 703.207 110.248C702.177 110.002 701.517 108.994 701.707 107.951C701.857 107.07 703.187 99.6626 705.337 93.7226C706.337 90.9676 707.537 88.5246 708.827 87.0346C710.217 85.4496 711.787 84.7996 713.357 85.0626C714.697 85.2876 716.267 86.2846 717.747 88.7176C719.367 91.3806 720.787 97.1296 721.717 101.614Z"
      fill="#262626"
    />
    <path
      fill-rule="evenodd"
      clip-rule="evenodd"
      d="M706.037 104.688C704.997 105.052 703.857 104.502 703.497 103.46C703.127 102.418 703.677 101.276 704.727 100.912C705.997 100.467 705.937 100.385 720.537 95.0477C721.577 94.6687 722.727 95.2027 723.107 96.2397C723.487 97.2767 722.957 98.4257 721.917 98.8047C707.257 104.16 707.317 104.242 706.037 104.688Z"
      fill="#262626"
    />
    <path
      fill-rule="evenodd"
      clip-rule="evenodd"
      d="M729.207 88.0381C728.107 87.9381 727.297 86.9651 727.397 85.8651C727.497 84.7661 728.467 83.9551 729.567 84.0551C730.997 84.1851 741.567 85.2601 747.367 81.6301C748.307 81.0451 749.537 81.3301 750.127 82.2661C750.717 83.2021 750.427 84.4371 749.487 85.0221C742.867 89.1651 730.847 88.1871 729.207 88.0381Z"
      fill="#262626"
    />
    <path
      fill-rule="evenodd"
      clip-rule="evenodd"
      d="M738.977 103.813C738.697 102.032 737.957 96.6385 737.557 87.0575C737.507 85.9545 738.367 85.0215 739.467 84.9745C740.567 84.9275 741.507 85.7855 741.547 86.8885C742.057 98.9065 743.037 102.984 743.087 104.35L742.977 105.378L742.777 105.855L742.417 106.349L741.687 106.866L741.087 107.043L740.517 107.087C739.417 107.087 738.517 106.19 738.517 105.087C738.517 104.603 738.687 104.159 738.977 103.813Z"
      fill="#262626"
    />
    <path
      fill-rule="evenodd"
      clip-rule="evenodd"
      d="M760.847 85.3512C760.717 84.8792 760.757 84.3581 760.997 83.8881C761.507 82.9081 762.717 82.5252 763.697 83.0332C766.557 84.5202 768.697 85.3791 770.257 86.2921C771.577 87.0641 772.547 87.8932 773.267 88.9892C774.367 90.6352 774.917 92.9871 774.917 97.1731C774.917 98.5201 774.407 100.021 773.477 101.522C772.297 103.409 770.427 105.343 768.337 106.963C766.267 108.575 763.987 109.875 762.027 110.554C760.407 111.117 758.947 111.248 757.857 110.989C756.297 110.617 754.987 109.135 754.477 106.652C753.667 102.804 754.537 96.1342 756.467 91.3252C757.597 88.4842 759.137 86.3692 760.847 85.3512ZM766.887 89.0321C766.867 89.0621 766.837 89.0902 766.807 89.1192C766.057 89.9262 764.787 89.9702 763.987 89.2182C763.667 88.9172 763.397 88.7021 763.097 88.7281C762.757 88.7591 762.477 89.0292 762.177 89.3462C761.407 90.1532 760.747 91.3852 760.177 92.8122C758.757 96.3562 757.957 101.069 758.197 104.427C758.257 105.203 758.367 105.898 758.557 106.466C758.637 106.708 758.817 107.019 758.877 107.116C759.377 107.197 760.007 107.022 760.717 106.775C762.327 106.218 764.187 105.128 765.887 103.804C767.577 102.488 769.127 100.94 770.077 99.4071C770.567 98.6261 770.917 97.8741 770.917 97.1731C770.917 94.1381 770.727 92.3932 769.937 91.2002C769.407 90.3972 768.597 89.9091 767.507 89.3441C767.307 89.2411 767.097 89.1381 766.887 89.0321Z"
      fill="#262626"
    />
    <path
      fill-rule="evenodd"
      clip-rule="evenodd"
      d="M780.007 104.579C780.007 104.415 780.007 104.247 779.997 104.074C779.937 98.3698 778.687 88.7728 778.567 87.8828C778.427 86.7888 779.197 85.7848 780.297 85.6418C781.387 85.4998 782.397 86.2728 782.537 87.3668C782.647 88.2198 783.767 96.8638 783.977 102.776C784.037 104.685 783.997 106.328 783.837 107.402C783.717 108.133 783.517 108.685 783.317 109.045L782.987 109.507L782.647 109.826L781.797 110.238L780.967 110.295L780.267 110.107C779.757 109.882 778.897 109.161 778.047 107.466C777.557 106.478 777.957 105.276 778.947 104.783C779.287 104.612 779.647 104.548 780.007 104.579Z"
      fill="#262626"
    />
    <path
      fill-rule="evenodd"
      clip-rule="evenodd"
      d="M780.277 88.2829C779.177 88.3899 778.197 87.5859 778.097 86.4869C777.987 85.3879 778.787 84.4089 779.887 84.3019C786.297 83.6769 790.577 83.7759 793.257 84.3169C795.637 84.7949 797.007 85.6929 797.737 86.6429C799.127 88.4669 798.657 91.0639 796.477 93.6739C795.107 95.3059 793.077 97.0228 791.057 98.5508C792.057 98.7618 792.987 99.1149 793.997 99.5389C795.767 100.278 797.827 101.314 801.317 102.153C802.397 102.41 803.057 103.491 802.797 104.564C802.547 105.638 801.467 106.3 800.387 106.042C796.607 105.134 794.367 104.029 792.457 103.228C790.087 102.236 788.317 101.901 783.717 103.512C782.767 103.842 781.727 103.426 781.267 102.538C780.817 101.65 781.087 100.562 781.907 99.9879C782.927 99.2709 790.177 94.9659 793.407 91.1049C793.847 90.5819 794.207 90.0779 794.417 89.5939C794.507 89.3899 794.667 89.2188 794.547 89.0638C794.227 88.6428 793.527 88.4509 792.477 88.2379C790.017 87.7449 786.127 87.7129 780.277 88.2829Z"
      fill="#262626"
    />
  </svg>