<svg width="47" height="40" viewBox="0 0 47 40" fill="none" xmlns="http://www.w3.org/2000/svg"
    data-draw="true">
    <path
        d="M5.76299 15.1309C5.99399 16.9819 4.64599 31.9299 5.58699 35.6949C6.17199 38.0339 24.341 35.9169 35.253 37.0079C37.645 37.2469 37.305 36.3479 38.14 34.1199C39.715 29.9199 39.715 17.1389 39.715 15.6559"
        stroke="#262626" stroke-width="3.98" stroke-miterlimit="1.5" stroke-linecap="round"
        stroke-linejoin="round" />
    <path
        d="M2 18.0193C2.732 16.5543 21.93 0.650331 22.651 2.09233C22.944 2.67833 33.856 9.79633 38.578 13.7313C40.742 15.5343 40.8 15.4223 42.253 17.8443C42.646 18.4993 43.043 18.0213 44.878 19.8573"
        stroke="#262626" stroke-width="3.98" stroke-miterlimit="1.5" stroke-linecap="round"
        stroke-linejoin="round" />
    <path d="M16.937 19.9629C16.235 24.5929 16.416 35.0809 16.438 36.3959" stroke="#262626"
        stroke-width="3.98" stroke-miterlimit="1.5" stroke-linecap="round" stroke-linejoin="round" />
    <path
        d="M16.876 19.5071C18.084 20.4141 21.844 18.9431 23.001 19.4201C25.467 20.4351 25.509 20.1771 28.168 19.8481C28.072 26.1981 28.106 26.1371 28.077 26.6831C27.847 31.0451 27.989 30.9691 27.989 35.3461"
        stroke="#262626" stroke-width="3.98" stroke-miterlimit="1.5" stroke-linecap="round"
        stroke-linejoin="round" />
</svg>
    