
  <svg
    width="351"
    height="124"
    viewBox="0 0 351 124"
    fill="none"
    xmlns="http://www.w3.org/2000/svg"
  >
    <path
      d="M33.5205 19.806C166.915 12.592 212.045 21.9941 298.12 24.4554"
      stroke="#262626"
      stroke-width="4"
      stroke-miterlimit="1.5"
      stroke-linecap="round"
      stroke-linejoin="round"
    />
    <path
      d="M30.865 23.5293C33.4646 85.6401 31.5374 85.6445 31.7941 91.0401C160.578 88.7851 189.602 79.935 294.344 90.4146C309.691 91.9498 302.36 66.8239 303.058 58.4512C303.281 55.7824 304.102 45.9107 295.215 25.9072"
      stroke="#262626"
      stroke-width="4"
      stroke-miterlimit="1.5"
      stroke-linecap="round"
      stroke-linejoin="round"
    />
    <path
      d="M47.0187 94.2383C47.0889 98.8822 46.1741 105.165 49.4954 109.593"
      stroke="#262626"
      stroke-width="4"
      stroke-miterlimit="1.5"
      stroke-linecap="round"
      stroke-linejoin="round"
    />
    <path
      d="M301.51 48.832C300.545 49.0603 298.9 49.1272 300.153 49.1524C311.565 49.3906 311.349 49.5837 322.808 50.0248"
      stroke="#262626"
      stroke-width="4"
      stroke-miterlimit="1.5"
      stroke-linecap="round"
      stroke-linejoin="round"
    />
    <path
      d="M52.9802 114.823C92.1694 110.767 311.238 116.688 324.26 110.174"
      stroke="#262626"
      stroke-width="4"
      stroke-miterlimit="1.5"
      stroke-linecap="round"
      stroke-linejoin="round"
    />
    <path
      d="M323.39 54.3848C326.293 66.7288 323.872 67.8328 325.713 104.654"
      stroke="#262626"
      stroke-width="4"
      stroke-miterlimit="1.5"
      stroke-linecap="round"
      stroke-linejoin="round"
    />
    <path
      d="M59.0799 92.7402C56.2719 96.7115 53.465 100.683 50.657 104.654"
      stroke="#262626"
      stroke-width="4"
      stroke-miterlimit="1.5"
      stroke-linecap="round"
      stroke-linejoin="round"
    />
    <path
      d="M68.7665 91.8809C62.2192 94.1974 57.6398 103.661 55.8848 106.977"
      stroke="#262626"
      stroke-width="4"
      stroke-miterlimit="1.5"
      stroke-linecap="round"
      stroke-linejoin="round"
    />
    <path
      d="M74.184 93.6113C72.9983 95.1366 68.0842 101.457 58.7893 112.208"
      stroke="#262626"
      stroke-width="4"
      stroke-miterlimit="1.5"
      stroke-linecap="round"
      stroke-linejoin="round"
    />
    <path
      d="M86.3855 92.6191C77.4405 100.948 77.2387 100.577 70.698 111.046"
      stroke="#262626"
      stroke-width="4"
      stroke-miterlimit="1.5"
      stroke-linecap="round"
      stroke-linejoin="round"
    />
    <path
      d="M97.3344 91.8438C88.1382 102.438 88.5255 102.541 78.5396 112.208"
      stroke="#262626"
      stroke-width="4"
      stroke-miterlimit="1.5"
      stroke-linecap="round"
      stroke-linejoin="round"
    />
    <path
      d="M110.789 92.3125C108.962 93.2145 109.115 93.4362 92.1914 109.883"
      stroke="#262626"
      stroke-width="4"
      stroke-miterlimit="1.5"
      stroke-linecap="round"
      stroke-linejoin="round"
    />
    <path
      d="M123.432 91.6895C114.025 96.7603 102.959 111.931 101.485 113.951"
      stroke="#262626"
      stroke-width="4"
      stroke-miterlimit="1.5"
      stroke-linecap="round"
      stroke-linejoin="round"
    />
    <path
      d="M137.504 90.9609C126.088 99.7101 126.227 99.6728 116.298 110.173"
      stroke="#262626"
      stroke-width="4"
      stroke-miterlimit="1.5"
      stroke-linecap="round"
      stroke-linejoin="round"
    />
    <path
      d="M152.424 89.3438C151.221 91.5351 148.223 88.6173 130.531 111.628"
      stroke="#262626"
      stroke-width="4"
      stroke-miterlimit="1.5"
      stroke-linecap="round"
      stroke-linejoin="round"
    />
    <path
      d="M165.491 88.4512C154.083 97.107 153.325 96.3817 145.924 108.72"
      stroke="#262626"
      stroke-width="4"
      stroke-miterlimit="1.5"
      stroke-linecap="round"
      stroke-linejoin="round"
    />
    <path
      d="M176.942 90.1484C176.767 90.2373 176.904 90.1397 165.094 101.167C159.224 106.648 158.591 105.96 154.637 112.79"
      stroke="#262626"
      stroke-width="4"
      stroke-miterlimit="1.5"
      stroke-linecap="round"
      stroke-linejoin="round"
    />
    <path
      d="M192.091 88.3379C181.728 94.844 182.967 96.1115 170.032 107.559"
      stroke="#262626"
      stroke-width="4"
      stroke-miterlimit="1.5"
      stroke-linecap="round"
      stroke-linejoin="round"
    />
    <path
      d="M201.655 88.9609C184.869 103.716 184.345 103.038 182.23 107.269"
      stroke="#262626"
      stroke-width="4"
      stroke-miterlimit="1.5"
      stroke-linecap="round"
      stroke-linejoin="round"
    />
    <path
      d="M211.678 88.6152C199.178 102.686 199.595 102.855 193.849 110.174"
      stroke="#262626"
      stroke-width="4"
      stroke-miterlimit="1.5"
      stroke-linecap="round"
      stroke-linejoin="round"
    />
    <path
      d="M224.673 90.8848C223.026 92.1017 212.541 99.8447 205.758 108.139C204.337 109.877 206.215 108.089 208.371 107.849"
      stroke="#262626"
      stroke-width="4"
      stroke-miterlimit="1.5"
      stroke-linecap="round"
      stroke-linejoin="round"
    />
    <path
      d="M239.823 88.7676C235.961 90.4059 236.786 92.0267 219.117 108.721"
      stroke="#262626"
      stroke-width="4"
      stroke-miterlimit="1.5"
      stroke-linecap="round"
      stroke-linejoin="round"
    />
    <path
      d="M253.629 90.1855C251.967 91.7964 251.798 91.5572 231.898 109.301C231.315 109.821 230.489 110.595 230.736 111.336C230.932 111.924 231.993 109.585 232.188 110.174"
      stroke="#262626"
      stroke-width="4"
      stroke-miterlimit="1.5"
      stroke-linecap="round"
      stroke-linejoin="round"
    />
    <path
      d="M265.117 90.9609C254.313 100.681 254.109 100.157 243.806 110.464"
      stroke="#262626"
      stroke-width="4"
      stroke-miterlimit="1.5"
      stroke-linecap="round"
      stroke-linejoin="round"
    />
    <path
      d="M280.919 93.5391C279.138 95.2795 274.303 100.005 257.167 113.661"
      stroke="#262626"
      stroke-width="4"
      stroke-miterlimit="1.5"
      stroke-linecap="round"
      stroke-linejoin="round"
    />
    <path
      d="M302.623 91.0391C301.522 91.8379 299.801 91.3595 298.701 92.1584C297.034 93.3687 297.578 93.8702 279.24 109.013C275.116 112.418 275.027 111.963 270.528 115.114"
      stroke="#262626"
      stroke-width="4"
      stroke-miterlimit="1.5"
      stroke-linecap="round"
      stroke-linejoin="round"
    />
    <path
      d="M321.326 72.6309C320.856 72.5673 322.697 71.5907 322.227 71.527C319.409 71.1452 319.855 72.1646 310.319 81.4064"
      stroke="#262626"
      stroke-width="4"
      stroke-miterlimit="1.5"
      stroke-linecap="round"
      stroke-linejoin="round"
    />
    <path
      d="M312.804 52.2988C312.086 52.9528 312.051 52.4875 303.349 59.9045"
      stroke="#262626"
      stroke-width="4"
      stroke-miterlimit="1.5"
      stroke-linecap="round"
      stroke-linejoin="round"
    />
    <path
      d="M320.401 55.8809C318.672 56.446 317.312 56.8915 303.638 71.2371"
      stroke="#262626"
      stroke-width="4"
      stroke-miterlimit="1.5"
      stroke-linecap="round"
      stroke-linejoin="round"
    />
    <path
      d="M309.99 87.4562C309.518 87.0864 309.048 86.7166 308.576 86.3457"
      stroke="#262626"
      stroke-width="4"
      stroke-miterlimit="1.5"
      stroke-linecap="round"
      stroke-linejoin="round"
    />
    <path
      d="M325.994 81.0216C322.47 77.7592 315.342 90.2206 294.635 106.687"
      stroke="#262626"
      stroke-width="4"
      stroke-miterlimit="1.5"
      stroke-linecap="round"
      stroke-linejoin="round"
    />
    <path
      d="M321.829 96.0852C322.028 94.201 320.897 95.9733 305.672 109.302"
      stroke="#262626"
      stroke-width="4"
      stroke-miterlimit="1.5"
      stroke-linecap="round"
      stroke-linejoin="round"
    />
    <path
      d="M13.7616 79.808L5.40552 79.8047"
      stroke="#262626"
      stroke-width="4"
      stroke-miterlimit="1.5"
      stroke-linecap="round"
      stroke-linejoin="round"
    />
    <path
      d="M13.9995 97.8789C7.58609 100.019 7.93599 100.344 2.19385 104.077"
      stroke="#262626"
      stroke-width="4"
      stroke-miterlimit="1.5"
      stroke-linecap="round"
      stroke-linejoin="round"
    />
    <path
      d="M25.1297 104.266C20.1005 109.914 15.0724 115.561 10.0432 121.209"
      stroke="#262626"
      stroke-width="4"
      stroke-miterlimit="1.5"
      stroke-linecap="round"
      stroke-linejoin="round"
    />
    <path
      d="M320.791 11.3461C324.03 6.0393 324.013 6.31365 328.816 2.19531"
      stroke="#262626"
      stroke-width="4"
      stroke-miterlimit="1.5"
      stroke-linecap="round"
      stroke-linejoin="round"
    />
    <path
      d="M329.21 18.4761C334.418 14.4159 334.227 14.9898 339.653 12.0039"
      stroke="#262626"
      stroke-width="4"
      stroke-miterlimit="1.5"
      stroke-linecap="round"
      stroke-linejoin="round"
    />
    <path
      d="M335.372 28.7361C333.042 37.3162 339.186 29.197 347.91 28.5254"
      stroke="#262626"
      stroke-width="4"
      stroke-miterlimit="1.5"
      stroke-linecap="round"
      stroke-linejoin="round"
    />
</svg>