  <svg
    width="1265"
    height="427"
    viewBox="0 0 1265 427"
    fill="none"
    xmlns="http://www.w3.org/2000/svg"
  >
    <path
      d="M24.2271 52.4192C23.659 48.458 21.0446 30.198 25.5523 2.54102C19.9225 22.6341 17.9542 22.124 10.1211 41.6911C8.14885 46.6168 3.08815 62.8444 2 65.6419C10.5412 61.3539 10.7882 61.872 19.1904 57.5521C25.5993 54.2523 25.5343 53.4234 25.8223 53.8778"
      stroke="#262626"
      stroke-width="4"
      stroke-miterlimit="1.5"
      stroke-linecap="round"
      stroke-linejoin="round"
    />
    <path
      d="M26.3644 2C29.3638 12.7519 34.7546 36.3838 35.8387 53.6634V52.4839C57.9258 48.148 72.1788 42.6884 63.3155 46.2192C62.4264 46.5779 53.8812 35.1963 50.4568 31.9843C39.3572 21.5751 38.9392 21.8062 31.3721 9.54785C26.7065 1.99201 25.4323 2.68545 25.1462 2"
      stroke="#262626"
      stroke-width="4"
      stroke-miterlimit="1.5"
      stroke-linecap="round"
      stroke-linejoin="round"
    />
    <path
      d="M26.0732 54.1113C32.5121 62.5598 34.7975 66.6565 35.4325 67.7963"
      stroke="#262626"
      stroke-width="4"
      stroke-miterlimit="1.5"
      stroke-linecap="round"
      stroke-linejoin="round"
    />
    <path
      d="M35.3654 51.8066C35.1974 52.2769 35.1134 60.1038 36.5156 67.4763"
      stroke="#262626"
      stroke-width="4"
      stroke-miterlimit="1.5"
      stroke-linecap="round"
      stroke-linejoin="round"
    />
    <path
      d="M37.83 89.1465C33.8764 98.7746 34.4615 97.7624 33.3083 106.952"
      stroke="#262626"
      stroke-width="4"
      stroke-miterlimit="1.5"
      stroke-linecap="round"
      stroke-linejoin="round"
    />
    <path
      d="M39.6282 141.123L40.1302 159.965"
      stroke="#262626"
      stroke-width="4"
      stroke-miterlimit="1.5"
      stroke-linecap="round"
      stroke-linejoin="round"
    />
    <path
      d="M46.655 182.248C47.8912 190.218 49.1274 198.197 50.3635 206.175"
      stroke="#262626"
      stroke-width="4"
      stroke-miterlimit="1.5"
      stroke-linecap="round"
      stroke-linejoin="round"
    />
    <path
      d="M80.7759 232.574C92.7645 242.76 91.9154 241.883 104.941 249.67"
      stroke="#262626"
      stroke-width="4"
      stroke-miterlimit="1.5"
      stroke-linecap="round"
      stroke-linejoin="round"
    />
    <path
      d="M148.119 269.197L183.396 282.285"
      stroke="#262626"
      stroke-width="4"
      stroke-miterlimit="1.5"
      stroke-linecap="round"
      stroke-linejoin="round"
    />
    <path
      d="M257.285 285.623C287.915 289.154 286.794 289.552 316.428 283.646"
      stroke="#262626"
      stroke-width="4"
      stroke-miterlimit="1.5"
      stroke-linecap="round"
      stroke-linejoin="round"
    />
    <path
      d="M382.078 275.143L418.761 268.695"
      stroke="#262626"
      stroke-width="4"
      stroke-miterlimit="1.5"
      stroke-linecap="round"
      stroke-linejoin="round"
    />
    <path
      d="M485.791 253.136C511.73 254.515 509.437 249.549 533.032 240.152"
      stroke="#262626"
      stroke-width="4"
      stroke-miterlimit="1.5"
      stroke-linecap="round"
      stroke-linejoin="round"
    />
    <path
      d="M608.335 232.406C624.618 230.851 623.581 230.963 640.482 229.281"
      stroke="#262626"
      stroke-width="4"
      stroke-miterlimit="1.5"
      stroke-linecap="round"
      stroke-linejoin="round"
    />
    <path
      d="M713.397 226.461C733.22 230.98 732.127 228.262 751.342 225.201"
      stroke="#262626"
      stroke-width="4"
      stroke-miterlimit="1.5"
      stroke-linecap="round"
      stroke-linejoin="round"
    />
    <path
      d="M833.411 222.123L863.908 222.482"
      stroke="#262626"
      stroke-width="4"
      stroke-miterlimit="1.5"
      stroke-linecap="round"
      stroke-linejoin="round"
    />
    <path
      d="M934.034 223.367C944.766 223.981 955.507 224.587 966.239 225.2"
      stroke="#262626"
      stroke-width="4"
      stroke-miterlimit="1.5"
      stroke-linecap="round"
      stroke-linejoin="round"
    />
    <path
      d="M1038.65 237.443C1043.5 239.253 1048.36 241.062 1053.22 242.871"
      stroke="#262626"
      stroke-width="4"
      stroke-miterlimit="1.5"
      stroke-linecap="round"
      stroke-linejoin="round"
    />
    <path
      d="M1107.84 261.641C1110.23 263.793 1109.62 273.014 1128.26 275.493"
      stroke="#262626"
      stroke-width="4"
      stroke-miterlimit="1.5"
      stroke-linecap="round"
      stroke-linejoin="round"
    />
    <path
      d="M1166.81 292.479L1176.02 299.955"
      stroke="#262626"
      stroke-width="4"
      stroke-miterlimit="1.5"
      stroke-linecap="round"
      stroke-linejoin="round"
    />
    <path
      d="M1202.05 320.262C1210.08 337.677 1208.04 337.31 1222.07 352.964"
      stroke="#262626"
      stroke-width="4"
      stroke-miterlimit="1.5"
      stroke-linecap="round"
      stroke-linejoin="round"
    />
    <path
      d="M1253.6 401.639C1255.18 414.375 1256.84 413.204 1263 425"
      stroke="#262626"
      stroke-width="4"
      stroke-miterlimit="1.5"
      stroke-linecap="round"
      stroke-linejoin="round"
    />
    <path
      d="M1196.64 24.1962C1202.32 2.68623 1203.47 0.726171 1203.89 2.50617C1205.1 7.62617 1199.78 23.5963 1199.18 25.3663C1203.36 15.5663 1203.42 15.7662 1208.15 6.31623C1203.9 15.8062 1205.36 16.4863 1198.51 24.4663"
      stroke="#262626"
      stroke-width="4"
      stroke-miterlimit="1.5"
      stroke-linecap="round"
      stroke-linejoin="round"
    />
    <path
      d="M1208.93 33.7556C1222.27 27.3356 1222.18 27.3457 1225.45 25.8457C1206.8 33.5757 1207 33.8157 1206.43 34.0857C1215.76 30.4157 1215.73 30.6256 1225.3 27.6456C1215.24 31.2556 1215.39 31.2257 1205.38 34.9757C1207.06 34.7657 1226.36 32.2556 1226.35 32.2856C1225.9 33.6156 1223.38 32.6757 1211.37 34.9757"
      stroke="#262626"
      stroke-width="4"
      stroke-miterlimit="1.5"
      stroke-linecap="round"
      stroke-linejoin="round"
    />
    <path
      d="M1178.48 12.125C1180.82 17.685 1181.2 19.575 1182.49 23.245C1180.99 19.195 1179.49 15.1551 1178 11.1151C1178.29 12.0251 1183.04 26.965 1183.16 21.895C1183.18 21.245 1183.66 1.47501 1184.96 14.035C1185.16 15.925 1184.41 19.445 1185.64 21.895"
      stroke="#262626"
      stroke-width="4"
      stroke-miterlimit="1.5"
      stroke-linecap="round"
      stroke-linejoin="round"
    />
  </svg>
