<svg width="623" height="52" viewBox="0 0 623 52" fill="none" xmlns="http://www.w3.org/2000/svg" class="w-full">
<path d="M21 28C30.1628 28 55.4595 27.4534 68.0745 26.057C73.8572 25.417 80.5662 24.8631 102.213 24.3108C151.655 23.0493 186.581 24.389 193.252 24.882C204.184 25.6899 213.042 26.3715 240.273 26.2287C265.368 26.0971 313.335 24.9443 350.319 24.1579C387.303 23.3716 411.845 22.7563 431.724 23.0952C451.603 23.4342 466.075 24.746 496.899 25.4858C527.722 26.2256 574.457 26.3537 599.562 26.3103" stroke="#C8C8C8" stroke-width="4" stroke-linecap="round"/>
<path d="M21 28C25.6332 28 38.4245 27.4534 44.8033 26.057C47.7274 25.417 51.1198 24.8631 62.0657 24.3108C87.0663 23.0493 104.726 24.389 108.1 24.882C113.628 25.6899 118.107 26.3715 131.876 26.2287C144.565 26.0971 168.82 24.9443 187.521 24.1579C206.222 23.3716 218.632 22.7563 228.683 23.0952C238.735 23.4342 246.053 24.746 261.639 25.4858C277.225 26.2256 301.306 24.2013 314 24.1579" stroke="#CEC54A" stroke-width="11" stroke-linecap="round"/>
<path d="M27.4798 10.042C34.1968 10.466 38.6442 13.5381 41.1651 21.2298C42.9292 26.6121 42.0287 34.7846 37.2036 38.3611C32.5548 41.8069 25.7879 44.3619 20.2773 42.2069C16.7225 40.8167 12.0774 37.6891 10.5535 34.1656C8.35139 29.074 8.41508 23.1501 11.2289 18.3654C14.7317 12.4092 20.7629 9.61789 27.4798 10.042Z" fill="#CEC54A"/>
<path d="M17.4255 20.6955C18.3932 20.6955 20.7157 20.9556 22.2904 22.412C22.6269 22.7232 22.7552 22.8575 22.8642 22.7684C22.9732 22.6794 23.0558 22.3726 23.0408 22.0218C23.0258 21.6709 22.9108 21.2853 22.8397 20.9615C22.7687 20.6378 22.745 20.3876 22.6907 20.1016" class="stroke-sm"/>
<path d="M27.9575 20.6393C27.9575 20.6554 27.9637 21.017 28.0225 21.6315C28.0484 21.9026 28.1741 22.0509 28.295 22.1213C29.3129 21.8695 31.5493 20.6543 33.285 19.5695C34.0294 19.1382 34.497 18.9489 34.9788 18.7539" class="stroke-sm"/>
<path d="M25.1514 32.8995C25.1455 32.8995 25.1444 32.6463 25.22 31.963C25.336 30.9156 25.8147 29.8056 26.2447 28.918C26.7468 27.8815 27.8929 27.7542 29.2432 27.572C30.5457 27.3962 31.5631 27.6365 32.2092 27.8899C32.5086 28.0268 32.75 28.1806 32.9693 28.3364C33.1887 28.4922 33.3787 28.6454 33.5745 28.8032" class="stroke-sm"/>
<path d="M28.8879 22.1211V23.9784" class="stroke-sm"/>
<path d="M21.7883 22.3945C21.7883 22.401 21.7883 22.4074 21.7907 22.786C21.793 23.1647 21.7977 23.9152 21.819 24.3762" class="stroke-sm"/>
<path d="M151.045 24.4853C151.494 17.6521 154.753 13.1277 162.91 10.5631C168.619 8.76844 177.287 9.68452 181.08 14.5932C184.735 19.3225 187.444 26.2066 185.159 31.8126C183.684 35.429 180.367 40.1544 176.63 41.7047C171.23 43.945 164.947 43.8802 159.872 41.0176C153.555 37.4542 150.595 31.3185 151.045 24.4853Z" fill="#CEC54A"/>
<path d="M163.857 31.787C164.178 31.5495 166.05 30.4795 168.295 29.8181C170.189 29.2602 172.107 29.7053 173.205 29.9847C173.933 30.1702 174.287 30.3999 174.469 30.547" class="stroke-sm"/>
<path d="M171.947 21.8594V23.8292" class="stroke-sm"/>
<path d="M164.724 22.1445C164.724 22.1514 164.724 22.1582 164.727 22.5598C164.729 22.9613 164.734 23.7574 164.755 24.2462" class="stroke-sm"/>
<path d="M309.52 43.6633C302.803 43.2212 298.356 40.0183 295.835 31.9994C294.071 26.388 294.971 17.8678 299.796 14.1391C304.445 10.5467 311.212 7.8829 316.723 10.1297C320.278 11.579 324.923 14.8397 326.446 18.5131C328.649 23.8213 328.585 29.9974 325.771 34.9857C322.268 41.1953 316.237 44.1054 309.52 43.6633Z" fill="#CEC54A"/>
<path d="M306.234 30.3643C306.553 30.4388 308.41 30.7748 310.639 30.9825C312.518 31.1576 314.422 31.0179 315.511 30.9302C316.234 30.8719 316.586 30.7998 316.766 30.7536" class="stroke-sm"/>
<path d="M314.186 21.9414V23.8777" class="stroke-sm"/>
<path d="M307.086 22.2227C307.086 22.2294 307.086 22.2361 307.089 22.6308C307.091 23.0256 307.096 23.8081 307.117 24.2886" class="stroke-sm"/>
<path d="M308.68 49.9377C299.114 49.308 292.78 44.7464 289.189 33.3255C286.677 25.3335 287.959 13.1986 294.831 7.88811C301.452 2.77162 311.09 -1.02226 318.938 2.17767C324.001 4.24187 330.617 8.8859 332.787 14.1177C335.924 21.6779 335.833 30.4741 331.825 37.5787C326.837 46.4226 318.247 50.5674 308.68 49.9377Z" fill="#CEC54A"/>
<path d="M304 31C304.454 31.1062 307.099 31.5847 310.273 31.8805C312.95 32.1299 315.662 31.9309 317.213 31.8059C318.243 31.723 318.743 31.6203 319 31.5545" class="stroke-sm"/>
<path d="M315.325 19V21.7578" class="stroke-sm"/>
<path d="M305.214 19.4023C305.214 19.4119 305.214 19.4215 305.217 19.9837C305.221 20.5459 305.227 21.6604 305.258 22.3447" class="stroke-sm"/>
<path d="M471.658 28.4798C471.216 35.1968 468.013 39.6442 459.995 42.1651C454.383 43.9292 445.863 43.0287 442.134 38.2036C438.542 33.5548 435.878 26.7879 438.125 21.2773C439.574 17.7225 442.835 13.0774 446.508 11.5535C451.816 9.35139 457.993 9.41508 462.981 12.2289C469.19 15.7317 472.101 21.7629 471.658 28.4798Z" fill="#D9D9D9"/>
<path d="M457.888 21.9375V23.8738" class="stroke-sm"/>
<path d="M450.788 22.2188C450.788 22.2255 450.788 22.2322 450.791 22.6269C450.793 23.0216 450.798 23.8042 450.819 24.2847" class="stroke-sm"/>
<path d="M449.234 28.5949C450.033 29.2299 451.672 30.4669 452.45 30.7464C453.031 30.9555 454.792 30.9381 456.97 30.9087C457.912 30.896 458.159 30.7064 458.379 30.5621C458.917 30.0414 459.301 29.5181 459.533 29.1138C459.648 28.8998 459.756 28.6679 459.897 28.2539" class="stroke-sm"/>
<path d="M610.845 15.9163C615.22 20.9082 616.088 26.2426 612.254 33.5919C609.572 38.7347 603.003 44.0479 597.038 43.2833C591.292 42.5467 584.716 39.6857 582.44 34.2765C580.972 30.7872 580.007 25.2747 581.505 21.6507C583.671 16.4138 588.022 12.1517 593.462 10.6355C600.235 8.74804 606.469 10.9244 610.845 15.9163Z" fill="#D9D9D9"/>
<path d="M600.841 22V23.9094" class="stroke-sm"/>
<path d="M593.84 22.2773C593.84 22.284 593.84 22.2906 593.842 22.6799C593.844 23.0691 593.849 23.8407 593.87 24.3146" class="stroke-sm"/>
<path d="M593.901 27.8781C593.907 27.8781 595.135 27.8698 597.709 27.7891C599.06 27.7468 600.494 27.5807 601.242 27.5472C601.991 27.5138 602.008 27.5872 601.999 27.6873C601.979 27.9141 601.905 28.1336 601.873 28.6504C601.801 29.8237 601.728 30.8571 601.555 31.3542C601.395 31.8149 601.109 32.1364 600.888 32.3384C600.291 32.8835 598.561 33.0405 597.722 33.0769C596.693 33.1216 595.291 31.8507 594.751 31.2867C594.314 30.5204 594.039 29.4482 593.738 28.448C593.691 28.2951 593.674 28.1972 593.716 28.1226" class="stroke-sm"/>
</svg>
