<svg width="625" height="53" viewBox="0 0 625 53" fill="none" xmlns="http://www.w3.org/2000/svg" class="w-full">
<path d="M21 31C30.1628 31 55.4595 30.4534 68.0745 29.057C73.8572 28.417 80.5662 27.8631 102.213 27.3108C151.655 26.0493 186.581 27.389 193.252 27.882C204.184 28.6899 213.042 29.3715 240.273 29.2287C265.368 29.0971 313.335 27.9443 350.319 27.1579C387.303 26.3716 411.845 25.7563 431.724 26.0952C451.603 26.4342 466.075 27.746 496.899 28.4858C527.722 29.2256 574.457 29.3537 599.562 29.3103" stroke="#C8C8C8" stroke-width="4" stroke-linecap="round"/>
<path d="M21 31C30.1557 31 55.4328 30.4534 68.038 29.057C73.8162 28.417 80.52 27.8631 102.15 27.3108C151.554 26.0493 186.453 27.389 193.118 27.882C204.042 28.6899 212.893 29.3715 240.103 29.2287C265.178 29.0971 313.108 27.9443 350.063 27.1579C387.019 26.3716 411.542 25.7563 431.405 26.0952C451.269 26.4342 465.73 27.746 496.53 28.4858C527.329 29.2256 574.915 27.2013 600 27.1579" stroke="#6AA828" stroke-width="11" stroke-linecap="round"/>
<path d="M27.4798 11.042C34.1968 11.466 38.6442 14.5381 41.1651 22.2298C42.9292 27.6121 42.0287 35.7846 37.2036 39.3611C32.5548 42.8069 25.7879 45.3619 20.2773 43.2069C16.7225 41.8167 12.0774 38.6891 10.5535 35.1656C8.35139 30.074 8.41508 24.1501 11.2289 19.3654C14.7317 13.4092 20.7629 10.6179 27.4798 11.042Z" fill="#6AA828"/>
<path d="M17.4255 21.6955C18.3932 21.6955 20.7157 21.9556 22.2904 23.412C22.6269 23.7232 22.7552 23.8575 22.8642 23.7684C22.9732 23.6794 23.0558 23.3726 23.0408 23.0218C23.0258 22.6709 22.9108 22.2853 22.8397 21.9615C22.7687 21.6378 22.745 21.3876 22.6907 21.1016" class="stroke-sm"/>
<path d="M27.9575 21.6393C27.9575 21.6554 27.9637 22.017 28.0225 22.6315C28.0484 22.9026 28.1741 23.0509 28.295 23.1213C29.3129 22.8695 31.5493 21.6543 33.285 20.5695C34.0294 20.1382 34.497 19.9489 34.9788 19.7539" class="stroke-sm"/>
<path d="M25.1514 33.8995C25.1455 33.8995 25.1444 33.6463 25.22 32.963C25.336 31.9156 25.8147 30.8056 26.2447 29.918C26.7468 28.8815 27.8929 28.7542 29.2432 28.572C30.5457 28.3962 31.5631 28.6365 32.2092 28.8899C32.5086 29.0268 32.75 29.1806 32.9693 29.3364C33.1887 29.4922 33.3787 29.6454 33.5745 29.8032" class="stroke-sm"/>
<path d="M28.8879 23.1211V24.9784" class="stroke-sm"/>
<path d="M21.7883 23.3945C21.7883 23.401 21.7883 23.4074 21.7907 23.786C21.793 24.1647 21.7977 24.9152 21.819 25.3762" class="stroke-sm"/>
<path d="M151.045 25.4853C151.494 18.6521 154.753 14.1277 162.91 11.5631C168.619 9.76844 177.287 10.6845 181.08 15.5932C184.735 20.3225 187.444 27.2066 185.159 32.8126C183.684 36.429 180.367 41.1544 176.63 42.7047C171.23 44.945 164.947 44.8802 159.872 42.0176C153.555 38.4542 150.595 32.3185 151.045 25.4853Z" fill="#6AA828"/>
<path d="M163.857 32.7831C164.178 32.5456 166.05 31.4756 168.295 30.8142C170.189 30.2563 172.107 30.7013 173.205 30.9808C173.933 31.1663 174.287 31.396 174.469 31.5431" class="stroke-sm"/>
<path d="M171.947 22.8555V24.8253" class="stroke-sm"/>
<path d="M164.724 23.1445C164.724 23.1514 164.724 23.1582 164.727 23.5598C164.729 23.9613 164.734 24.7574 164.755 25.2462" class="stroke-sm"/>
<path d="M309.52 44.6594C302.803 44.2173 298.356 41.0144 295.835 32.9955C294.071 27.3841 294.971 18.8639 299.796 15.1352C304.445 11.5428 311.212 8.87899 316.723 11.1257C320.278 12.5751 324.923 15.8358 326.446 19.5092C328.649 24.8174 328.585 30.9935 325.771 35.9818C322.268 42.1914 316.237 45.1015 309.52 44.6594Z" fill="#6AA828"/>
<path d="M306.234 31.3604C306.553 31.4349 308.41 31.7709 310.639 31.9786C312.518 32.1537 314.422 32.014 315.511 31.9263C316.234 31.868 316.586 31.7959 316.766 31.7497" class="stroke-sm"/>
<path d="M314.186 22.9375V24.8738" class="stroke-sm"/>
<path d="M307.086 23.2188C307.086 23.2255 307.086 23.2322 307.089 23.6269C307.091 24.0216 307.096 24.8042 307.117 25.2847" class="stroke-sm"/>
<path d="M471.658 29.4798C471.216 36.1968 468.013 40.6442 459.995 43.1651C454.383 44.9292 445.863 44.0287 442.134 39.2036C438.542 34.5548 435.878 27.7879 438.125 22.2773C439.574 18.7225 442.835 14.0774 446.508 12.5535C451.816 10.3514 457.993 10.4151 462.981 13.2289C469.19 16.7317 472.101 22.7629 471.658 29.4798Z" fill="#6AA828"/>
<path d="M457.888 22.9375V24.8738" class="stroke-sm"/>
<path d="M450.788 23.2188C450.788 23.2255 450.788 23.2322 450.791 23.6269C450.793 24.0216 450.798 24.8042 450.819 25.2847" class="stroke-sm"/>
<path d="M449.234 29.5949C450.033 30.2299 451.672 31.4669 452.45 31.7464C453.031 31.9555 454.792 31.9381 456.97 31.9087C457.912 31.896 458.159 31.7064 458.379 31.5621C458.917 31.0414 459.301 30.5181 459.533 30.1138C459.648 29.8998 459.756 29.6679 459.897 29.2539" class="stroke-sm"/>
<path d="M610.845 16.9163C615.22 21.9082 616.088 27.2426 612.254 34.5919C609.572 39.7347 603.003 45.0479 597.038 44.2833C591.292 43.5467 584.716 40.6857 582.44 35.2765C580.972 31.7872 580.007 26.2747 581.505 22.6507C583.671 17.4138 588.022 13.1517 593.462 11.6355C600.235 9.74804 606.469 11.9244 610.845 16.9163Z" fill="#D9D9D9"/>
<path d="M600.841 23V24.9094" class="stroke-sm"/>
<path d="M593.84 23.2773C593.84 23.284 593.84 23.2906 593.842 23.6799C593.844 24.0691 593.849 24.8407 593.87 25.3146" class="stroke-sm"/>
<path d="M593.901 28.8781C593.907 28.8781 595.135 28.8698 597.709 28.7891C599.06 28.7468 600.494 28.5807 601.242 28.5472C601.991 28.5138 602.008 28.5872 601.999 28.6873C601.979 28.9141 601.905 29.1336 601.873 29.6504C601.801 30.8237 601.728 31.8571 601.555 32.3542C601.395 32.8149 601.109 33.1364 600.888 33.3384C600.291 33.8835 598.561 34.0405 597.722 34.0769C596.693 34.1216 595.291 32.8507 594.751 32.2867C594.314 31.5204 594.039 30.4482 593.738 29.448C593.691 29.2951 593.674 29.1972 593.716 29.1226" class="stroke-sm"/>
<path d="M618.774 10.2135C625.093 17.4234 626.347 25.1278 620.81 35.7424C616.935 43.1703 607.447 50.844 598.833 49.7398C590.533 48.676 581.036 44.5437 577.749 36.7313C575.628 31.6917 574.234 23.7299 576.399 18.4958C579.527 10.9321 585.811 4.77638 593.669 2.58651C603.45 -0.139507 612.455 3.00374 618.774 10.2135Z" fill="#6AA828"/>
<path d="M604.325 19V21.7578" class="stroke-sm"/>
<path d="M594.214 19.4023C594.214 19.4119 594.214 19.4215 594.217 19.9837C594.221 20.5459 594.227 21.6604 594.258 22.3447" class="stroke-sm"/>
<path d="M594.302 27.4897C594.31 27.4897 596.084 27.4777 599.802 27.3612C601.753 27.3 603.824 27.0601 604.905 27.0118C605.986 26.9635 606.011 27.0695 605.998 27.2141C605.969 27.5416 605.862 27.8587 605.816 28.6051C605.712 30.2997 605.606 31.7922 605.356 32.5102C605.125 33.1756 604.712 33.6399 604.392 33.9318C603.531 34.7189 601.033 34.9457 599.821 34.9983C598.334 35.0629 596.309 33.2273 595.529 32.4127C594.898 31.3059 594.501 29.7574 594.067 28.3128C593.998 28.092 593.974 27.9506 594.035 27.8428" class="stroke-sm"/>
</svg>
