<svg width="623" height="55" viewBox="0 0 623 55" fill="none" xmlns="http://www.w3.org/2000/svg" class="w-full">
<path d="M21 31C30.1628 31 55.4595 30.4534 68.0745 29.057C73.8572 28.417 80.5662 27.8631 102.213 27.3108C151.655 26.0493 186.581 27.389 193.252 27.882C204.184 28.6899 213.042 29.3715 240.273 29.2287C265.368 29.0971 313.335 27.9443 350.319 27.1579C387.303 26.3716 411.845 25.7563 431.724 26.0952C451.603 26.4342 466.075 27.746 496.899 28.4858C527.722 29.2256 574.457 29.3537 599.562 29.3103" stroke="#C8C8C8" stroke-width="4" stroke-linecap="round"/>
<path d="M21 31C27.847 31 46.7502 30.4534 56.177 29.057C60.4981 28.417 65.5115 27.8631 81.6875 27.3108C118.634 26.0493 144.732 27.389 149.717 27.882C157.886 28.6899 164.506 29.3715 184.854 29.2287C203.607 29.0971 239.45 27.9443 267.087 27.1579C294.724 26.3716 313.063 25.7563 327.918 26.0952C342.773 26.4342 353.588 27.746 376.621 28.4858C399.654 29.2256 435.24 27.2013 454 27.1579" stroke="#A5BE51" stroke-width="11" stroke-linecap="round"/>
<path d="M27.4798 13.042C34.1968 13.466 38.6442 16.5381 41.1651 24.2298C42.9292 29.6121 42.0287 37.7846 37.2036 41.3611C32.5548 44.8069 25.7879 47.3619 20.2773 45.2069C16.7225 43.8167 12.0774 40.6891 10.5535 37.1656C8.35139 32.074 8.41508 26.1501 11.2289 21.3654C14.7317 15.4092 20.7629 12.6179 27.4798 13.042Z" fill="#A5BE51"/>
<path d="M17.4255 23.6955C18.3932 23.6955 20.7157 23.9556 22.2904 25.412C22.6269 25.7232 22.7552 25.8575 22.8642 25.7684C22.9732 25.6794 23.0558 25.3726 23.0408 25.0218C23.0258 24.6709 22.9108 24.2853 22.8397 23.9615C22.7687 23.6378 22.745 23.3876 22.6907 23.1016" stroke="black" stroke-width="2" stroke-linecap="round"/>
<path d="M27.9575 23.6393C27.9575 23.6554 27.9637 24.017 28.0225 24.6315C28.0484 24.9026 28.1741 25.0509 28.295 25.1213C29.3129 24.8695 31.5493 23.6543 33.285 22.5695C34.0294 22.1382 34.497 21.9489 34.9788 21.7539" stroke="black" stroke-width="2" stroke-linecap="round"/>
<path d="M25.1514 35.8995C25.1455 35.8995 25.1444 35.6463 25.22 34.963C25.336 33.9156 25.8147 32.8056 26.2447 31.918C26.7468 30.8815 27.8929 30.7542 29.2432 30.572C30.5457 30.3962 31.5631 30.6365 32.2092 30.8899C32.5086 31.0268 32.75 31.1806 32.9693 31.3364C33.1887 31.4922 33.3787 31.6454 33.5745 31.8032" stroke="black" stroke-width="2" stroke-linecap="round"/>
<path d="M28.8879 25.1211V26.9784" stroke="black" stroke-width="2" stroke-linecap="round"/>
<path d="M21.7883 25.3945C21.7883 25.401 21.7883 25.4074 21.7907 25.786C21.793 26.1647 21.7977 26.9152 21.819 27.3762" stroke="black" stroke-width="2" stroke-linecap="round"/>
<path d="M151.045 27.4853C151.494 20.6521 154.753 16.1277 162.91 13.5631C168.619 11.7684 177.287 12.6845 181.08 17.5932C184.735 22.3225 187.444 29.2066 185.159 34.8126C183.684 38.429 180.367 43.1544 176.63 44.7047C171.23 46.945 164.947 46.8802 159.872 44.0176C153.555 40.4542 150.595 34.3185 151.045 27.4853Z" fill="#A5BE51"/>
<path d="M163.857 34.7831C164.178 34.5456 166.05 33.4756 168.295 32.8142C170.189 32.2563 172.107 32.7013 173.205 32.9808C173.933 33.1663 174.287 33.396 174.469 33.5431" stroke="black" stroke-width="2" stroke-linecap="round"/>
<path d="M171.947 24.8555V26.8253" stroke="black" stroke-width="2" stroke-linecap="round"/>
<path d="M164.724 25.1445C164.724 25.1514 164.724 25.1582 164.727 25.5598C164.729 25.9613 164.734 26.7574 164.755 27.2462" stroke="black" stroke-width="2" stroke-linecap="round"/>
<path d="M309.52 46.6594C302.803 46.2173 298.356 43.0144 295.835 34.9955C294.071 29.3841 294.971 20.8639 299.796 17.1352C304.445 13.5428 311.212 10.879 316.723 13.1257C320.278 14.5751 324.923 17.8358 326.446 21.5092C328.649 26.8174 328.585 32.9935 325.771 37.9818C322.268 44.1914 316.237 47.1015 309.52 46.6594Z" fill="#A5BE51"/>
<path d="M306.234 33.3604C306.553 33.4349 308.41 33.7709 310.639 33.9786C312.518 34.1537 314.422 34.014 315.511 33.9263C316.234 33.868 316.586 33.7959 316.766 33.7497" stroke="black" stroke-width="2" stroke-linecap="round"/>
<path d="M314.186 24.9375V26.8738" stroke="black" stroke-width="2" stroke-linecap="round"/>
<path d="M307.086 25.2188C307.086 25.2255 307.086 25.2322 307.089 25.6269C307.091 26.0216 307.096 26.8042 307.117 27.2847" stroke="black" stroke-width="2" stroke-linecap="round"/>
<path d="M471.658 31.4798C471.216 38.1968 468.013 42.6442 459.995 45.1651C454.383 46.9292 445.863 46.0287 442.134 41.2036C438.542 36.5548 435.878 29.7879 438.125 24.2773C439.574 20.7225 442.835 16.0774 446.508 14.5535C451.816 12.3514 457.993 12.4151 462.981 15.2289C469.19 18.7317 472.101 24.7629 471.658 31.4798Z" fill="#D9D9D9"/>
<path d="M457.888 24.9375V26.8738" stroke="black" stroke-width="2" stroke-linecap="round"/>
<path d="M450.788 25.2188C450.788 25.2255 450.788 25.2322 450.791 25.6269C450.793 26.0216 450.798 26.8042 450.819 27.2847" stroke="black" stroke-width="2" stroke-linecap="round"/>
<path d="M449.234 31.5949C450.033 32.2299 451.672 33.4669 452.45 33.7464C453.031 33.9555 454.792 33.9381 456.97 33.9087C457.912 33.896 458.159 33.7064 458.379 33.5621C458.917 33.0414 459.301 32.5181 459.533 32.1138C459.648 31.8998 459.756 31.6679 459.897 31.2539" stroke="black" stroke-width="2" stroke-linecap="round"/>
<path d="M610.845 18.9163C615.22 23.9082 616.088 29.2426 612.254 36.5919C609.572 41.7347 603.003 47.0479 597.038 46.2833C591.292 45.5467 584.716 42.6857 582.44 37.2765C580.972 33.7872 580.007 28.2747 581.505 24.6507C583.671 19.4138 588.022 15.1517 593.462 13.6355C600.235 11.748 606.469 13.9244 610.845 18.9163Z" fill="#D9D9D9"/>
<path d="M600.841 25V26.9094" stroke="black" stroke-width="2" stroke-linecap="round"/>
<path d="M593.84 25.2773C593.84 25.284 593.84 25.2906 593.842 25.6799C593.844 26.0691 593.849 26.8407 593.87 27.3146" stroke="black" stroke-width="2" stroke-linecap="round"/>
<path d="M593.901 30.8781C593.907 30.8781 595.135 30.8698 597.709 30.7891C599.06 30.7468 600.494 30.5807 601.242 30.5472C601.991 30.5138 602.008 30.5872 601.999 30.6873C601.979 30.9141 601.905 31.1336 601.873 31.6504C601.801 32.8237 601.728 33.8571 601.555 34.3542C601.395 34.8149 601.109 35.1364 600.888 35.3384C600.291 35.8835 598.561 36.0405 597.722 36.0769C596.693 36.1216 595.291 34.8507 594.751 34.2867C594.314 33.5204 594.039 32.4482 593.738 31.448C593.691 31.2951 593.674 31.1972 593.716 31.1226" stroke="black" stroke-width="2" stroke-linecap="round"/>
<path d="M477.938 28.3198C477.308 37.8863 472.746 44.2205 461.326 47.8109C453.333 50.3234 441.199 49.0409 435.888 42.1688C430.772 35.5478 426.978 25.91 430.178 18.0616C432.242 12.9987 436.886 6.38303 442.118 4.21262C449.678 1.07622 458.474 1.16693 465.579 5.17452C474.423 10.1633 478.567 18.7533 477.938 28.3198Z" fill="#A5BE51"/>
<path d="M458.325 19V21.7578" stroke="black" stroke-width="2" stroke-linecap="round"/>
<path d="M448.214 19.4023C448.214 19.4119 448.214 19.4215 448.217 19.9837C448.221 20.5459 448.227 21.6604 448.258 22.3447" stroke="black" stroke-width="2" stroke-linecap="round"/>
<path d="M446 28.4857C447.138 29.39 449.473 31.1519 450.58 31.55C451.408 31.8477 453.916 31.823 457.019 31.7811C458.36 31.7629 458.712 31.493 459.025 31.2875C459.791 30.5458 460.338 29.8005 460.669 29.2247C460.832 28.9199 460.985 28.5896 461.187 28" stroke="black" stroke-width="2" stroke-linecap="round"/>
</svg>
