<svg width="98" height="160" viewBox="0 0 98 160" fill="none" xmlns="http://www.w3.org/2000/svg">
<path d="M33.1276 32.6543C20.4236 36.9743 16.4956 56.0544 20.9786 65.0244C36.4006 95.8644 85.6586 92.9443 84.7076 50.1743C84.6266 46.4943 81.3596 43.1843 77.2186 37.9543C75.8506 36.2243 75.9166 35.6344 73.8016 36.2444" stroke="#262626" stroke-width="4" stroke-miterlimit="1.5" stroke-linecap="round" stroke-linejoin="round"/>
<path d="M21.8634 39.6351C15.9224 38.6851 16.3354 37.6051 13.3574 32.4351C0.83838 10.6851 23.6124 0.345158 30.7024 2.21516C41.5764 5.07516 38.2184 25.3651 40.9514 14.4351C42.3714 8.75513 55.2994 5.66514 58.2964 6.94514C79.9044 16.1251 77.3764 34.3051 74.7214 35.1951" stroke="#262626" stroke-width="4" stroke-miterlimit="1.5" stroke-linecap="round" stroke-linejoin="round"/>
<path d="M33.0935 32.8945C32.5845 36.0845 30.4005 38.4947 43.7115 45.8347C50.3135 49.4747 63.5055 34.3847 63.6835 34.2747" stroke="#262626" stroke-width="4" stroke-miterlimit="1.5" stroke-linecap="round" stroke-linejoin="round"/>
<path d="M43.0364 53.0254C42.3014 57.8654 41.0574 57.9054 42.7914 62.5254" stroke="#262626" stroke-width="4" stroke-miterlimit="1.5" stroke-linecap="round" stroke-linejoin="round"/>
<path d="M63.5346 53.1543C63.1586 56.4743 62.4556 64.6743 62.3696 65.6743" stroke="#262626" stroke-width="4" stroke-miterlimit="1.5" stroke-linecap="round" stroke-linejoin="round"/>
<path d="M47.6187 74.6157C49.8897 79.0257 51.3417 77.2559 55.1427 74.0859" stroke="#262626" stroke-width="4" stroke-miterlimit="1.5" stroke-linecap="round" stroke-linejoin="round"/>
<path d="M29.0005 92.6559C29.5715 93.4459 48.1475 106.906 48.4415 107.336C48.6735 107.666 50.8445 110.786 51.4635 111.406C53.1665 113.106 69.5745 93.2461 77.0865 89.5961C86.3595 85.0861 86.5505 91.3559 84.3135 101.416" stroke="#262626" stroke-width="4" stroke-miterlimit="1.5" stroke-linecap="round" stroke-linejoin="round"/>
<path d="M78.6636 102.464C84.5866 99.8142 85.3926 100.374 91.8036 102.204C98.4256 104.094 92.0186 114.184 91.1466 116.004" stroke="#262626" stroke-width="4" stroke-miterlimit="1.5" stroke-linecap="round" stroke-linejoin="round"/>
<path d="M70.0957 111.335C72.2997 109.645 90.7907 114.485 93.9057 130.065C94.1327 131.195 95.8687 146.545 95.7457 147.405" stroke="#262626" stroke-width="4" stroke-miterlimit="1.5" stroke-linecap="round" stroke-linejoin="round"/>
<path d="M25.7095 91.9551C19.9255 96.7051 19.8955 97.0752 19.2705 104.575" stroke="#262626" stroke-width="4" stroke-miterlimit="1.5" stroke-linecap="round" stroke-linejoin="round"/>
<path d="M31.5778 110.424C27.0848 110.614 29.4248 106.144 25.0528 105.364C6.84581 102.104 10.6188 112.924 10.3358 119.424" stroke="#262626" stroke-width="4" stroke-miterlimit="1.5" stroke-linecap="round" stroke-linejoin="round"/>
<path d="M28.8614 115.305C22.9024 119.805 18.0224 113.005 8.62744 127.435C1.31644 138.665 1.66345 145.055 2.32045 156.215" stroke="#262626" stroke-width="4" stroke-miterlimit="1.5" stroke-linecap="round" stroke-linejoin="round"/>
<path d="M6.27641 156.955C5.17241 157.545 5.2654 157.935 4.0284 157.525C-3.4616 155.025 49.8394 155.025 53.8284 155.025C79.9374 155.025 79.7744 152.235 95.8764 152.795" stroke="#262626" stroke-width="4" stroke-miterlimit="1.5" stroke-linecap="round" stroke-linejoin="round"/>
<path d="M46.5156 103.835C51.7476 102.895 51.6376 102.295 56.9706 102.705" stroke="#262626" stroke-width="4" stroke-miterlimit="1.5" stroke-linecap="round" stroke-linejoin="round"/>
<path d="M27.8986 117.035C27.6736 115.705 35.0646 116.355 43.7086 120.675" stroke="#262626" stroke-width="4" stroke-miterlimit="1.5" stroke-linecap="round" stroke-linejoin="round"/>
<path d="M69.6366 111.605C69.8326 110.795 68.0316 112.655 67.3386 113.035C63.2126 115.285 58.8756 121.685 58.2866 122.555" stroke="#262626" stroke-width="4" stroke-miterlimit="1.5" stroke-linecap="round" stroke-linejoin="round"/>
<path d="M28.0735 117.065C28.0485 101.845 29.6365 139.635 29.7185 141.595" stroke="#262626" stroke-width="4" stroke-miterlimit="1.5" stroke-linecap="round" stroke-linejoin="round"/>
<path d="M70.8647 107.746C69.5207 112.676 68.8167 121.696 67.5737 136.196" stroke="#262626" stroke-width="4" stroke-miterlimit="1.5" stroke-linecap="round" stroke-linejoin="round"/>
<path d="M67.8345 35.8845C69.6455 34.3945 68.8045 34.0146 69.4735 25.9746" stroke="#262626" stroke-width="4" stroke-miterlimit="1.5" stroke-linecap="round" stroke-linejoin="round"/>
<path d="M71.3906 35.1648L72.3426 32.4648" stroke="#262626" stroke-width="4" stroke-miterlimit="1.5" stroke-linecap="round" stroke-linejoin="round"/>
</svg>
