<svg width="587" height="51" viewBox="0 0 587 51" fill="none" xmlns="http://www.w3.org/2000/svg" class="w-full">
<path d="M6 29C15.1628 29 40.4595 28.4534 53.0745 27.057C58.8572 26.417 65.5662 25.8631 87.2132 25.3108C136.655 24.0493 171.581 25.389 178.252 25.882C189.184 26.6899 198.042 27.3715 225.273 27.2287C250.368 27.0971 298.335 25.9443 335.319 25.1579C372.303 24.3716 396.845 23.7563 416.724 24.0952C436.603 24.4342 451.075 25.746 481.899 26.4858C512.722 27.2256 559.457 27.3537 584.562 27.3103" stroke="#C8C8C8" stroke-width="4" stroke-linecap="round"/>
<path d="M6 29.0008C35.0682 29.0008 64.3703 27.6135 93.6411 27.2294C103.671 27.0978 122.843 25.945 137.625 25.1587C157.654 24.0933 176.31 25.2914 196.212 26.4866C208.532 27.2264 227.566 25.202 237.6 25.1587" stroke="#6AA828" stroke-width="11" stroke-linecap="round"/>
<path d="M262.896 28.2022C262.293 37.361 257.926 43.4253 246.992 46.8627C239.34 49.2682 227.723 48.0403 222.638 41.461C217.74 35.1221 214.108 25.8951 217.171 18.3811C219.148 13.5339 223.594 7.20017 228.602 5.12224C235.841 2.11949 244.262 2.20633 251.064 6.04316C259.531 10.8193 263.499 19.0433 262.896 28.2022Z" fill="#6AA828"/>
<path d="M244.12 19.2773V21.9176" class="stroke-sm"/>
<path d="M234.439 19.6602C234.439 19.6693 234.439 19.6785 234.442 20.2167C234.445 20.7549 234.452 21.8219 234.481 22.4772" class="stroke-sm"/>
<path d="M232.319 28.3556C233.408 29.2214 235.645 30.9082 236.704 31.2893C237.496 31.5744 239.898 31.5507 242.869 31.5106C244.152 31.4932 244.489 31.2348 244.789 31.038C245.522 30.3279 246.046 29.6144 246.363 29.0631C246.519 28.7714 246.666 28.4551 246.859 27.8906" class="stroke-sm"/>
</svg>
