<svg width="587" height="51" viewBox="0 0 587 51" fill="none" xmlns="http://www.w3.org/2000/svg" class="w-full">
<path d="M6 29C15.1628 29 40.4595 28.4534 53.0745 27.057C58.8572 26.417 65.5662 25.8631 87.2132 25.3108C136.655 24.0493 171.581 25.389 178.252 25.882C189.184 26.6899 198.042 27.3715 225.273 27.2287C250.368 27.0971 298.335 25.9443 335.319 25.1579C372.303 24.3716 396.845 23.7563 416.724 24.0952C436.603 24.4342 451.075 25.746 481.899 26.4858C512.722 27.2256 559.457 27.3537 584.562 27.3103" stroke="#C8C8C8" stroke-width="4" stroke-linecap="round"/>
<path d="M6 29C14.2401 29 36.9895 28.4534 48.3342 27.057C53.5346 26.417 59.568 25.8631 79.0352 25.3108C123.499 24.0493 154.907 25.389 160.906 25.882C170.738 26.6899 178.704 27.3715 203.192 27.2287C225.76 27.0971 268.897 25.9443 302.157 25.1579C335.417 24.3716 357.487 23.7563 375.365 24.0952C393.242 24.4342 406.257 25.746 433.977 26.4858C461.696 27.2256 504.523 25.2013 527.1 25.1579" stroke="#E4675E" stroke-width="11" stroke-linecap="round"/>
<path d="M526.56 0.0648508C536.94 0.720241 543.814 5.46805 547.71 17.3551C550.436 25.6733 549.044 38.3035 541.587 43.8307C534.403 49.1561 523.945 53.1048 515.428 49.7743C509.935 47.6258 502.756 42.7922 500.401 37.3469C496.998 29.4781 497.096 20.3228 501.445 12.9283C506.858 3.72339 516.179 -0.59054 526.56 0.0648508Z" fill="#E4675E"/>
<path d="M511.021 16.5311C512.517 16.5311 516.106 16.9331 518.54 19.1839C519.06 19.665 519.258 19.8724 519.426 19.7348C519.595 19.5972 519.723 19.1231 519.699 18.5809C519.676 18.0387 519.498 17.4427 519.389 16.9423C519.279 16.442 519.242 16.0553 519.158 15.6133" stroke="black" stroke-width="2" stroke-linecap="round"/>
<path d="M527.298 16.4451C527.298 16.4699 527.307 17.0288 527.398 17.9784C527.438 18.3973 527.633 18.6266 527.819 18.7353C529.392 18.3462 532.849 16.4683 535.531 14.7918C536.682 14.1252 537.404 13.8327 538.149 13.5312" stroke="black" stroke-width="2" stroke-linecap="round"/>
<path d="M522.961 35.389C522.952 35.389 522.95 34.9978 523.067 33.9418C523.247 32.323 523.986 30.6076 524.651 29.2358C525.427 27.6339 527.198 27.4373 529.285 27.1556C531.298 26.8839 532.87 27.2553 533.869 27.6469C534.332 27.8585 534.705 28.0962 535.044 28.337C535.383 28.5778 535.676 28.8145 535.979 29.0584" stroke="black" stroke-width="2" stroke-linecap="round"/>
<path d="M528.736 18.7344V21.6047" stroke="black" stroke-width="2" stroke-linecap="round"/>
<path d="M517.764 19.1523C517.764 19.1623 517.764 19.1723 517.768 19.7574C517.771 20.3425 517.778 21.5025 517.811 22.2148" stroke="black" stroke-width="2" stroke-linecap="round"/>
</svg>
