<svg width="76" height="76" viewBox="0 0 76 76" fill="none" xmlns="http://www.w3.org/2000/svg">
<path d="M26.258 15.5678C25.8378 15.8404 24.1793 13.6091 21.4944 16.8598C16.5457 22.8564 20.6351 27.4197 25.0786 26.4606C29.5551 25.4915 36.2444 17.9199 25.6968 15.9917" stroke="#262626" stroke-width="4" stroke-miterlimit="1.5" stroke-linecap="round" stroke-linejoin="round"/>
<path d="M25.0916 28.3297C25.0846 28.0874 25.1066 28.1175 25.0786 28.3395C24.5734 32.418 25.1546 32.5594 25.2026 33.4478" stroke="#262626" stroke-width="4" stroke-miterlimit="1.5" stroke-linecap="round" stroke-linejoin="round"/>
<path d="M3.57531 72.2331C3.29121 67.9325 -1.16332 31.8624 30.0223 35.5673C30.4044 35.6178 40.938 39.0098 42.7516 48.1662C44.8003 58.5037 43.5829 58.5539 44.7283 70.113C44.8314 71.1528 44.7964 71.0922 44.7283 72.1118" stroke="#262626" stroke-width="4" stroke-miterlimit="1.5" stroke-linecap="round" stroke-linejoin="round"/>
<path d="M2.86401 73.4654C23.5351 72.6881 23.438 72.3145 44.1111 72.8596" stroke="#262626" stroke-width="4" stroke-miterlimit="1.5" stroke-linecap="round" stroke-linejoin="round"/>
<path d="M5.4879 63.2075C4.48056 62.5513 36.9676 62.3496 41.7622 62.6323" stroke="#262626" stroke-width="4" stroke-miterlimit="1.5" stroke-linecap="round" stroke-linejoin="round"/>
<path d="M15.6864 48.9121C14.385 51.1028 16.2906 52.1527 16.4277 50.9109C16.4437 50.7595 16.6968 48.468 15.5634 49.2858C15.0992 49.6189 15.3243 49.6594 15.1923 51.6582" stroke="#262626" stroke-width="4" stroke-miterlimit="1.5" stroke-linecap="round" stroke-linejoin="round"/>
<path d="M32.37 48.5392C31.0636 51.8404 33.8975 51.729 33.9766 51.2849C34.2827 49.5889 32.455 47.6506 32.7411 49.286C32.7712 49.4576 33.1783 51.7896 33.6064 51.2849C34.8108 49.8614 34.6568 49.4578 33.1113 48.418" stroke="#262626" stroke-width="4" stroke-miterlimit="1.5" stroke-linecap="round" stroke-linejoin="round"/>
<path d="M60.9809 3.05078C60.1076 4.46411 59.5884 11.4194 51.9658 15.5584C48.5887 17.3958 48.7967 17.6886 45.3556 19.425C39.8947 22.181 37.3798 24.0487 38.5943 31.4081C38.8784 33.1243 42.9778 36.4051 49.7121 32.7001C60.7838 26.6026 69.7859 28.975 72.4748 28.975" stroke="#262626" stroke-width="4" stroke-miterlimit="1.5" stroke-linecap="round" stroke-linejoin="round"/>
<path d="M61.8441 3.54418C61.8501 3.46342 61.8671 3.4939 61.9672 2.48438C61.457 12.6503 66.5227 22.7355 68.4204 24.0378C68.4634 24.0681 69.6258 25.481 73.234 28.136C70.4161 20.504 71.4554 17.2233 66.0315 8.37984C65.3263 7.22898 65.4033 7.12797 64.1779 6.55254C63.4627 6.2093 63.7718 5.88643 63.1075 5.47253" stroke="#262626" stroke-width="4" stroke-miterlimit="1.5" stroke-linecap="round" stroke-linejoin="round"/>
<path d="M51.4075 33.1643L51.0914 32.6699C52.3609 34.6183 53.3002 37.8687 58.8291 39.2215" stroke="#262626" stroke-width="4" stroke-miterlimit="1.5" stroke-linecap="round" stroke-linejoin="round"/>
<path d="M45.6816 20.6465C49.9721 26.6532 49.4539 27.4107 49.8801 29.8638" stroke="#262626" stroke-width="4" stroke-miterlimit="1.5" stroke-linecap="round" stroke-linejoin="round"/>
</svg>
