<svg width="77" height="84" viewBox="0 0 77 84" fill="none" xmlns="http://www.w3.org/2000/svg">
<path d="M2.68518 36.9952C3.0393 37.1366 3.77154 37.4395 7.4528 37.1165C9.57952 36.9247 11.9003 34.4413 12.2074 34.1081C13.928 38.7216 17.8844 36.9955 20.6073 35.7235C21.5176 35.2995 23.0211 32.7757 23.1351 33.8055C23.2062 34.4616 26.8374 37.9947 30.8898 36.763C33.7778 35.8949 34.9702 33.8556 35.1412 33.9869C37.9252 36.0867 41.0972 38.2066 45.9979 35.1477" stroke="#262626" stroke-width="4" stroke-miterlimit="1.5" stroke-linecap="round" stroke-linejoin="round"/>
<path d="M9.39146 30.4334C9.12137 30.0599 8.72823 34.2901 9.00333 35.2592" stroke="#262626" stroke-width="4" stroke-miterlimit="1.5" stroke-linecap="round" stroke-linejoin="round"/>
<path d="M9.33044 28.9601C9.53051 28.6674 23.1211 28.7988 26.8114 28.3647C28.1908 28.1931 37.7441 27.0622 44.1633 27.678C41.6604 33.1295 40.8842 32.6752 39.9669 33.291" stroke="#262626" stroke-width="4" stroke-miterlimit="1.5" stroke-linecap="round" stroke-linejoin="round"/>
<path d="M25.2279 2.97461C24.6677 4.32737 26.1742 26.0319 25.548 25.406" stroke="#262626" stroke-width="4" stroke-miterlimit="1.5" stroke-linecap="round" stroke-linejoin="round"/>
<path d="M24.9388 2.63086C19.859 8.72838 19.1208 15.8862 12.4565 22.4078C14.6033 22.0443 14.5922 22.5995 16.759 22.3269C22.655 21.6001 22.716 22.8617 24.2845 22.2762" stroke="#262626" stroke-width="4" stroke-miterlimit="1.5" stroke-linecap="round" stroke-linejoin="round"/>
<path d="M46.7783 54.5807C45.937 60.1937 47.2794 76.7903 47.3955 77.3758C47.8456 79.6473 52.5952 77.1335 53.3004 77.5676C55.006 78.5973 55.1001 78.7389 56.8627 77.8505C57.655 77.4467 57.68 77.5981 67.9205 77.2649C69.0179 57.6903 67.0412 57.8317 66.1419 53.1172C59.6066 53.9551 59.6787 54.0558 53.1134 54.389C48.1998 54.6312 48.0967 54.934 47.8636 54.5807" stroke="#262626" stroke-width="4" stroke-miterlimit="1.5" stroke-linecap="round" stroke-linejoin="round"/>
<path d="M47.6865 66.7546C52.9583 68.0973 57.3879 65.4425 67.2672 66.4924" stroke="#262626" stroke-width="4" stroke-miterlimit="1.5" stroke-linecap="round" stroke-linejoin="round"/>
<path d="M51.8169 72.2461L51.8009 71.8828" stroke="#262626" stroke-width="4" stroke-miterlimit="1.5" stroke-linecap="round" stroke-linejoin="round"/>
<path d="M62.7286 71.3886C62.7416 71.2775 62.7546 71.1563 62.7677 71.0352" stroke="#262626" stroke-width="4" stroke-miterlimit="1.5" stroke-linecap="round" stroke-linejoin="round"/>
<path d="M49.7642 79.6777L50.0202 81.2527" stroke="#262626" stroke-width="4" stroke-miterlimit="1.5" stroke-linecap="round" stroke-linejoin="round"/>
<path d="M64.7324 78.627C64.6083 79.3134 64.4852 79.9999 64.3612 80.6864" stroke="#262626" stroke-width="4" stroke-miterlimit="1.5" stroke-linecap="round" stroke-linejoin="round"/>
<path d="M73.3053 56.5703C75.344 58.9326 74.4717 59.2656 74.7658 62.5264" stroke="#262626" stroke-width="4" stroke-miterlimit="1.5" stroke-linecap="round" stroke-linejoin="round"/>
<path d="M39.8728 56.1152C38.4933 58.2251 39.2035 58.4171 39.4276 63.0912" stroke="#262626" stroke-width="4" stroke-miterlimit="1.5" stroke-linecap="round" stroke-linejoin="round"/>
<path d="M22.8781 42.5273C21.3406 47.3125 24.7348 54.6519 25.1809 55.6211C27.7538 61.1836 28.5531 60.5779 33.8038 63.7579" stroke="#262626" stroke-width="4" stroke-miterlimit="1.5" stroke-linecap="round" stroke-linejoin="round"/>
<path d="M22.2748 42.2734C21.9107 42.7479 17.8363 48.0582 17.7753 48.2399" stroke="#262626" stroke-width="4" stroke-miterlimit="1.5" stroke-linecap="round" stroke-linejoin="round"/>
<path d="M23.0881 42.375C23.3962 42.799 23.4213 42.6879 27.0555 47.5739" stroke="#262626" stroke-width="4" stroke-miterlimit="1.5" stroke-linecap="round" stroke-linejoin="round"/>
<path d="M49.143 29.5147C48.4298 29.3531 52.6142 30.3019 56.2064 35.3697C58.022 37.944 58.4642 44.9398 58.8313 45.3033" stroke="#262626" stroke-width="4" stroke-miterlimit="1.5" stroke-linecap="round" stroke-linejoin="round"/>
<path d="M53.5815 41.8105C55.2371 43.3248 57.6729 45.7982 58.2681 45.4045" stroke="#262626" stroke-width="4" stroke-miterlimit="1.5" stroke-linecap="round" stroke-linejoin="round"/>
<path d="M59.0214 46.1103C60.2248 46.7564 62.4785 41.0728 62.6735 40.5781" stroke="#262626" stroke-width="4" stroke-miterlimit="1.5" stroke-linecap="round" stroke-linejoin="round"/>
</svg>
