<svg width="71" height="70" viewBox="0 0 71 70" fill="none" xmlns="http://www.w3.org/2000/svg">
<path d="M11.5567 8.24805C40.8587 8.66195 40.8077 8.80358 43.3515 8.80358C52.2986 8.80358 53.576 7.94558 61.0506 8.65225" stroke="#262626" stroke-width="4" stroke-miterlimit="1.5" stroke-linecap="round" stroke-linejoin="round"/>
<path d="M10.6784 8.46094C10.1643 8.94551 8.67176 21.504 10.9305 24.6133" stroke="#262626" stroke-width="4" stroke-miterlimit="1.5" stroke-linecap="round" stroke-linejoin="round"/>
<path d="M10.9795 26.0156C11.2486 25.43 18.466 26.5407 34.7376 26.1974C51.2402 25.834 59.474 26.5507 60.8935 26.3488" stroke="#262626" stroke-width="4" stroke-miterlimit="1.5" stroke-linecap="round" stroke-linejoin="round"/>
<path d="M61.9899 26.0371C66.2693 22.8975 68.5361 19.0817 68.9602 18.375" stroke="#262626" stroke-width="4" stroke-miterlimit="1.5" stroke-linecap="round" stroke-linejoin="round"/>
<path d="M60.9075 8.83398C60.8775 9.30846 61.5027 8.79388 65.0449 13.155C65.8512 14.1444 68.279 16.2139 68.0199 16.4764" stroke="#262626" stroke-width="4" stroke-miterlimit="1.5" stroke-linecap="round" stroke-linejoin="round"/>
<path d="M10.8525 32.8301C56.476 34.4756 56.472 33.1328 60.4244 33.466" stroke="#262626" stroke-width="4" stroke-miterlimit="1.5" stroke-linecap="round" stroke-linejoin="round"/>
<path d="M61.4417 34.0918C61.3417 34.7076 61.6098 34.7178 60.7375 41.7643C60.1623 46.4081 60.8805 46.4281 60.2673 50.1431" stroke="#262626" stroke-width="4" stroke-miterlimit="1.5" stroke-linecap="round" stroke-linejoin="round"/>
<path d="M2.65167 43.0059C5.79474 46.5796 8.82375 48.0234 12.0959 51.5163H60" stroke="#262626" stroke-width="3.98" stroke-miterlimit="1.5" stroke-linecap="round" stroke-linejoin="round"/>
<path d="M2.62964 41.4113C2.42257 40.4926 5.23354 39.0291 7.54232 36.1216C8.79775 34.5367 9.22686 35.0716 10.4093 33.4766" stroke="#262626" stroke-width="3.98" stroke-miterlimit="1.5" stroke-linecap="round" stroke-linejoin="round"/>
<path d="M35 67.7487C35.093 67.466 35.03 56.0482 35.252 52" stroke="#262626" stroke-width="3.98" stroke-miterlimit="1.5" stroke-linecap="round" stroke-linejoin="round"/>
<path d="M34.8636 32.0639C34.8196 30.2064 34.8176 30.2464 34.7766 28.3788C34.7696 28.0355 34.6926 28.0965 34.6926 27.7734" stroke="#262626" stroke-width="3.98" stroke-miterlimit="1.5" stroke-linecap="round" stroke-linejoin="round"/>
<path d="M34.7766 5.82461C34.7586 5.53185 34.7996 5.60263 34.6926 2.16016C34.7486 4.25997 34.8726 4.20937 34.6085 6.32937C34.6085 6.33947 34.5245 6.53112 34.5245 6.16769" stroke="#262626" stroke-width="3.98" stroke-miterlimit="1.5" stroke-linecap="round" stroke-linejoin="round"/>
</svg>
