<svg width="74" height="77" viewBox="0 0 74 77" fill="none" xmlns="http://www.w3.org/2000/svg">
<path d="M42.02 49.5996C42.3501 49.9328 41.76 71.6173 41.7 73.5354" stroke="#262626" stroke-width="3.98" stroke-miterlimit="1.5" stroke-linecap="round" stroke-linejoin="round"/>
<path d="M2.76665 5.00781C2.19646 7.42057 3.62694 34.1325 3.5069 41.0174C3.01673 69.2235 6.22787 72.4641 4.5573 70.7782" stroke="#262626" stroke-width="3.98" stroke-miterlimit="1.5" stroke-linecap="round" stroke-linejoin="round"/>
<path d="M4.34717 73.7461C33.087 74.2509 38.6188 74.1298 41.5999 74.0591" stroke="#262626" stroke-width="3.98" stroke-miterlimit="1.5" stroke-linecap="round" stroke-linejoin="round"/>
<path d="M5.34752 61.1886C2.6566 60.8555 38.6589 62.0064 41.3898 61.4612" stroke="#262626" stroke-width="3.98" stroke-miterlimit="1.5" stroke-linecap="round" stroke-linejoin="round"/>
<path d="M3.29688 4.05947C20.2927 3.161 31.1063 3.37262 33.5171 3.4231" stroke="#262626" stroke-width="3.98" stroke-miterlimit="1.5" stroke-linecap="round" stroke-linejoin="round"/>
<path d="M38.4488 4.27148C40.1894 7.34044 37.9986 10.9647 38.1387 15.9214C38.5088 28.9544 40.2793 41.3914 33.2069 42.8148C24.8341 44.5108 26.4547 19.1317 27.1149 16.1334" stroke="#262626" stroke-width="3.98" stroke-miterlimit="1.5" stroke-linecap="round" stroke-linejoin="round"/>
<path d="M27.4549 15.6289L26.4047 16.1539C36.068 15.7299 36.048 15.6288 37.1884 15.8207" stroke="#262626" stroke-width="3.98" stroke-miterlimit="1.5" stroke-linecap="round" stroke-linejoin="round"/>
<path d="M40.5893 3.1711C40.3392 2.12119 41.1995 2.43458 53.9839 3.11096C55.3544 3.18162 64.1375 3.64601 71.0898 3.11096" stroke="#262626" stroke-width="3.98" stroke-miterlimit="1.5" stroke-linecap="round" stroke-linejoin="round"/>
<path d="M32.9868 42.6425C34.3873 42.4709 47.982 42.8446 49.2924 42.885C50.3628 42.9052 69.7694 42.8245 70.5196 42.6932" stroke="#262626" stroke-width="3.98" stroke-miterlimit="1.5" stroke-linecap="round" stroke-linejoin="round"/>
<path d="M71.8102 3.48438C71.5601 4.45352 71.6301 7.25004 71.51 7.66394C70.5897 10.6824 71.7901 11.702 71.63 12.8831C71.48 13.9936 71.2899 13.9631 71.63 14.9928C72.3703 17.234 71.32 26.4915 71.44 30.0854C71.8202 40.9782 72.1702 40.9882 71.7501 41.8261" stroke="#262626" stroke-width="3.98" stroke-miterlimit="1.5" stroke-linecap="round" stroke-linejoin="round"/>
<path d="M46.0912 9.91406C46.0712 10.1967 45.8012 10.4186 45.7812 10.7013C45.6711 12.5184 46.2613 17.5764 45.291 18.2831" stroke="#262626" stroke-width="3.98" stroke-miterlimit="1.5" stroke-linecap="round" stroke-linejoin="round"/>
<path d="M45.9013 9.59123C47.2317 8.79371 67.1785 8.16786 64.7377 9.39948C64.2375 9.65186 66.1782 9.9143 64.7377 16.4257C64.2775 18.4852 65.9381 20.4535 63.6273 20.4535H43.5605C43.3805 20.3626 43.4404 19.9994 43.2604 19.8984" stroke="#262626" stroke-width="3.98" stroke-miterlimit="1.5" stroke-linecap="round" stroke-linejoin="round"/>
<path d="M45.041 27.3497C50.893 27.2285 54.7242 26.6028 57.2251 26.5422C60.7363 26.4716 60.6763 27.1577 64.1775 26.976" stroke="#262626" stroke-width="3.98" stroke-miterlimit="1.5" stroke-linecap="round" stroke-linejoin="round"/>
<path d="M47.0417 34.6275C47.3919 34.5669 59.0758 34.7385 63.3873 34.3145" stroke="#262626" stroke-width="3.98" stroke-miterlimit="1.5" stroke-linecap="round" stroke-linejoin="round"/>
<path d="M23.5037 67.3567C24.334 66.5188 24.1039 69.4767 22.9436 68.5984C21.8732 67.7807 24.7541 66.307 24.484 67.5386C24.2839 68.4674 23.4036 69.154 23.3736 69.154C23.2736 69.154 23.3437 69.0631 22.9436 67.9123" stroke="#262626" stroke-width="3.98" stroke-miterlimit="1.5" stroke-linecap="round" stroke-linejoin="round"/>
</svg>
