<svg width="117" height="162" viewBox="0 0 117 162" fill="none" xmlns="http://www.w3.org/2000/svg">
    <path
        d="M62.6705 22.5648C52.074 15.0771 22.7445 47.0964 30.8425 68.2261C43.2392 100.562 97.9465 81.8169 80.3871 46.6947C76.5159 38.9506 74.7927 24.488 51.5782 27.0694C31.6905 29.2747 25.8926 66.7814 31.3169 74.2349C43.8247 91.4327 57.924 86.6033 60.284 85.7913C83.954 77.6796 98.8243 43.1302 75.7962 30.5481C55.2468 19.3251 42.2673 14.8806 29.8929 41.951C27.9432 46.2162 25.7481 59.935 29.1014 66.6364C33.6949 75.8251 44.1238 78.2954 45.7214 78.6715C59.8651 82.0136 61.5721 84.6975 79.5956 72.8163C98.932 60.0632 91.2058 51.336 76.1133 36.5657"
        stroke="#262626" stroke-width="3.98" stroke-miterlimit="1.5" stroke-linecap="round"
        stroke-linejoin="round" />
    <path
        d="M3.93377 157.66C3.90984 156.779 0.957503 136.975 18.6545 113.965C26.5174 103.742 72.4207 85.86 85.4524 96.7155C96.8395 106.203 94.1146 108.101 100.648 122.358C101.56 124.35 105.903 133.821 107.138 148.95C107.351 151.557 105.209 162.13 107.612 158.925C107.898 158.54 108.192 145.582 106.821 142.462C104.282 136.676 104.246 136.795 102.231 130.744C101.095 127.342 86.7346 102.22 81.653 99.7243C39.6611 79.0732 6.59038 121.196 5.04155 147.522C4.61588 154.762 3.4987 155.874 2.98328 156.386"
        stroke="#262626" stroke-width="3.98" stroke-miterlimit="1.5" stroke-linecap="round"
        stroke-linejoin="round" />
    <path
        d="M2.92262 156.641C1.90716 164.762 45.9992 146.384 109.264 156.641C65.451 157.471 53.0963 158.402 48.2242 158.77C25.3524 160.497 25.5063 157.488 2.49695 157.488C43.3306 155.18 43.2477 158.736 83.9549 156.428"
        stroke="#262626" stroke-width="3.98" stroke-miterlimit="1.5" stroke-linecap="round"
        stroke-linejoin="round" />
    <path
        d="M44.9333 46.3275C44.8914 47.0198 44.229 58.0719 46.1829 54.9093C47.3095 53.0972 46.4676 44.6353 45.9334 45.2507C44.7213 46.6354 44.5709 58.9524 46.3496 53.9093"
        stroke="#262626" stroke-width="3.98" stroke-miterlimit="1.5" stroke-linecap="round"
        stroke-linejoin="round" />
    <path
        d="M66.6281 44.3281C65.4272 45.918 65.2767 59.4403 67.3752 55.0469C67.9308 53.8844 67.9308 48.9608 67.9308 48.4308C67.9308 48.1915 67.7786 48.2259 67.3248 45.4992"
        stroke="#262626" stroke-width="3.98" stroke-miterlimit="1.5" stroke-linecap="round"
        stroke-linejoin="round" />
    <path
        d="M48.8704 66.815C48.6755 66.4474 49.2234 67.4815 53.1177 69.815C53.7605 70.1996 59.8164 70.1315 62.0166 65.1055L61.9192 65.1138C61.2208 66.0199 54.2921 74.9692 47.7087 66.4131"
        stroke="#262626" stroke-width="3.98" stroke-miterlimit="1.5" stroke-linecap="round"
        stroke-linejoin="round" />
    <path
        d="M12.6728 89.7659L12.6079 91.1675C9.37601 86.4064 8.46312 86.8167 7.72546 82.389C6.84249 77.0895 12.5472 88.8256 12.466 88.8256C10.5171 88.8256 12.1446 70.7388 13.5276 83.0218C13.943 86.7143 13.5284 90.4496 13.4566 91.0907C13.4148 91.4668 13.3088 91.0478 12.9617 90.9538"
        stroke="#262626" stroke-width="3.98" stroke-miterlimit="1.5" stroke-linecap="round"
        stroke-linejoin="round" />
    <path
        d="M9.40343 103.845C7.08873 104.93 3.5013 101.546 2.98417 100.904C2.89869 100.802 11.2762 103.956 9.11709 103.417C7.6469 103.05 5.81856 96.1946 6.24765 95.8869C7.22293 95.1775 10.4454 103.452 9.43933 103.204"
        stroke="#262626" stroke-width="3.98" stroke-miterlimit="1.5" stroke-linecap="round"
        stroke-linejoin="round" />
    <path
        d="M29.0279 42.6708C25.9781 42.3973 15.3167 35.7641 13.6354 33.2939C-1.78284 10.6256 26.1192 2.6335 57.1667 7.81336C90.8169 13.4206 108.411 36.7728 110.478 41.286C119.428 60.8087 113.467 68.5872 92.4324 64.2877"
        stroke="#262626" stroke-width="3.98" stroke-miterlimit="1.5" stroke-linecap="round"
        stroke-linejoin="round" />
    <path d="M53.7811 6.46292C53.0947 5.19788 56.1522 2.7273 56.1599 2.71875" stroke="#262626"
        stroke-width="3.98" stroke-miterlimit="1.5" stroke-linecap="round" stroke-linejoin="round" />
    <path
        d="M60.2113 2.5801C62.8149 1.93048 71.3856 7.07597 74.7944 7.30675C78.2972 7.53754 93.0478 11.8713 99.1004 18.7864C100.543 20.436 99.4013 20.5129 98.1551 22.2993"
        stroke="#262626" stroke-width="3.98" stroke-miterlimit="1.5" stroke-linecap="round"
        stroke-linejoin="round" />
    <path
        d="M33.9094 105.426C32.6674 106.588 39.0115 127.957 40.4757 132.223C46.2342 148.967 46.3915 148.899 46.8138 150.378"
        stroke="#262626" stroke-width="3.98" stroke-miterlimit="1.5" stroke-linecap="round"
        stroke-linejoin="round" />
    <path d="M82.7386 100.262C81.7077 102.048 72.0344 139.418 70.8257 149.889L70.5822 148.308"
        stroke="#262626" stroke-width="3.98" stroke-miterlimit="1.5" stroke-linecap="round"
        stroke-linejoin="round" />
    <path
        d="M47.2284 99.8242C47.9199 100.747 65.8425 116.364 65.8716 116.407C66.0614 116.671 66.0725 116.774 66.1297 116.663C66.2084 116.509 66.158 116.415 66.1297 116.278"
        stroke="#262626" stroke-width="3.98" stroke-miterlimit="1.5" stroke-linecap="round"
        stroke-linejoin="round" />
    <path
        d="M49.9277 118.338C59.4874 109.841 59.7233 110.106 62.5167 106.73C63.2432 105.849 67.1332 101.148 72.7088 96.7891"
        stroke="#262626" stroke-width="3.98" stroke-miterlimit="1.5" stroke-linecap="round"
        stroke-linejoin="round" />
    <path
        d="M66.2314 116.725C66.2998 115.913 66.8871 116.195 71.484 107.955C74.1235 103.228 73.5841 102.98 76.0638 97.8945"
        stroke="#262626" stroke-width="3.98" stroke-miterlimit="1.5" stroke-linecap="round"
        stroke-linejoin="round" />
    <path
        d="M38.9064 101.641C41.6655 107.154 40.8321 107.564 45.4222 114.086C46.1445 115.112 49.19 118.172 49.2926 118.018"
        stroke="#262626" stroke-width="3.98" stroke-miterlimit="1.5" stroke-linecap="round"
        stroke-linejoin="round" />
</svg>