<svg width="70" height="77" viewBox="0 0 70 77" fill="none" xmlns="http://www.w3.org/2000/svg">
<path d="M2.83583 16.0547C1.16926 25.4231 5.02656 56.8999 4.24329 62.8359" stroke="#262626" stroke-width="4" stroke-miterlimit="1.5" stroke-linecap="round" stroke-linejoin="round"/>
<path d="M4.46936 14.8325C32.9231 12.44 32.2898 22.0303 34.1275 22.0303" stroke="#262626" stroke-width="4" stroke-miterlimit="1.5" stroke-linecap="round" stroke-linejoin="round"/>
<path d="M5.17059 64.8747C6.43803 64.0368 6.60311 63.9259 23.814 68.2769C31.0164 70.0941 31.3395 73.284 34.3616 74.4248" stroke="#262626" stroke-width="4" stroke-miterlimit="1.5" stroke-linecap="round" stroke-linejoin="round"/>
<path d="M34.1656 22.3125C33.7945 22.3832 34.4237 42.0692 34.4787 43.7954C34.7488 52.2452 34.3076 70.4365 35.0649 74.0708" stroke="#262626" stroke-width="4" stroke-miterlimit="1.5" stroke-linecap="round" stroke-linejoin="round"/>
<path d="M34.9907 74.4234C41.8741 70.2137 41.2949 65.469 67.2927 63.1875" stroke="#262626" stroke-width="4" stroke-miterlimit="1.5" stroke-linecap="round" stroke-linejoin="round"/>
<path d="M67.4538 34.4473C67.7459 39.5353 66.8816 45.118 67.0577 47.3389C67.3628 51.1852 67.786 63.2594 67.761 63.5421" stroke="#262626" stroke-width="4" stroke-miterlimit="1.5" stroke-linecap="round" stroke-linejoin="round"/>
<path d="M49.6597 32.0156C49.5507 32.0661 49.3626 35.2562 49.6547 35.8417C49.7668 36.0638 54.8145 36.2052 55.6748 36.1143C55.6498 34.7818 55.6248 33.4492 55.5998 32.1167C66.1044 31.6826 62.5111 14.1168 53.279 14.45C52.6578 14.4702 44.2649 16.8927 43.5697 23.2123C43.2706 25.928 44.0969 27.3011 47.9462 30.4609" stroke="#262626" stroke-width="4" stroke-miterlimit="1.5" stroke-linecap="round" stroke-linejoin="round"/>
<path d="M64.2177 12.7821C63.9666 12.56 64.3117 12.5703 66.5445 9.2793" stroke="#262626" stroke-width="4" stroke-miterlimit="1.5" stroke-linecap="round" stroke-linejoin="round"/>
<path d="M53.4 2.32422C53.382 3.71736 53.365 5.1205 53.348 6.51364" stroke="#262626" stroke-width="4" stroke-miterlimit="1.5" stroke-linecap="round" stroke-linejoin="round"/>
<path d="M39.8574 9.86523C40.7017 11.1776 40.7707 11.0464 41.9281 12.1771" stroke="#262626" stroke-width="4" stroke-miterlimit="1.5" stroke-linecap="round" stroke-linejoin="round"/>
<path d="M48.6525 41.6445C48.6525 41.8363 54.7195 41.8363 55.2467 41.8363" stroke="#262626" stroke-width="4" stroke-miterlimit="1.5" stroke-linecap="round" stroke-linejoin="round"/>
<path d="M50.7711 47.4603C51.9285 47.3795 51.8605 47.4197 52.9859 47.0664" stroke="#262626" stroke-width="4" stroke-miterlimit="1.5" stroke-linecap="round" stroke-linejoin="round"/>
<path d="M9.46606 27.6015C9.73616 27.5308 20.4899 28.4396 23.3178 29.762C28.4606 32.1748 28.4045 32.185 28.8587 32.3667" stroke="#262626" stroke-width="4" stroke-miterlimit="1.5" stroke-linecap="round" stroke-linejoin="round"/>
<path d="M8.82092 38.9402C9.08101 38.4254 18.5992 39.1724 20.4839 39.7378C24.6913 40.9997 24.5953 41.1712 28.7327 42.6653" stroke="#262626" stroke-width="4" stroke-miterlimit="1.5" stroke-linecap="round" stroke-linejoin="round"/>
<path d="M8.93793 48.3374C8.77187 47.9639 9.16795 48.8725 14.0616 48.6302C21.004 48.2971 27.4512 52.2036 28.4805 52.8295" stroke="#262626" stroke-width="4" stroke-miterlimit="1.5" stroke-linecap="round" stroke-linejoin="round"/>
</svg>
