<svg width="55" height="63" viewBox="0 0 55 63" fill="none" xmlns="http://www.w3.org/2000/svg">
<path d="M36.7531 3.30968C33.3781 -2.13032 31.005 16.1498 36.613 15.4498C37.057 15.3998 45.121 8.26978 36.487 4.15978" stroke="#262626" stroke-width="4" stroke-miterlimit="1.5" stroke-linecap="round" stroke-linejoin="round"/>
<path d="M45.42 3.98926C45.332 3.90926 45.251 3.8293 45.149 3.7793" stroke="#262626" stroke-width="4" stroke-miterlimit="1.5" stroke-linecap="round" stroke-linejoin="round"/>
<path d="M50.3351 3.61914C50.7771 4.42914 50.5961 4.55922 45.7771 14.1992" stroke="#262626" stroke-width="4" stroke-miterlimit="1.5" stroke-linecap="round" stroke-linejoin="round"/>
<path d="M52.432 13.2695C52.264 13.4095 52.096 13.5497 51.928 13.6997" stroke="#262626" stroke-width="4" stroke-miterlimit="1.5" stroke-linecap="round" stroke-linejoin="round"/>
<path d="M27.7001 9.17969C25.9381 9.83969 25.9701 9.44969 24.0601 9.17969" stroke="#262626" stroke-width="4" stroke-miterlimit="1.5" stroke-linecap="round" stroke-linejoin="round"/>
<path d="M21.9581 10.9395C21.4271 19.6295 22.0761 21.4394 22.1771 23.3594" stroke="#262626" stroke-width="4" stroke-miterlimit="1.5" stroke-linecap="round" stroke-linejoin="round"/>
<path d="M22.4231 24.2685C24.9811 25.7785 28.5201 22.7187 32.9731 23.9887C33.2551 24.0687 35.7441 24.7787 36.6131 24.4887" stroke="#262626" stroke-width="4" stroke-miterlimit="1.5" stroke-linecap="round" stroke-linejoin="round"/>
<path d="M36.2881 21.5098C36.2701 22.4198 36.2531 23.3297 36.2361 24.2397" stroke="#262626" stroke-width="4" stroke-miterlimit="1.5" stroke-linecap="round" stroke-linejoin="round"/>
<path d="M13.6111 26.28C15.4901 26.19 32.0831 25.3602 37.1151 25.5002C37.8681 25.5202 45.8241 25.7302 46.5301 25.5002" stroke="#262626" stroke-width="4" stroke-miterlimit="1.5" stroke-linecap="round" stroke-linejoin="round"/>
<path d="M12.009 26.25C10.885 34.12 12.729 34.3898 10.879 38.5498" stroke="#262626" stroke-width="4" stroke-miterlimit="1.5" stroke-linecap="round" stroke-linejoin="round"/>
<path d="M29.039 28.1703C28.323 27.8003 28.365 28.4602 28.705 38.3002" stroke="#262626" stroke-width="4" stroke-miterlimit="1.5" stroke-linecap="round" stroke-linejoin="round"/>
<path d="M47.136 27.1289C46.279 32.2789 50.266 33.5886 46.781 40.5586" stroke="#262626" stroke-width="4" stroke-miterlimit="1.5" stroke-linecap="round" stroke-linejoin="round"/>
<path d="M10.576 41.7788C18.307 41.9488 18.2671 42.749 25.9431 41.189C29.5501 40.449 48.9861 40.9486 50.2961 40.5586" stroke="#262626" stroke-width="4" stroke-miterlimit="1.5" stroke-linecap="round" stroke-linejoin="round"/>
<path d="M6.20263 48.2976C6.86963 47.0476 23.0016 45.8176 23.5436 49.6076C23.9156 52.2176 13.4416 51.8878 10.8456 51.9778C10.1506 52.0078 -1.19838 53.1578 3.83962 49.9778" stroke="#262626" stroke-width="4" stroke-miterlimit="1.5" stroke-linecap="round" stroke-linejoin="round"/>
<path d="M2.02565 51.4688C1.96165 51.8088 1.61864 59.0587 7.40564 60.1187C19.5136 62.3187 20.6356 57.3188 22.7926 56.2388" stroke="#262626" stroke-width="4" stroke-miterlimit="1.5" stroke-linecap="round" stroke-linejoin="round"/>
<path d="M24.2937 50.1092C25.3247 50.6192 32.1997 48.6194 41.6207 49.2894C44.5287 49.4994 48.0187 48.2691 51.3157 50.2991C54.8627 52.4791 44.9397 54.7492 39.6807 54.1092C33.9597 53.4192 24.7047 54.9593 23.4187 55.1693" stroke="#262626" stroke-width="4" stroke-miterlimit="1.5" stroke-linecap="round" stroke-linejoin="round"/>
</svg>
