<svg width="60" height="59" viewBox="0 0 60 59" fill="none" xmlns="http://www.w3.org/2000/svg">
<path d="M2.42062 4.23633C2.15262 6.12633 1.55059 46.716 2.57659 55.436" stroke="#262626" stroke-width="4" stroke-miterlimit="1.5" stroke-linecap="round" stroke-linejoin="round"/>
<path d="M5.03357 2.3863C6.10157 4.3763 26.7306 1.73638 39.0026 2.71638C45.3936 3.22638 53.1956 1.22626 54.9946 2.34626" stroke="#262626" stroke-width="4" stroke-miterlimit="1.5" stroke-linecap="round" stroke-linejoin="round"/>
<path d="M55.5156 3.05664C55.0956 4.81664 56.6906 4.7765 56.4006 25.6665C56.2936 33.4165 57.7976 50.9664 57.3636 53.3564" stroke="#262626" stroke-width="4" stroke-miterlimit="1.5" stroke-linecap="round" stroke-linejoin="round"/>
<path d="M4.12964 56.8554C4.66364 55.9354 25.5186 55.8257 36.5586 56.4657C44.7646 56.9457 54.4086 56.2757 55.9566 56.1757" stroke="#262626" stroke-width="4" stroke-miterlimit="1.5" stroke-linecap="round" stroke-linejoin="round"/>
<path d="M10.1276 27.0065C11.7566 26.9765 26.7496 26.7164 30.4876 26.9264C33.7316 27.1064 38.4006 26.0261 44.4066 26.1861" stroke="#262626" stroke-width="4" stroke-miterlimit="1.5" stroke-linecap="round" stroke-linejoin="round"/>
<path d="M15.0886 28.0352C16.5016 30.4752 15.7896 31.9451 17.5316 31.2251C19.6666 30.3351 28.9886 32.8151 40.9276 31.2251" stroke="#262626" stroke-width="4" stroke-miterlimit="1.5" stroke-linecap="round" stroke-linejoin="round"/>
<path d="M41.8846 28.9961C40.9066 30.1261 40.9166 30.1063 40.3346 31.4463" stroke="#262626" stroke-width="4" stroke-miterlimit="1.5" stroke-linecap="round" stroke-linejoin="round"/>
<path d="M13.0126 26.016C13.0496 25.806 15.9146 17.6461 23.3066 14.6361C24.9936 13.9461 37.2486 11.0958 38.4836 17.8958C38.5826 18.4358 41.9866 23.3558 42.1116 24.8558" stroke="#262626" stroke-width="4" stroke-miterlimit="1.5" stroke-linecap="round" stroke-linejoin="round"/>
<path d="M27.8966 9.89648C28.0576 11.2365 28.0046 11.1968 28.4146 12.4868" stroke="#262626" stroke-width="4" stroke-miterlimit="1.5" stroke-linecap="round" stroke-linejoin="round"/>
<path d="M10.7947 44.5454C16.1987 44.2554 20.1257 44.2559 20.9377 44.2559" stroke="#262626" stroke-width="4" stroke-miterlimit="1.5" stroke-linecap="round" stroke-linejoin="round"/>
<path d="M10.1275 43.8052C11.8425 41.8252 11.9276 42.0053 14.1996 40.6953C13.7866 40.9153 6.92056 44.4853 10.4246 45.1353C11.9426 45.4253 13.5435 46.8351 13.9035 47.4351" stroke="#262626" stroke-width="4" stroke-miterlimit="1.5" stroke-linecap="round" stroke-linejoin="round"/>
<path d="M35.3606 44.3156C34.6436 43.5356 36.3966 45.4459 48.6296 43.9259C46.3686 41.0059 46.3286 40.7758 46.1096 40.9958C45.8876 41.2158 50.8836 43.1559 50.4776 43.6559C48.8176 45.7359 46.1096 45.7656 46.1096 47.5856" stroke="#262626" stroke-width="4" stroke-miterlimit="1.5" stroke-linecap="round" stroke-linejoin="round"/>
</svg>
