<svg width="55" height="60" viewBox="0 0 55 60" fill="none" xmlns="http://www.w3.org/2000/svg">
<path d="M32.8262 11.2661C25.1562 1.48608 2.98517 6.22615 6.24917 32.3462C6.59817 35.1362 10.0782 39.6161 14.7902 38.0761C21.4012 57.0761 45.0502 32.0561 45.5312 27.0761C46.6682 15.3361 33.2822 12.9062 32.7572 12.3862" stroke="#262626" stroke-width="4" stroke-miterlimit="1.5" stroke-linecap="round" stroke-linejoin="round"/>
<path d="M34.7322 12.0356C33.7092 9.19564 45.5602 2.60586 46.6492 2.00586" stroke="#262626" stroke-width="4" stroke-miterlimit="1.5" stroke-linecap="round" stroke-linejoin="round"/>
<path d="M42.0182 5.35556C47.6432 3.74556 51.8502 6.79595 52.2382 9.50595C52.8042 13.466 43.9732 7.39597 43.7752 7.27597" stroke="#262626" stroke-width="4" stroke-miterlimit="1.5" stroke-linecap="round" stroke-linejoin="round"/>
<path d="M5.29117 45.7559C5.40717 50.8459 5.35716 50.7757 5.96716 55.8057C4.83716 54.9557 3.70617 54.1059 2.57617 53.2559C4.55917 56.1559 4.12318 57.2957 5.93018 56.6157C6.20818 56.5057 6.21116 56.5055 7.84616 53.4155" stroke="#262626" stroke-width="4" stroke-miterlimit="1.5" stroke-linecap="round" stroke-linejoin="round"/>
<path d="M15.8252 48.6857C15.6512 48.0857 15.9892 49.2458 16.3092 56.4558L14.8722 54.216C15.0002 54.376 16.4692 56.1359 16.4692 56.1359C16.7892 56.0259 16.6552 55.8858 19.0242 52.7858" stroke="#262626" stroke-width="4" stroke-miterlimit="1.5" stroke-linecap="round" stroke-linejoin="round"/>
<path d="M29.4742 49.315C29.4712 49.385 29.4072 49.035 29.4032 49.105C29.3752 49.725 29.3802 49.6754 29.0962 56.7954C27.9212 55.8854 26.7462 54.9752 25.5712 54.0552C29.0722 57.4052 29.1282 57.7251 29.4032 57.4151C29.6562 57.1251 29.6162 57.1252 32.2782 53.5752" stroke="#262626" stroke-width="4" stroke-miterlimit="1.5" stroke-linecap="round" stroke-linejoin="round"/>
</svg>
