<svg width="66" height="59" viewBox="0 0 66 59" fill="none" xmlns="http://www.w3.org/2000/svg">
<path d="M47.4752 33.6875C44.5322 34.4975 37.5902 33.1177 36.5392 43.6177C34.4812 64.2077 63.8532 57.7178 58.5802 42.7778C55.8292 34.9878 50.8512 35.7278 49.3262 34.1978" stroke="#262626" stroke-width="4" stroke-miterlimit="1.5" stroke-linecap="round" stroke-linejoin="round"/>
<path d="M41.9841 47.8384C42.5441 49.1484 42.6651 49.0479 43.9481 49.6279C44.4391 48.9979 46.8661 45.8681 50.2341 41.8281C50.3521 41.6881 50.4871 41.578 50.5701 41.498" stroke="#262626" stroke-width="4" stroke-miterlimit="1.5" stroke-linecap="round" stroke-linejoin="round"/>
<path d="M30.9162 46.4985C25.8732 46.8585 25.9442 45.1388 20.9742 45.9688C18.2672 46.4187 16.8172 39.1587 12.2252 31.1187C8.10016 23.8987 10.4042 23.2687 9.44116 20.3887" stroke="#262626" stroke-width="4" stroke-miterlimit="1.5" stroke-linecap="round" stroke-linejoin="round"/>
<path d="M53.4512 31.2598C53.4512 30.6598 53.8542 30.8696 55.4402 24.0996C55.5272 23.7296 55.8502 22.3498 57.0312 19.5898" stroke="#262626" stroke-width="4" stroke-miterlimit="1.5" stroke-linecap="round" stroke-linejoin="round"/>
<path d="M6.39215 18.4992C37.1931 16.1792 64.9102 21.4794 63.9242 17.1994C63.8382 16.8294 61.8751 12.7592 50.2701 12.5592C48.2461 12.5292 13.7721 10.4395 9.83914 12.2995C4.75914 14.7095 -0.444856 14.6991 4.27114 17.7291" stroke="#262626" stroke-width="4" stroke-miterlimit="1.5" stroke-linecap="round" stroke-linejoin="round"/>
<path d="M12.0922 10.8379C15.6652 6.93789 15.5452 6.98781 18.5882 2.75781" stroke="#262626" stroke-width="4" stroke-miterlimit="1.5" stroke-linecap="round" stroke-linejoin="round"/>
<path d="M46.4941 2.22852C45.6271 4.92852 46.6151 6.16854 50.9331 11.4985" stroke="#262626" stroke-width="4" stroke-miterlimit="1.5" stroke-linecap="round" stroke-linejoin="round"/>
<path d="M24.6052 25.2591C23.6782 16.2691 24.4462 27.5589 24.6862 36.5589" stroke="#262626" stroke-width="4" stroke-miterlimit="1.5" stroke-linecap="round" stroke-linejoin="round"/>
<path d="M35.3562 25.7286C34.5912 25.6286 34.7742 26.119 34.6282 35.359" stroke="#262626" stroke-width="4" stroke-miterlimit="1.5" stroke-linecap="round" stroke-linejoin="round"/>
<path d="M44.6102 25.0684C43.2362 25.3484 44.1392 27.658 44.1722 27.938" stroke="#262626" stroke-width="4" stroke-miterlimit="1.5" stroke-linecap="round" stroke-linejoin="round"/>
</svg>
