<svg width="545" height="107" viewBox="0 0 545 107" fill="none" xmlns="http://www.w3.org/2000/svg"       data-draw="true"
data-stagger="0.01" >
<path d="M16.0608 101C15.9513 96.6232 16.5505 78.9756 16.0608 65.36C15.6146 52.9532 16.1802 41.9821 17.1544 36.4559C17.8404 32.5646 20.0034 32.0332 20.8797 31.1801C21.9484 30.1397 24.3723 30.3449 25.458 31.181C27.7261 32.9278 26.5102 36.2616 28.5142 45.3115C29.7126 54.2386 30.6292 64.4674 30.7202 70.9628C30.8058 76.7106 31.5826 89.9498 31.7532 101" stroke="#51821D" stroke-width="10.9623" stroke-linecap="round"/>
<path d="M21.3657 65.2268C23.1033 65.2042 27.3282 65.0061 28.3652 64.7044C28.5677 64.6455 28.432 64.1956 28.2295 63.8315C28.0269 63.4675 27.6703 63.0807 27.3304 62.8502C25.6353 61.7005 22.2085 62.2875 19.1546 61.1899C17.9114 60.7431 17.2696 60.132 16.9411 59.6481C16.6159 59.1691 16.6815 58.4803 16.9651 57.7635C18.7545 53.2415 24.5171 49.5509 24.7617 48.9709C24.9908 48.4279 24.6157 47.4161 23.5589 44.947C21.6145 40.4039 20.4266 37.0991 20.0455 36.7659C19.9016 36.7553 19.8584 37.0667 19.8362 37.3823C19.8139 37.6979 19.8139 38.0083 19.8139 38.3281" stroke="#51821D" stroke-width="10.9623" stroke-linecap="round"/>
<path d="M18.6982 10.1328C18.9478 10.3042 19.9888 10.7963 21.0323 11.009C21.573 11.1192 21.9084 10.2768 22.1432 9.70096C22.3855 9.1066 22.3163 8.31472 22.218 7.57307C22.0084 5.9927 18.7266 5.94239 17.3382 6.02287C16.5963 6.06588 16.2019 6.84517 15.9919 7.49385C15.8743 7.8571 15.8895 8.33095 15.9656 8.68141C16.0986 9.2939 16.6269 9.61719 17.0996 9.84017C17.569 10.0616 18.1439 10.0157 18.6748 9.91139C18.9253 9.81637 19.1373 9.63593 19.3521 9.40307C19.5668 9.17022 19.7778 8.89041 20.0687 8.55581" stroke="#51821D" stroke-width="10.9623" stroke-linecap="round"/>
<path d="M6 53.6359C6 53.5807 6.00698 51.5568 6.38708 46.8791C6.88055 40.8061 8.7339 36.3236 9.53246 34.461C10.1969 32.9112 11.9516 31.8707 15.4339 30.1775C17.4578 29.1935 21.2522 29.4379 24.7524 30.191C29.469 31.2058 31.1701 34.217 31.9102 35.5175C33.3972 38.1305 33.7247 42.9428 34.3623 45.922C35.0305 49.4143 35.4088 50.5412 35.7575 51.5313C36.0038 52.2708 36.3909 53.4917 36.8149 54.7758" stroke="#51821D" stroke-width="10.9623" stroke-linecap="round"/>
<path d="M69.8564 101C69.747 96.6232 70.3461 78.9756 69.8564 65.36C69.4102 52.9532 69.9759 41.9821 70.9501 36.4559C71.636 32.5646 73.799 32.0332 74.6753 31.1801C75.744 30.1397 78.1679 30.3449 79.2536 31.181C81.5217 32.9278 80.3059 36.2616 82.3098 45.3115C83.5082 54.2386 84.4248 64.4674 84.5158 70.9628C84.6014 76.7106 85.3782 89.9498 85.5489 101" stroke="#51821D" stroke-width="10.9623" stroke-linecap="round"/>
<path d="M75.1613 65.2268C76.8989 65.2042 81.1238 65.0061 82.1608 64.7044C82.3634 64.6455 82.2277 64.1956 82.0251 63.8315C81.8225 63.4675 81.4659 63.0807 81.1261 62.8502C79.4309 61.7005 76.0041 62.2875 72.9502 61.1899C71.7071 60.7431 71.0652 60.132 70.7367 59.6481C70.4116 59.1691 70.4771 58.4803 70.7608 57.7635C72.5501 53.2415 78.3127 49.5509 78.5574 48.9709C78.7864 48.4279 78.4113 47.4161 77.3546 44.947C75.4101 40.4039 74.2222 37.0991 73.8411 36.7659C73.6973 36.7553 73.6541 37.0667 73.6318 37.3823C73.6096 37.6979 73.6096 38.0083 73.6096 38.3281" stroke="#51821D" stroke-width="10.9623" stroke-linecap="round"/>
<path d="M72.4938 10.1328C72.7434 10.3042 73.7844 10.7963 74.8279 11.009C75.3687 11.1192 75.704 10.2768 75.9388 9.70096C76.1811 9.1066 76.112 8.31472 76.0136 7.57307C75.804 5.9927 72.5222 5.94239 71.1338 6.02287C70.3919 6.06588 69.9975 6.84517 69.7875 7.49385C69.6699 7.8571 69.6851 8.33095 69.7612 8.68141C69.8942 9.2939 70.4225 9.61719 70.8952 9.84017C71.3646 10.0616 71.9395 10.0157 72.4705 9.91139C72.721 9.81637 72.933 9.63593 73.1477 9.40307C73.3624 9.17022 73.5734 8.89041 73.8644 8.55581" stroke="#51821D" stroke-width="10.9623" stroke-linecap="round"/>
<path d="M59.7956 53.6359C59.7956 53.5807 59.8026 51.5568 60.1827 46.8791C60.6762 40.8061 62.5295 36.3236 63.3281 34.461C63.9925 32.9112 65.7472 31.8707 69.2296 30.1775C71.2535 29.1935 75.0478 29.4379 78.5481 30.191C83.2647 31.2058 84.9658 34.217 85.7058 35.5175C87.1928 38.1305 87.5204 42.9428 88.1579 45.922C88.8261 49.4143 89.2044 50.5412 89.5531 51.5313C89.7994 52.2708 90.1865 53.4917 90.6106 54.7758" stroke="#51821D" stroke-width="10.9623" stroke-linecap="round"/>
<path d="M125.941 101C125.832 96.6232 126.431 78.9756 125.941 65.36C125.495 52.9532 126.061 41.9821 127.035 36.4559C127.721 32.5646 129.884 32.0332 130.76 31.1801C131.829 30.1397 134.253 30.3449 135.338 31.181C137.606 32.9278 136.391 36.2616 138.395 45.3115C139.593 54.2386 140.51 64.4674 140.601 70.9628C140.686 76.7106 141.463 89.9498 141.634 101" stroke="#51821D" stroke-width="10.9623" stroke-linecap="round"/>
<path d="M131.246 65.2268C132.984 65.2042 137.209 65.0061 138.246 64.7044C138.448 64.6455 138.312 64.1956 138.11 63.8315C137.907 63.4675 137.551 63.0807 137.211 62.8502C135.516 61.7005 132.089 62.2875 129.035 61.1899C127.792 60.7431 127.15 60.132 126.822 59.6481C126.496 59.1691 126.562 58.4803 126.846 57.7635C128.635 53.2415 134.398 49.5509 134.642 48.9709C134.871 48.4279 134.496 47.4161 133.439 44.947C131.495 40.4039 130.307 37.0991 129.926 36.7659C129.782 36.7553 129.739 37.0667 129.717 37.3823C129.694 37.6979 129.694 38.0083 129.694 38.3281" stroke="#51821D" stroke-width="10.9623" stroke-linecap="round"/>
<path d="M128.579 10.1328C128.828 10.3042 129.869 10.7963 130.913 11.009C131.453 11.1192 131.789 10.2768 132.024 9.70096C132.266 9.1066 132.197 8.31472 132.098 7.57307C131.889 5.9927 128.607 5.94239 127.219 6.02287C126.477 6.06588 126.082 6.84517 125.872 7.49385C125.755 7.8571 125.77 8.33095 125.846 8.68141C125.979 9.2939 126.507 9.61719 126.98 9.84017C127.449 10.0616 128.024 10.0157 128.555 9.91139C128.806 9.81637 129.018 9.63593 129.232 9.40307C129.447 9.17022 129.658 8.89041 129.949 8.55581" stroke="#51821D" stroke-width="10.9623" stroke-linecap="round"/>
<path d="M115.88 53.6359C115.88 53.5807 115.887 51.5568 116.268 46.8791C116.761 40.8061 118.614 36.3236 119.413 34.461C120.077 32.9112 121.832 31.8707 125.314 30.1775C127.338 29.1935 131.133 29.4379 134.633 30.191C139.349 31.2058 141.051 34.217 141.791 35.5175C143.278 38.1305 143.605 42.9428 144.243 45.922C144.911 49.4143 145.289 50.5412 145.638 51.5313C145.884 52.2708 146.271 53.4917 146.695 54.7758" stroke="#51821D" stroke-width="10.9623" stroke-linecap="round"/>
<path d="M182.026 101C181.917 96.6232 182.516 78.9756 182.026 65.36C181.58 52.9532 182.145 41.9821 183.12 36.4559C183.806 32.5646 185.969 32.0332 186.845 31.1801C187.914 30.1397 190.338 30.3449 191.423 31.181C193.691 32.9278 192.475 36.2616 194.479 45.3115C195.678 54.2386 196.594 64.4674 196.685 70.9628C196.771 76.7106 197.548 89.9498 197.718 101" stroke="#51821D" stroke-width="10.9623" stroke-linecap="round"/>
<path d="M187.331 65.2268C189.069 65.2042 193.293 65.0061 194.33 64.7044C194.533 64.6455 194.397 64.1956 194.195 63.8315C193.992 63.4675 193.636 63.0807 193.296 62.8502C191.601 61.7005 188.174 62.2875 185.12 61.1899C183.877 60.7431 183.235 60.132 182.906 59.6481C182.581 59.1691 182.647 58.4803 182.93 57.7635C184.72 53.2415 190.482 49.5509 190.727 48.9709C190.956 48.4279 190.581 47.4161 189.524 44.947C187.58 40.4039 186.392 37.0991 186.011 36.7659C185.867 36.7553 185.824 37.0667 185.801 37.3823C185.779 37.6979 185.779 38.0083 185.779 38.3281" stroke="#51821D" stroke-width="10.9623" stroke-linecap="round"/>
<path d="M184.663 10.1328C184.913 10.3042 185.954 10.7963 186.998 11.009C187.538 11.1192 187.874 10.2768 188.108 9.70096C188.351 9.1066 188.282 8.31472 188.183 7.57307C187.974 5.9927 184.692 5.94239 183.303 6.02287C182.562 6.06588 182.167 6.84517 181.957 7.49385C181.839 7.8571 181.855 8.33095 181.931 8.68141C182.064 9.2939 182.592 9.61719 183.065 9.84017C183.534 10.0616 184.109 10.0157 184.64 9.91139C184.891 9.81637 185.103 9.63593 185.317 9.40307C185.532 9.17022 185.743 8.89041 186.034 8.55581" stroke="#51821D" stroke-width="10.9623" stroke-linecap="round"/>
<path d="M171.965 53.6359C171.965 53.5807 171.972 51.5568 172.352 46.8791C172.846 40.8061 174.699 36.3236 175.498 34.461C176.162 32.9112 177.917 31.8707 181.399 30.1775C183.423 29.1935 187.217 29.4379 190.718 30.191C195.434 31.2058 197.135 34.217 197.875 35.5175C199.362 38.1305 199.69 42.9428 200.328 45.922C200.996 49.4143 201.374 50.5412 201.723 51.5313C201.969 52.2708 202.356 53.4917 202.78 54.7758" stroke="#51821D" stroke-width="10.9623" stroke-linecap="round"/>
<path d="M238.111 101C238.001 96.6232 238.601 78.9756 238.111 65.36C237.665 52.9532 238.23 41.9821 239.204 36.4559C239.89 32.5646 242.053 32.0332 242.93 31.1801C243.998 30.1397 246.422 30.3449 247.508 31.181C249.776 32.9278 248.56 36.2616 250.564 45.3115C251.763 54.2386 252.679 64.4674 252.77 70.9628C252.856 76.7106 253.633 89.9498 253.803 101" stroke="#51821D" stroke-width="10.9623" stroke-linecap="round"/>
<path d="M243.416 65.2268C245.153 65.2042 249.378 65.0061 250.415 64.7044C250.618 64.6455 250.482 64.1956 250.279 63.8315C250.077 63.4675 249.72 63.0807 249.38 62.8502C247.685 61.7005 244.259 62.2875 241.205 61.1899C239.961 60.7431 239.32 60.132 238.991 59.6481C238.666 59.1691 238.732 58.4803 239.015 57.7635C240.805 53.2415 246.567 49.5509 246.812 48.9709C247.041 48.4279 246.666 47.4161 245.609 44.947C243.664 40.4039 242.477 37.0991 242.095 36.7659C241.952 36.7553 241.908 37.0667 241.886 37.3823C241.864 37.6979 241.864 38.0083 241.864 38.3281" stroke="#51821D" stroke-width="10.9623" stroke-linecap="round"/>
<path d="M240.748 10.1328C240.998 10.3042 242.039 10.7963 243.082 11.009C243.623 11.1192 243.958 10.2768 244.193 9.70096C244.435 9.1066 244.366 8.31472 244.268 7.57307C244.058 5.9927 240.777 5.94239 239.388 6.02287C238.646 6.06588 238.252 6.84517 238.042 7.49385C237.924 7.8571 237.94 8.33095 238.016 8.68141C238.149 9.2939 238.677 9.61719 239.15 9.84017C239.619 10.0616 240.194 10.0157 240.725 9.91139C240.975 9.81637 241.187 9.63593 241.402 9.40307C241.617 9.17022 241.828 8.89041 242.119 8.55581" stroke="#51821D" stroke-width="10.9623" stroke-linecap="round"/>
<path d="M228.05 53.6359C228.05 53.5807 228.057 51.5568 228.437 46.8791C228.931 40.8061 230.784 36.3236 231.583 34.461C232.247 32.9112 234.002 31.8707 237.484 30.1775C239.508 29.1935 243.302 29.4379 246.802 30.191C251.519 31.2058 253.22 34.217 253.96 35.5175C255.447 38.1305 255.775 42.9428 256.412 45.922C257.081 49.4143 257.459 50.5412 257.808 51.5313C258.054 52.2708 258.441 53.4917 258.865 54.7758" stroke="#51821D" stroke-width="10.9623" stroke-linecap="round"/>
<path d="M294.196 101C294.086 96.6232 294.685 78.9756 294.196 65.36C293.749 52.9532 294.315 41.9821 295.289 36.4559C295.975 32.5646 298.138 32.0332 299.014 31.1801C300.083 30.1397 302.507 30.3449 303.593 31.181C305.861 32.9278 304.645 36.2616 306.649 45.3115C307.847 54.2386 308.764 64.4674 308.855 70.9628C308.941 76.7106 309.717 89.9498 309.888 101" stroke="#51821D" stroke-width="10.9623" stroke-linecap="round"/>
<path d="M299.501 65.2268C301.238 65.2042 305.463 65.0061 306.5 64.7044C306.703 64.6455 306.567 64.1956 306.364 63.8315C306.162 63.4675 305.805 63.0807 305.465 62.8502C303.77 61.7005 300.343 62.2875 297.289 61.1899C296.046 60.7431 295.404 60.132 295.076 59.6481C294.751 59.1691 294.816 58.4803 295.1 57.7635C296.889 53.2415 302.652 49.5509 302.897 48.9709C303.126 48.4279 302.751 47.4161 301.694 44.947C299.749 40.4039 298.561 37.0991 298.18 36.7659C298.036 36.7553 297.993 37.0667 297.971 37.3823C297.949 37.6979 297.949 38.0083 297.949 38.3281" stroke="#51821D" stroke-width="10.9623" stroke-linecap="round"/>
<path d="M296.833 10.1328C297.083 10.3042 298.124 10.7963 299.167 11.009C299.708 11.1192 300.043 10.2768 300.278 9.70096C300.52 9.1066 300.451 8.31472 300.353 7.57307C300.143 5.9927 296.861 5.94239 295.473 6.02287C294.731 6.06588 294.337 6.84517 294.127 7.49385C294.009 7.8571 294.024 8.33095 294.1 8.68141C294.233 9.2939 294.762 9.61719 295.234 9.84017C295.704 10.0616 296.279 10.0157 296.81 9.91139C297.06 9.81637 297.272 9.63593 297.487 9.40307C297.702 9.17022 297.913 8.89041 298.204 8.55581" stroke="#51821D" stroke-width="10.9623" stroke-linecap="round"/>
<path d="M284.135 53.6359C284.135 53.5807 284.142 51.5568 284.522 46.8791C285.015 40.8061 286.869 36.3236 287.667 34.461C288.332 32.9112 290.086 31.8707 293.569 30.1775C295.593 29.1935 299.387 29.4379 302.887 30.191C307.604 31.2058 309.305 34.217 310.045 35.5175C311.532 38.1305 311.86 42.9428 312.497 45.922C313.165 49.4143 313.544 50.5412 313.892 51.5313C314.139 52.2708 314.526 53.4917 314.95 54.7758" stroke="#51821D" stroke-width="10.9623" stroke-linecap="round"/>
<path d="M350.28 101C350.171 96.6232 350.77 78.9756 350.28 65.36C349.834 52.9532 350.4 41.9821 351.374 36.4559C352.06 32.5646 354.223 32.0332 355.099 31.1801C356.168 30.1397 358.592 30.3449 359.678 31.181C361.946 32.9278 360.73 36.2616 362.734 45.3115C363.932 54.2386 364.849 64.4674 364.94 70.9628C365.025 76.7106 365.802 89.9498 365.973 101" stroke="#51821D" stroke-width="10.9623" stroke-linecap="round"/>
<path d="M355.585 65.2268C357.323 65.2042 361.548 65.0061 362.585 64.7044C362.787 64.6455 362.652 64.1956 362.449 63.8315C362.246 63.4675 361.89 63.0807 361.55 62.8502C359.855 61.7005 356.428 62.2875 353.374 61.1899C352.131 60.7431 351.489 60.132 351.161 59.6481C350.836 59.1691 350.901 58.4803 351.185 57.7635C352.974 53.2415 358.737 49.5509 358.981 48.9709C359.21 48.4279 358.835 47.4161 357.779 44.947C355.834 40.4039 354.646 37.0991 354.265 36.7659C354.121 36.7553 354.078 37.0667 354.056 37.3823C354.034 37.6979 354.034 38.0083 354.034 38.3281" stroke="#51821D" stroke-width="10.9623" stroke-linecap="round"/>
<path d="M352.918 10.1328C353.167 10.3042 354.208 10.7963 355.252 11.009C355.793 11.1192 356.128 10.2768 356.363 9.70096C356.605 9.1066 356.536 8.31472 356.438 7.57307C356.228 5.9927 352.946 5.94239 351.558 6.02287C350.816 6.06588 350.421 6.84517 350.211 7.49385C350.094 7.8571 350.109 8.33095 350.185 8.68141C350.318 9.2939 350.847 9.61719 351.319 9.84017C351.789 10.0616 352.364 10.0157 352.894 9.91139C353.145 9.81637 353.357 9.63593 353.572 9.40307C353.786 9.17022 353.997 8.89041 354.288 8.55581" stroke="#51821D" stroke-width="10.9623" stroke-linecap="round"/>
<path d="M340.22 53.6359C340.22 53.5807 340.227 51.5568 340.607 46.8791C341.1 40.8061 342.954 36.3236 343.752 34.461C344.416 32.9112 346.171 31.8707 349.654 30.1775C351.677 29.1935 355.472 29.4379 358.972 30.191C363.689 31.2058 365.39 34.217 366.13 35.5175C367.617 38.1305 367.944 42.9428 368.582 45.922C369.25 49.4143 369.628 50.5412 369.977 51.5313C370.223 52.2708 370.61 53.4917 371.035 54.7758" stroke="#51821D" stroke-width="10.9623" stroke-linecap="round"/>
<path d="M406.365 101C406.256 96.6232 406.855 78.9756 406.365 65.36C405.919 52.9532 406.485 41.9821 407.459 36.4559C408.145 32.5646 410.308 32.0332 411.184 31.1801C412.253 30.1397 414.677 30.3449 415.762 31.181C418.031 32.9278 416.815 36.2616 418.819 45.3115C420.017 54.2386 420.934 64.4674 421.025 70.9628C421.11 76.7106 421.887 89.9498 422.058 101" stroke="#51821D" stroke-width="10.9623" stroke-linecap="round"/>
<path d="M411.67 65.2268C413.408 65.2042 417.633 65.0061 418.67 64.7044C418.872 64.6455 418.736 64.1956 418.534 63.8315C418.331 63.4675 417.975 63.0807 417.635 62.8502C415.94 61.7005 412.513 62.2875 409.459 61.1899C408.216 60.7431 407.574 60.132 407.245 59.6481C406.92 59.1691 406.986 58.4803 407.269 57.7635C409.059 53.2415 414.821 49.5509 415.066 48.9709C415.295 48.4279 414.92 47.4161 413.863 44.947C411.919 40.4039 410.731 37.0991 410.35 36.7659C410.206 36.7553 410.163 37.0667 410.141 37.3823C410.118 37.6979 410.118 38.0083 410.118 38.3281" stroke="#51821D" stroke-width="10.9623" stroke-linecap="round"/>
<path d="M409.003 10.1328C409.252 10.3042 410.293 10.7963 411.337 11.009C411.877 11.1192 412.213 10.2768 412.448 9.70096C412.69 9.1066 412.621 8.31472 412.522 7.57307C412.313 5.9927 409.031 5.94239 407.643 6.02287C406.901 6.06588 406.506 6.84517 406.296 7.49385C406.179 7.8571 406.194 8.33095 406.27 8.68141C406.403 9.2939 406.931 9.61719 407.404 9.84017C407.873 10.0616 408.448 10.0157 408.979 9.91139C409.23 9.81637 409.442 9.63593 409.656 9.40307C409.871 9.17022 410.082 8.89041 410.373 8.55581" stroke="#51821D" stroke-width="10.9623" stroke-linecap="round"/>
<path d="M396.304 53.6359C396.304 53.5807 396.311 51.5568 396.692 46.8791C397.185 40.8061 399.038 36.3236 399.837 34.461C400.501 32.9112 402.256 31.8707 405.738 30.1775C407.762 29.1935 411.557 29.4379 415.057 30.191C419.773 31.2058 421.475 34.217 422.215 35.5175C423.702 38.1305 424.029 42.9428 424.667 45.922C425.335 49.4143 425.713 50.5412 426.062 51.5313C426.308 52.2708 426.695 53.4917 427.119 54.7758" stroke="#51821D" stroke-width="10.9623" stroke-linecap="round"/>
<path d="M462.45 101C462.341 96.6232 462.94 78.9756 462.45 65.36C462.004 52.9532 462.569 41.9821 463.544 36.4559C464.23 32.5646 466.393 32.0332 467.269 31.1801C468.338 30.1397 470.762 30.3449 471.847 31.181C474.115 32.9278 472.899 36.2616 474.903 45.3115C476.102 54.2386 477.018 64.4674 477.109 70.9628C477.195 76.7106 477.972 89.9498 478.142 101" stroke="#51821D" stroke-width="10.9623" stroke-linecap="round"/>
<path d="M467.755 65.2268C469.492 65.2042 473.717 65.0061 474.754 64.7044C474.957 64.6455 474.821 64.1956 474.619 63.8315C474.416 63.4675 474.059 63.0807 473.72 62.8502C472.024 61.7005 468.598 62.2875 465.544 61.1899C464.301 60.7431 463.659 60.132 463.33 59.6481C463.005 59.1691 463.071 58.4803 463.354 57.7635C465.144 53.2415 470.906 49.5509 471.151 48.9709C471.38 48.4279 471.005 47.4161 469.948 44.947C468.004 40.4039 466.816 37.0991 466.435 36.7659C466.291 36.7553 466.248 37.0667 466.225 37.3823C466.203 37.6979 466.203 38.0083 466.203 38.3281" stroke="#51821D" stroke-width="10.9623" stroke-linecap="round"/>
<path d="M465.087 10.1328C465.337 10.3042 466.378 10.7963 467.421 11.009C467.962 11.1192 468.298 10.2768 468.532 9.70096C468.775 9.1066 468.706 8.31472 468.607 7.57307C468.398 5.9927 465.116 5.94239 463.727 6.02287C462.986 6.06588 462.591 6.84517 462.381 7.49385C462.263 7.8571 462.279 8.33095 462.355 8.68141C462.488 9.2939 463.016 9.61719 463.489 9.84017C463.958 10.0616 464.533 10.0157 465.064 9.91139C465.315 9.81637 465.527 9.63593 465.741 9.40307C465.956 9.17022 466.167 8.89041 466.458 8.55581" stroke="#51821D" stroke-width="10.9623" stroke-linecap="round"/>
<path d="M452.389 53.6359C452.389 53.5807 452.396 51.5568 452.776 46.8791C453.27 40.8061 455.123 36.3236 455.922 34.461C456.586 32.9112 458.341 31.8707 461.823 30.1775C463.847 29.1935 467.641 29.4379 471.142 30.191C475.858 31.2058 477.559 34.217 478.299 35.5175C479.786 38.1305 480.114 42.9428 480.752 45.922C481.42 49.4143 481.798 50.5412 482.147 51.5313C482.393 52.2708 482.78 53.4917 483.204 54.7758" stroke="#51821D" stroke-width="10.9623" stroke-linecap="round"/>
<path d="M518.535 101C518.425 96.6232 519.025 78.9756 518.535 65.36C518.089 52.9532 518.654 41.9821 519.628 36.4559C520.314 32.5646 522.477 32.0332 523.354 31.1801C524.422 30.1397 526.846 30.3449 527.932 31.181C530.2 32.9278 528.984 36.2616 530.988 45.3115C532.187 54.2386 533.103 64.4674 533.194 70.9628C533.28 76.7106 534.057 89.9498 534.227 101" stroke="#C8C8C8" stroke-width="10.9623" stroke-linecap="round"/>
<path d="M523.84 65.2268C525.577 65.2042 529.802 65.0061 530.839 64.7044C531.042 64.6455 530.906 64.1956 530.703 63.8315C530.501 63.4675 530.144 63.0807 529.804 62.8502C528.109 61.7005 524.682 62.2875 521.629 61.1899C520.385 60.7431 519.744 60.132 519.415 59.6481C519.09 59.1691 519.155 58.4803 519.439 57.7635C521.228 53.2415 526.991 49.5509 527.236 48.9709C527.465 48.4279 527.09 47.4161 526.033 44.947C524.088 40.4039 522.901 37.0991 522.519 36.7659C522.376 36.7553 522.332 37.0667 522.31 37.3823C522.288 37.6979 522.288 38.0083 522.288 38.3281" stroke="#C8C8C8" stroke-width="10.9623" stroke-linecap="round"/>
<path d="M521.172 10.1328C521.422 10.3042 522.463 10.7963 523.506 11.009C524.047 11.1192 524.382 10.2768 524.617 9.70096C524.86 9.1066 524.79 8.31472 524.692 7.57307C524.482 5.9927 521.201 5.94239 519.812 6.02287C519.07 6.06588 518.676 6.84517 518.466 7.49385C518.348 7.8571 518.364 8.33095 518.44 8.68141C518.573 9.2939 519.101 9.61719 519.574 9.84017C520.043 10.0616 520.618 10.0157 521.149 9.91139C521.399 9.81637 521.611 9.63593 521.826 9.40307C522.041 9.17022 522.252 8.89041 522.543 8.55581" stroke="#C8C8C8" stroke-width="10.9623" stroke-linecap="round"/>
<path d="M508.474 53.6359C508.474 53.5807 508.481 51.5568 508.861 46.8791C509.355 40.8061 511.208 36.3236 512.007 34.461C512.671 32.9112 514.426 31.8707 517.908 30.1775C519.932 29.1935 523.726 29.4379 527.226 30.191C531.943 31.2058 533.644 34.217 534.384 35.5175C535.871 38.1305 536.199 42.9428 536.836 45.922C537.505 49.4143 537.883 50.5412 538.232 51.5313C538.478 52.2708 538.865 53.4917 539.289 54.7758" stroke="#C8C8C8" stroke-width="10.9623" stroke-linecap="round"/>
</svg>
