<svg width="116" height="150" viewBox="0 0 116 150" fill="none" xmlns="http://www.w3.org/2000/svg">
<path d="M52.4377 6.99141C12.9069 21.139 28.5862 65.4776 55.1905 68.5706C79.1709 71.3542 122.927 46.7503 85.6767 10.4634C53.991 -20.3959 -4.76983 41.1534 47.1908 66.8246C58.095 72.2122 102.038 66.6047 101.244 29.839C100.84 11.1119 68.8327 -9.10146 42.0014 15.2528C29.0016 27.0557 18.9142 55.2011 44.8127 62.2549C75.5685 70.6457 83.4245 65.5774 94.1087 50.0729C106.786 31.675 89.9661 17.8664 87.8387 16.1204C80.0938 9.76496 79.8222 10.5235 70.9739 5.6746" stroke="#262626" stroke-width="4" stroke-miterlimit="1.5" stroke-linecap="round" stroke-linejoin="round"/>
<path d="M2.00342 143.177C1.7328 122.624 17.4392 88.686 61.2444 85.1042C106.508 81.4126 108.101 118.308 114 148C113.879 146.663 115.247 123.137 99.9465 100.998C96.9052 96.598 97.5882 93.1161 95.1902 91.6395C69.256 75.686 36.5354 89.0652 31.8397 90.9808C18.5702 96.4084 9.2022 106.96 4.97731 144.174" stroke="#262626" stroke-width="4" stroke-miterlimit="1.5" stroke-linecap="round" stroke-linejoin="round"/>
<path d="M70.2324 3.82007C68.8833 2.78245 74.0647 7.1525 61.2444 23.086C49.0039 38.3111 48.5439 38.2313 30.3259 45.2851C43.7639 40.6258 63.8406 17.3691 65.3523 14.6054C68.348 9.11799 66.8055 7.31166 70.3256 5.89491" stroke="#262626" stroke-width="4" stroke-miterlimit="1.5" stroke-linecap="round" stroke-linejoin="round"/>
<path d="M69.2441 6.77344C72.1774 13.6577 69.258 14.8946 74.2175 20.4818C75.7887 22.2477 77.6394 28.4338 83.947 30.4891C92.71 33.3526 92.6833 33.482 101.892 32.6638C94.4874 36.6148 94.3952 33.2025 87.6227 28.0942C79.7291 22.1379 80.0869 21.8187 74.6497 13.5178" stroke="#262626" stroke-width="4" stroke-miterlimit="1.5" stroke-linecap="round" stroke-linejoin="round"/>
<path d="M27.5682 34.1404C23.9143 31.7858 26.8792 76.8829 27.5156 76.404C27.8428 76.1545 41.0398 74.3884 42.2185 74.2288C47.8629 73.4705 47.7221 73.9793 53.4607 74.2288C64.1915 69.1903 102.862 74.2686 102.974 71.6146C103.536 58.3251 102.684 44.1876 102.542 41.8031C102.115 34.7293 101.759 34.869 101.028 27.875C101.028 48.4179 104.689 48.2183 102.7 68.7214C84.0144 75.9648 68.7157 69.9385 64.2718 71.6146C57.7421 74.079 48.1742 72.2733 46.3264 72.2733C44.9138 72.2733 32.5811 75.1966 27.9478 75.5358C27.2192 66.726 27.1429 66.8558 27.2995 57.9063" stroke="#262626" stroke-width="4" stroke-miterlimit="1.5" stroke-linecap="round" stroke-linejoin="round"/>
<path d="M48.8255 34.7165C48.6232 37.8294 48.8027 37.7296 48.9206 40.9323L49.785 34.8364L49.1367 43.1075C49.3528 39.9148 49.5689 36.722 49.785 33.5293C49.6413 35.6345 49.4975 37.7397 49.3528 39.8449" stroke="#262626" stroke-width="4" stroke-miterlimit="1.5" stroke-linecap="round" stroke-linejoin="round"/>
<path d="M77.461 30.4877C77.3182 31.3457 75.407 42.889 77.677 41.3724C80.3555 39.5666 78.711 30.7467 78.5415 29.8388C78.3283 30.8565 74.9917 46.81 78.3254 42.889C80.2158 40.6741 77.7167 30.0484 77.461 28.9609C77.2449 33.1015 77.0278 37.2319 76.8117 41.3724" stroke="#262626" stroke-width="4" stroke-miterlimit="1.5" stroke-linecap="round" stroke-linejoin="round"/>
<path d="M50.5216 34.0898C50.708 35.6463 50.8953 37.2029 51.0827 38.7593" stroke="#262626" stroke-width="4" stroke-miterlimit="1.5" stroke-linecap="round" stroke-linejoin="round"/>
<path d="M52.7797 33.3105C52.2771 35.1164 52.3138 40.9926 49.1367 44.1953" stroke="#262626" stroke-width="4" stroke-miterlimit="1.5" stroke-linecap="round" stroke-linejoin="round"/>
<path d="M50.6633 51.1094C51.1927 51.5983 52.3555 52.6756 59.0546 54.3617C67.1218 56.3871 71.5033 52.636 74.9411 51.768" stroke="#262626" stroke-width="4" stroke-miterlimit="1.5" stroke-linecap="round" stroke-linejoin="round"/>
<path d="M38.64 91.6283C37.3959 102.723 72.0297 128.963 84.4218 88.1465" stroke="#262626" stroke-width="4" stroke-miterlimit="1.5" stroke-linecap="round" stroke-linejoin="round"/>
<path d="M27.4006 96.3184C21.5718 120.762 21.0048 120.732 21.4331 124.184C21.4668 124.454 28.9808 123.496 33.5338 123.845" stroke="#262626" stroke-width="4" stroke-miterlimit="1.5" stroke-linecap="round" stroke-linejoin="round"/>
<path d="M32.9033 123.047C32.8012 123.167 32.1232 123.017 32.373 136.865C32.3859 137.573 32.4989 143.839 32.8706 145.705" stroke="#262626" stroke-width="4" stroke-miterlimit="1.5" stroke-linecap="round" stroke-linejoin="round"/>
<path d="M38.6617 90.8086C38.8739 93.6321 44.1278 143.108 45.6335 143.867" stroke="#262626" stroke-width="4" stroke-miterlimit="1.5" stroke-linecap="round" stroke-linejoin="round"/>
<path d="M85.9782 88.7227C83.0132 89.0719 73.9538 136.953 73.1498 141.193" stroke="#262626" stroke-width="4" stroke-miterlimit="1.5" stroke-linecap="round" stroke-linejoin="round"/>
<path d="M85.9127 89.6426C87.1895 99.919 95.5302 117.758 91.3827 119.843C85.5707 122.767 84.6726 122.876 85.4161 125.68C85.8602 127.356 85.7333 127.366 84.5873 147.37" stroke="#262626" stroke-width="4" stroke-miterlimit="1.5" stroke-linecap="round" stroke-linejoin="round"/>
</svg>
