<svg width="587" height="16" viewBox="0 0 587 16" fill="none" xmlns="http://www.w3.org/2000/svg"        data-draw="true"
data-stagger="1" data-delay="0.5">
<path d="M6 10C15.1628 10 40.4595 9.45341 53.0745 8.05704C58.8572 7.41695 65.5662 6.86308 87.2132 6.31076C136.655 5.04925 171.581 6.38903 178.252 6.88198C189.184 7.68986 198.042 8.37148 225.273 8.22868C250.368 8.09708 298.335 6.94429 335.319 6.15795C372.303 5.37161 396.845 4.75631 416.724 5.09524C436.603 5.43418 451.075 6.746 481.899 7.48582C512.722 8.22563 559.457 8.35369 584.562 8.31034" stroke="#C8C8C8" stroke-width="4" stroke-linecap="round"/>
<path d="M6 10.0003C30.6735 10.0003 55.5866 8.61342 80.4949 8.22894C89.0206 8.09734 104.435 9.01555 117 8.22921C134.183 7.15386 150.646 6.28263 167.68 7.48607C178.152 8.22589 194.331 6.20155 202.86 6.1582" stroke="#51821D" stroke-width="11" stroke-linecap="round"/>
</svg>
