<svg width="587" height="17" viewBox="0 0 587 17" fill="none" xmlns="http://www.w3.org/2000/svg"        data-draw="true"
data-stagger="1">
<path d="M6 11C15.1628 11 40.4595 10.4534 53.0745 9.05704C58.8572 8.41695 65.5662 7.86308 87.2132 7.31076C136.655 6.04925 171.581 7.38903 178.252 7.88198C189.184 8.68986 198.042 9.37148 225.273 9.22868C250.368 9.09708 298.335 7.94429 335.319 7.15795C372.303 6.37161 396.845 5.75631 416.724 6.09524C436.603 6.43418 451.075 7.746 481.899 8.48582C512.722 9.22563 559.457 9.35369 584.562 9.31034" stroke="#C8C8C8" stroke-width="4" stroke-linecap="round"/>
<path d="M6 11C11.9558 11 28.3986 10.4534 36.5983 9.05704C40.357 8.41695 44.7179 7.86308 58.7884 7.31076C90.9258 6.04925 113.627 7.38903 117.963 7.88198C125.069 8.68986 130.827 9.37148 148.527 9.22868C164.838 9.09708 196.017 7.94429 220.056 7.15795C244.096 6.37161 260.048 5.75631 272.969 6.09524C285.891 6.43418 295.298 7.746 315.333 8.48582C335.368 9.22563 366.323 7.2013 382.641 7.15795" stroke="#51821D" stroke-width="11" stroke-linecap="round"/>
</svg>
