<svg width="587" height="17" viewBox="0 0 587 17" fill="none" xmlns="http://www.w3.org/2000/svg" data-draw="true" data-stagger="1" data-delay="0.25">
<path d="M6 11C15.1628 11 40.4595 10.4534 53.0745 9.05704C58.8572 8.41695 65.5662 7.86308 87.2132 7.31076C136.655 6.04925 171.581 7.38903 178.252 7.88198C189.184 8.68986 198.042 9.37148 225.273 9.22868C250.368 9.09708 298.335 7.94429 335.319 7.15795C372.303 6.37161 396.845 5.75631 416.724 6.09524C436.603 6.43418 451.075 7.746 481.899 8.48582C512.722 9.22563 559.457 9.35369 584.562 9.31034" stroke="#C8C8C8" stroke-width="4" stroke-linecap="round"/>
<path d="M6 11C11.4018 11 26.3153 10.4534 33.7524 9.05704C37.1615 8.41695 41.1168 7.86308 53.8787 7.31076C83.027 6.04925 103.617 7.38903 107.55 7.88198C113.995 8.68986 119.217 9.37148 135.271 9.22868C150.065 9.09708 178.344 7.94429 200.147 7.15795C221.951 6.37161 236.42 5.75631 248.139 6.09524C259.859 6.43418 268.391 7.746 286.562 8.48582C304.734 9.22563 332.81 7.2013 347.61 7.15795" stroke="#51821D" stroke-width="11" stroke-linecap="round"/>
</svg>
