<svg width="37" height="56" viewBox="0 0 37 56" fill="none" xmlns="http://www.w3.org/2000/svg">
    <path vector-effect="non-scaling-stroke"
        d="M2.49988 53.9992C4.10892 44.6011 13.9133 22.0408 19.6961 24.6869C26.1934 27.6659 20.0233 30.9949 19.2644 32.2838C12.3271 44.0805 2.8457 53.2738 2.69659 53.5469"
        stroke="#262626" stroke-width="4" stroke-miterlimit="1.5" stroke-linecap="round"
        stroke-linejoin="round" />
    <path vector-effect="non-scaling-stroke"
        d="M20.9429 23.041C14.9365 14.6075 23.2747 11.0396 23.2985 11.0311C23.7406 10.7494 24.9096 10.0067 27.6204 6.51554C28.5409 5.32905 28.2561 5.32048 29.0606 2L30.2131 6.87398C31.4111 5.65334 32.608 4.42434 33.8049 3.2037C36.0953 21.0609 32.9745 22.4267 20.7048 24.8082"
        stroke="#262626" stroke-width="4" stroke-miterlimit="1.5" stroke-linecap="round"
        stroke-linejoin="round" />
    <path vector-effect="non-scaling-stroke"
        d="M24.7035 10.7988C24.1309 14.9388 23.9569 15.0584 24.3069 15.1864C24.3069 15.1864 27.7528 13.1033 28.052 12.9241C27.3169 16.3896 25.0576 18.5579 29.2055 17.9177C30.245 17.7555 31.6573 14.5547 31.7982 14.2303"
        stroke="#262626" stroke-width="4" stroke-miterlimit="1.5" stroke-linecap="round"
        stroke-linejoin="round" />
</svg>