<svg width="37" height="46" viewBox="0 0 37 46" fill="none" xmlns="http://www.w3.org/2000/svg">
    <path vector-effect="non-scaling-stroke"
        d="M16.9535 2.1408C4.73495 0.13565 7.01177 20.312 21.346 14.0854C23.021 13.3563 29.6107 1.38289 16.2384 2.27513"
        stroke="#262626" stroke-width="4" stroke-miterlimit="1.5" stroke-linecap="round"
        stroke-linejoin="round" />
    <path vector-effect="non-scaling-stroke"
        d="M2.71007 38.5976C1.66755 37.1681 4.53908 26.3269 10.5719 24.2642C17.5574 21.8753 17.7655 22.2494 21.3756 23.7557"
        stroke="#262626" stroke-width="4" stroke-miterlimit="1.5" stroke-linecap="round"
        stroke-linejoin="round" />
    <path vector-effect="non-scaling-stroke"
        d="M28.8355 24.1095C25.4835 21.4327 20.9308 31.8998 24.1431 34.922C29.1649 39.6518 38.6354 30.4799 31.197 25.0977"
        stroke="#262626" stroke-width="4" stroke-miterlimit="1.5" stroke-linecap="round"
        stroke-linejoin="round" />
    <path vector-effect="non-scaling-stroke"
        d="M30.8327 36.248C30.2278 37.8023 33.4727 40.3734 34.4999 44" stroke="#262626"
        stroke-width="4" stroke-miterlimit="1.5" stroke-linecap="round" stroke-linejoin="round" />
    <path vector-effect="non-scaling-stroke"
        d="M3.51904 38.877C8.97649 40.7958 9.29171 38.5699 14.8583 39.9611C17.8298 40.7094 17.6054 38.7138 19.6792 39.04"
        stroke="#262626" stroke-width="4" stroke-miterlimit="1.5" stroke-linecap="round"
        stroke-linejoin="round" />
</svg>