<svg width="41" height="40" viewBox="0 0 41 40" fill="none" xmlns="http://www.w3.org/2000/svg">
    <path vector-effect="non-scaling-stroke"
        d="M14.1739 11.747C12.1751 8.53268 11.5094 4.60013 12.8558 3.68312C18.054 0.137962 20.4969 6.24523 20.7635 6.90699"
        stroke="#262626" stroke-width="4" stroke-miterlimit="1.5" stroke-linecap="round"
        stroke-linejoin="round" />
    <path vector-effect="non-scaling-stroke"
        d="M12.8558 12.5508C5.61017 16.4268 3.45601 20.2369 2.49988 22.0331C6.10722 26.7789 5.74084 27.3743 5.88916 27.6768C9.88055 19.1211 13.4217 24.5476 13.9849 26.0602C15.3878 29.8134 12.9741 28.8681 9.84258 31.0991"
        stroke="#262626" stroke-width="4" stroke-miterlimit="1.5" stroke-linecap="round"
        stroke-linejoin="round" />
    <path vector-effect="non-scaling-stroke"
        d="M9.5321 32.6694C11.5309 35.7324 11.5494 35.5619 14.0347 38.001C14.6933 37.4999 22.2699 31.7051 22.2699 31.7051"
        stroke="#262626" stroke-width="4" stroke-miterlimit="1.5" stroke-linecap="round"
        stroke-linejoin="round" />
    <path vector-effect="non-scaling-stroke"
        d="M22.7562 32.4776C23.165 33.007 26.5066 37.3276 29.8014 36.543C35.5823 35.1627 33.5765 32.7331 30.9306 27.0703"
        stroke="#262626" stroke-width="4" stroke-miterlimit="1.5" stroke-linecap="round"
        stroke-linejoin="round" />
    <path vector-effect="non-scaling-stroke"
        d="M21.8811 6.76472C21.3805 7.17124 22.3499 6.44326 28.378 2C28.6331 2.57668 28.4733 2.5956 31.1934 9.34558C20.1489 9.2794 26.7986 18.1372 27.353 18.4019C31.204 20.2265 33.3193 15.6982 33.5665 15.1688"
        stroke="#262626" stroke-width="4" stroke-miterlimit="1.5" stroke-linecap="round"
        stroke-linejoin="round" />
    <path vector-effect="non-scaling-stroke"
        d="M34.5076 15.377C34.7857 15.9725 35.1459 15.6511 38.4999 22.5051C34.8758 24.7173 35.0108 24.6322 31.3073 26.4662"
        stroke="#262626" stroke-width="4" stroke-miterlimit="1.5" stroke-linecap="round"
        stroke-linejoin="round" />
</svg>