<svg width="37" height="36" viewBox="0 0 37 36" fill="none" xmlns="http://www.w3.org/2000/svg">
    <path vector-effect="non-scaling-stroke"
        d="M5.57635 2C2.31465 2.31388 0.914034 10.1471 5.08957 9.3692C6.98911 9.01438 8.76618 6.17641 8.85524 5.87618C9.71949 2.90115 8.49093 3.18731 6.20076 2.36849"
        stroke="#262626" stroke-width="4" stroke-miterlimit="1.5" stroke-linecap="round"
        stroke-linejoin="round" />
    <path vector-effect="non-scaling-stroke"
        d="M9.9209 5.04078C16.8015 5.3956 18.7648 2.55709 18.2993 6.11894C18.1404 7.33351 18.1495 29.7421 18.6697 30.6701C19.1231 31.4889 20.9669 29.8099 22.8058 30.2602C26.1778 31.0654 26.1585 30.1375 32.9572 29.6599C31.1113 27.4218 31.1265 27.49 29.1015 25.5931C32.9987 27.8312 34.9549 28.3362 34.4104 29.0868C32.4765 31.8025 32.6728 32.062 30.2744 33.9998"
        stroke="#262626" stroke-width="4" stroke-miterlimit="1.5" stroke-linecap="round"
        stroke-linejoin="round" />
</svg>