<svg width="37" height="36" viewBox="0 0 37 36" fill="none" xmlns="http://www.w3.org/2000/svg">
    <path vector-effect="non-scaling-stroke"
        d="M2.5 18.7308C10.2451 18.7308 12.1138 18.1969 15.4614 18.1436C20.0617 18.0796 29.851 18.2183 34.5 17.8555"
        stroke="#262626" stroke-width="4" stroke-miterlimit="1.5" stroke-linecap="round"
        stroke-linejoin="round" />
    <path vector-effect="non-scaling-stroke"
        d="M17.611 2C17.8605 10.0239 18.1149 9.98129 18.4649 18.0266C19.002 30.3826 20.0412 30.6176 19.8589 34"
        stroke="#262626" stroke-width="4" stroke-miterlimit="1.5" stroke-linecap="round"
        stroke-linejoin="round" />
    <path vector-effect="non-scaling-stroke"
        d="M5.91195 6.81445C5.45183 7.476 7.47754 9.65227 10.3133 10.6339C10.7111 10.7726 11.138 10.7835 11.5465 10.8689C12.2435 11.0289 12.1295 11.2212 12.727 11.5733"
        stroke="#262626" stroke-width="4" stroke-miterlimit="1.5" stroke-linecap="round"
        stroke-linejoin="round" />
    <path vector-effect="non-scaling-stroke"
        d="M11.7248 5.19336C11.0775 5.9296 10.014 8.33005 6.18384 13.9212" stroke="#262626"
        stroke-width="4" stroke-miterlimit="1.5" stroke-linecap="round" stroke-linejoin="round" />
    <path vector-effect="non-scaling-stroke"
        d="M28.7602 23.4379C22.5193 25.988 28.8908 37.6723 33.4813 29.7764C34.4542 28.1012 33.6929 25.5935 33.5886 25.252C33.069 23.5448 32.6995 23.3848 30.1026 22.6699"
        stroke="#262626" stroke-width="4" stroke-miterlimit="1.5" stroke-linecap="round"
        stroke-linejoin="round" />
</svg>